<?xml version="1.0" standalone="no"?>
<!DOCTYPE svg PUBLIC "-//W3C//DTD SVG 20010904//EN"
 "http://www.w3.org/TR/2001/REC-SVG-20010904/DTD/svg10.dtd">
<svg version="1.0" xmlns="http://www.w3.org/2000/svg"
 width="165.000000pt" height="31.000000pt" viewBox="0 0 165.000000 31.000000"
 preserveAspectRatio="xMidYMid meet">

<g transform="translate(0.000000,31.000000) scale(0.100000,-0.100000)"
fill="#FFFFFF" stroke="none">
<path d="M113 220 c-45 -18 -60 -103 -23 -140 38 -38 120 -20 120 25 0 31 -7
31 -37 3 -19 -18 -28 -20 -41 -12 -37 23 -26 94 14 94 13 0 27 -7 30 -15 9
-22 34 -18 34 4 0 22 -35 51 -60 50 -8 0 -25 -4 -37 -9z"/>
<path d="M274 219 c-45 -23 -57 -90 -23 -133 26 -33 88 -37 119 -6 27 27 28
100 2 123 -24 22 -71 29 -98 16z m74 -67 c2 -18 -2 -40 -9 -48 -16 -20 -46
-17 -59 5 -23 45 -4 84 40 79 20 -2 26 -9 28 -36z"/>
<path d="M460 217 c-33 -16 -52 -55 -45 -91 8 -46 32 -66 80 -66 54 0 78 18
73 55 -3 27 -7 30 -37 30 -19 0 -36 -6 -38 -12 -3 -8 4 -13 16 -13 12 0 21 -6
21 -15 0 -24 -57 -19 -70 6 -15 27 -5 66 19 78 14 8 25 6 44 -9 26 -20 37 -17
37 10 0 16 -38 40 -63 40 -7 0 -23 -6 -37 -13z"/>
<path d="M607 224 c-4 -4 -7 -43 -7 -86 0 -70 2 -79 18 -76 12 2 18 15 20 47
l3 43 29 -46 c20 -30 37 -46 50 -46 20 0 21 5 18 82 -2 66 -6 83 -18 83 -11 0
-16 -13 -18 -48 l-3 -48 -32 48 c-32 47 -48 59 -60 47z"/>
<path d="M786 223 c-3 -3 -6 -42 -6 -85 0 -63 3 -78 15 -78 12 0 15 15 15 79
0 74 -7 100 -24 84z"/>
<path d="M1082 218 c-17 -22 -62 -140 -56 -149 10 -16 33 -9 39 11 9 28 61 28
70 0 8 -25 35 -26 35 -1 0 20 -37 118 -53 139 -5 6 -13 12 -17 12 -4 0 -12 -6
-18 -12z m28 -74 c0 -8 -6 -14 -14 -14 -9 0 -12 7 -9 20 6 22 23 18 23 -6z"/>
<path d="M1512 214 c-35 -24 -25 -55 26 -79 23 -11 42 -25 42 -32 0 -18 -47
-16 -54 2 -8 22 -36 18 -36 -5 0 -23 28 -40 67 -40 43 0 65 20 61 55 -2 25
-10 32 -46 44 -24 7 -41 18 -39 24 6 18 24 19 40 2 21 -21 37 -19 37 5 0 13
-10 24 -26 30 -35 14 -46 13 -72 -6z"/>
<path d="M844 206 c-3 -7 -4 -42 -2 -77 2 -51 6 -64 21 -67 14 -3 17 4 18 35
l2 38 10 -37 c15 -54 42 -51 59 5 l13 42 3 -42 c2 -29 8 -43 18 -43 11 0 14
17 14 81 l0 80 -27 -3 c-22 -2 -30 -10 -38 -42 -12 -43 -19 -40 -30 12 -5 25
-12 32 -31 32 -14 0 -27 -6 -30 -14z"/>
<path d="M1187 214 c-11 -12 3 -24 29 -24 23 0 24 -3 24 -65 0 -51 3 -65 15
-65 12 0 15 14 15 65 0 63 1 65 25 65 16 0 25 6 25 15 0 12 -14 15 -63 15 -35
0 -67 -3 -70 -6z"/>
<path d="M1340 140 l0 -81 62 3 c75 4 96 28 24 28 -39 0 -46 3 -46 20 0 17 7
20 40 20 29 0 40 4 40 15 0 11 -11 15 -40 15 -29 0 -40 4 -40 15 0 11 11 15
40 15 29 0 40 4 40 15 0 12 -13 15 -60 15 l-60 0 0 -80z"/>
</g>
</svg>
