<svg viewBox="0 0 1711.65 648.93" xmlns="http://www.w3.org/2000/svg" xmlns:xlink="http://www.w3.org/1999/xlink"><radialGradient id="a" cx="837.31" cy="424.21" gradientTransform="matrix(0 -1 -.9 0 1250.33 986.86)" gradientUnits="userSpaceOnUse" r="11.69"><stop offset="0" stop-color="#29afcf"/><stop offset=".18" stop-color="#28a8c8"/><stop offset=".36" stop-color="#2497b3"/><stop offset=".55" stop-color="#1f7c94"/><stop offset=".74" stop-color="#175c6e"/><stop offset=".93" stop-color="#103a48"/><stop offset="1" stop-color="#0d2f3a"/></radialGradient><radialGradient id="b" cx="798.72" cy="469.33" gradientTransform="matrix(-.17 -.92 -1.02 .27 1382.85 725.04)" r="12.31" xlink:href="#a"/><radialGradient id="c" cx="714.7" cy="-43.55" gradientTransform="matrix(1 0 0 -1 -4.65 230.57)" r="18.67" xlink:href="#a"/><radialGradient id="d" cx="699.26" cy="-290.93" gradientTransform="matrix(1 0 0 -1 -4.65 230.57)" r="5.75" xlink:href="#a"/><radialGradient id="e" cx="731.64" cy="-290.93" gradientTransform="matrix(1 0 0 -1 -4.65 230.57)" r="5.75" xlink:href="#a"/><radialGradient id="f" cx="764.03" cy="-290.93" gradientTransform="matrix(1 0 0 -1 -4.65 230.57)" r="5.75" xlink:href="#a"/><radialGradient id="g" cx="796.4" cy="-290.93" gradientTransform="matrix(1 0 0 -1 -4.65 230.57)" r="5.75" xlink:href="#a"/><radialGradient id="h" cx="828.8" cy="-290.93" gradientTransform="matrix(1 0 0 -1 -4.65 230.57)" r="5.74" xlink:href="#a"/><radialGradient id="i" cx="806.34" cy="-43.55" gradientTransform="matrix(1 0 0 -1 -4.65 230.57)" r="18.68" xlink:href="#a"/><radialGradient id="j" cx="896" cy="-43.55" gradientTransform="matrix(1 0 0 -1 -4.65 230.57)" r="18.7" xlink:href="#a"/><linearGradient id="k" gradientUnits="userSpaceOnUse" x1="27.36" x2="149.59" y1="321.57" y2="199.33"><stop offset="0" stop-color="#fff" stop-opacity="0"/><stop offset=".29" stop-color="#edd1b5"/></linearGradient><path d="m953.4 467.7h-86a12 12 0 0 1 -12-12v-10a12 12 0 0 1 12-12h86a12 12 0 0 1 12 12v10a12 12 0 0 1 -12 12z" fill="#29afcf" transform="translate(-4.65 -12.17)"/><path d="m891.16 455.68v-11.12h4.19a10.1 10.1 0 0 1 1.69.11 3.24 3.24 0 0 1 1.37.52 2.63 2.63 0 0 1 .89 1.07 3.33 3.33 0 0 1 .34 1.52 3.44 3.44 0 0 1 -.9 2.4 4.35 4.35 0 0 1 -3.26 1h-2.85v4.52zm1.47-5.83h2.87a3.09 3.09 0 0 0 2-.53 1.91 1.91 0 0 0 .59-1.5 2 2 0 0 0 -.35-1.19 1.64 1.64 0 0 0 -.93-.66 6.55 6.55 0 0 0 -1.37-.1h-2.84z" fill="#fff" transform="translate(-4.65 -12.17)"/><path d="m906.62 455.68v-1.19a3 3 0 0 1 -2.56 1.37 3.29 3.29 0 0 1 -1.33-.27 2.34 2.34 0 0 1 -.92-.69 2.72 2.72 0 0 1 -.42-1 7.59 7.59 0 0 1 -.08-1.28v-5h1.36v4.47a7.41 7.41 0 0 0 .09 1.44 1.45 1.45 0 0 0 .54.85 1.75 1.75 0 0 0 1 .3 2.23 2.23 0 0 0 1.15-.31 1.76 1.76 0 0 0 .76-.86 4.26 4.26 0 0 0 .22-1.57v-4.32h1.37v8.06z" fill="#fff" transform="translate(-4.65 -12.17)"/><path d="m910 458.76v-11.14h1.24v1.05a3 3 0 0 1 1-.92 2.7 2.7 0 0 1 1.35-.31 3.24 3.24 0 0 1 1.82.53 3.37 3.37 0 0 1 1.19 1.5 5.63 5.63 0 0 1 .4 2.12 5.35 5.35 0 0 1 -.45 2.23 3.36 3.36 0 0 1 -3.06 2 2.6 2.6 0 0 1 -1.23-.29 2.67 2.67 0 0 1 -.89-.73v3.92zm1.23-7.06a3.48 3.48 0 0 0 .63 2.29 1.93 1.93 0 0 0 1.53.75 2 2 0 0 0 1.55-.77 3.63 3.63 0 0 0 .65-2.39 3.57 3.57 0 0 0 -.63-2.3 1.91 1.91 0 0 0 -1.51-.77 2 2 0 0 0 -1.55.82 3.68 3.68 0 0 0 -.69 2.37z" fill="#fff" transform="translate(-4.65 -12.17)"/><path d="m918.61 458.76v-11.14h1.25v1.05a3 3 0 0 1 1-.92 2.68 2.68 0 0 1 1.34-.31 3.19 3.19 0 0 1 1.8.56 3.3 3.3 0 0 1 1.19 1.5 5.45 5.45 0 0 1 .4 2.12 5.35 5.35 0 0 1 -.44 2.23 3.39 3.39 0 0 1 -3.07 2 2.59 2.59 0 0 1 -1.22-.29 2.67 2.67 0 0 1 -.89-.73v3.92zm1.24-7.06a3.48 3.48 0 0 0 .63 2.29 1.93 1.93 0 0 0 1.52.75 2 2 0 0 0 1.56-.77 3.69 3.69 0 0 0 .65-2.39 3.57 3.57 0 0 0 -.63-2.3 1.93 1.93 0 0 0 -1.52-.77 2 2 0 0 0 -1.54.82 3.62 3.62 0 0 0 -.67 2.37z" fill="#fff" transform="translate(-4.65 -12.17)"/><path d="m927.19 458.78-.19-1.28a3.09 3.09 0 0 0 .78.12 1.55 1.55 0 0 0 .73-.15 1.21 1.21 0 0 0 .49-.47 5.64 5.64 0 0 0 .42-1l.12-.34-3-8.07h1.46l1.67 4.67a19.3 19.3 0 0 1 .59 1.86 16.14 16.14 0 0 1 .56-1.83l1.72-4.7h1.36l-3.06 8.19a16.37 16.37 0 0 1 -.76 1.83 2.81 2.81 0 0 1 -.84 1 2 2 0 0 1 -1.12.31 2.74 2.74 0 0 1 -.93-.14z" fill="#fff" transform="translate(-4.65 -12.17)"/><path d="m1074.1 467.7h-86a12 12 0 0 1 -12-12v-10a12 12 0 0 1 12-12h86a12 12 0 0 1 12 12v10a12 12 0 0 1 -12 12z" fill="#29afcf" transform="translate(-4.65 -12.17)"/><path d="m1016.8 456.12a4.49 4.49 0 0 1 -1.78-2 6.76 6.76 0 0 1 -.62-3 6.64 6.64 0 0 1 .62-3 4.44 4.44 0 0 1 1.78-1.95 5.21 5.21 0 0 1 2.72-.68 5.86 5.86 0 0 1 2.1.35 4.54 4.54 0 0 1 1.66 1l-.48 1a5.64 5.64 0 0 0 -1.56-1 4.89 4.89 0 0 0 -1.7-.29 3.49 3.49 0 0 0 -2.82 1.18 5 5 0 0 0 -1 3.35 5.14 5.14 0 0 0 1 3.38 3.49 3.49 0 0 0 2.83 1.19 4.67 4.67 0 0 0 1.7-.3 5.21 5.21 0 0 0 1.56-1l.48 1a4.43 4.43 0 0 1 -1.66 1.05 6.09 6.09 0 0 1 -2.1.35 5.3 5.3 0 0 1 -2.73-.63z" fill="#fff" transform="translate(-4.65 -12.17)"/><path d="m1026.4 456.29a3.35 3.35 0 0 1 -1.3-1.41 5.34 5.34 0 0 1 0-4.29 3.35 3.35 0 0 1 1.3-1.41 4 4 0 0 1 3.88 0 3.35 3.35 0 0 1 1.3 1.41 5.23 5.23 0 0 1 0 4.29 3.35 3.35 0 0 1 -1.3 1.41 4 4 0 0 1 -3.88 0zm3.73-1.31a3.55 3.55 0 0 0 .62-2.25 3.38 3.38 0 0 0 -.64-2.21 2.41 2.41 0 0 0 -3.55 0 3.38 3.38 0 0 0 -.64 2.21 3.49 3.49 0 0 0 .63 2.25 2.47 2.47 0 0 0 3.58 0z" fill="#fff" transform="translate(-4.65 -12.17)"/><path d="m1038.34 448.77v1.15a2.57 2.57 0 0 0 -.82-.12 2 2 0 0 0 -1.69.7 2.79 2.79 0 0 0 -.55 1.72v4.46h-1.28v-5.62a18.06 18.06 0 0 0 -.12-2.19h1.2l.12 1.44a2.36 2.36 0 0 1 1-1.21 2.85 2.85 0 0 1 2.2-.33z" fill="#fff" transform="translate(-4.65 -12.17)"/><path d="m1046.42 448.87v7.74a3.15 3.15 0 0 1 -3.53 3.53 5.65 5.65 0 0 1 -3.07-.81l.22-1a6.08 6.08 0 0 0 1.4.6 5.09 5.09 0 0 0 1.45.19 2.25 2.25 0 0 0 1.71-.6 2.49 2.49 0 0 0 .57-1.78v-1.84a2.58 2.58 0 0 1 -1 1.15 3.1 3.1 0 0 1 -1.64.41 3.5 3.5 0 0 1 -1.83-.48 3.19 3.19 0 0 1 -1.23-1.36 4.93 4.93 0 0 1 0-4.07 3.21 3.21 0 0 1 1.23-1.37 3.5 3.5 0 0 1 1.83-.48 3.14 3.14 0 0 1 1.62.4 2.63 2.63 0 0 1 1.05 1.14v-1.35zm-1.91 5.76a3.62 3.62 0 0 0 0-4.14 2.21 2.21 0 0 0 -1.77-.75 2.28 2.28 0 0 0 -1.81.75 3.58 3.58 0 0 0 0 4.14 2.26 2.26 0 0 0 1.81.76 2.19 2.19 0 0 0 1.77-.76z" fill="#fff" transform="translate(-4.65 -12.17)"/><path d="m1048.71 445.56h1.54v1.44h-1.54zm.13 11.12v-7.81h1.26v7.81z" fill="#fff" transform="translate(-4.65 -12.17)"/><path d="m1196.8 466.4h-86a12 12 0 0 1 -12-12v-10a12 12 0 0 1 12-12h86a12 12 0 0 1 12 12v10a12 12 0 0 1 -12 12z" fill="#29afcf" transform="translate(-4.65 -12.17)"/><path d="m1151.51 450.63a3.05 3.05 0 0 1 -.44 3.95 4.22 4.22 0 0 1 -2.72.78h-4.59v-11.06h4.44a4 4 0 0 1 2.63.76 2.84 2.84 0 0 1 .48 3.66 2.68 2.68 0 0 1 -1.28 1 2.72 2.72 0 0 1 1.48.91zm-6.49-1.42h3a3 3 0 0 0 1.88-.5 1.74 1.74 0 0 0 .63-1.46c0-1.26-.84-1.89-2.51-1.89h-3zm5.14 4.61a1.81 1.81 0 0 0 .62-1.5c0-1.36-.85-2-2.53-2h-3.25v4h3.23a3.08 3.08 0 0 0 1.93-.5z" fill="#fff" transform="translate(-4.65 -12.17)"/><path d="m1161.06 447.55v7.81h-1.25v-1.36a2.43 2.43 0 0 1 -1 1.12 3.1 3.1 0 0 1 -1.61.4 3.33 3.33 0 0 1 -1.82-.5 3.25 3.25 0 0 1 -1.21-1.4 4.9 4.9 0 0 1 -.43-2.12 5 5 0 0 1 .44-2.14 3.36 3.36 0 0 1 1.22-1.43 3.14 3.14 0 0 1 1.8-.52 3 3 0 0 1 1.6.41 2.53 2.53 0 0 1 1 1.13v-1.35zm-1.87 6.09a3.45 3.45 0 0 0 .62-2.22 3.42 3.42 0 0 0 -.62-2.22 2.12 2.12 0 0 0 -1.77-.78 2.19 2.19 0 0 0 -1.79.8 3.46 3.46 0 0 0 -.65 2.23 3.41 3.41 0 0 0 .64 2.2 2.21 2.21 0 0 0 1.8.78 2.1 2.1 0 0 0 1.77-.79z" fill="#fff" transform="translate(-4.65 -12.17)"/><path d="m1163.49 455.36v-11.43h1.26v11.43z" fill="#fff" transform="translate(-4.65 -12.17)"/><path d="m1167.19 455.36v-11.43h1.26v11.43z" fill="#fff" transform="translate(-4.65 -12.17)"/><path d="m1141.8 424h-86a12 12 0 0 1 -12-12v-10a12 12 0 0 1 12-12h86a12 12 0 0 1 12 12v10a12 12 0 0 1 -12 12z" fill="#29afcf" transform="translate(-4.65 -12.17)"/><path d="m1081.31 413v-11h6.83v1h-5.57v3.84h5.26v1.07h-5.26v5.09z" fill="#fff" transform="translate(-4.65 -12.17)"/><path d="m1096.28 409.07h-5.73a3.37 3.37 0 0 0 .69 2.26 2.52 2.52 0 0 0 2 .76 4 4 0 0 0 2.51-.92l.42.92a3.71 3.71 0 0 1 -1.31.76 5.14 5.14 0 0 1 -1.64.28 3.79 3.79 0 0 1 -2.87-1.08 4.07 4.07 0 0 1 -1-3 4.66 4.66 0 0 1 .46-2.12 3.45 3.45 0 0 1 1.31-1.44 3.59 3.59 0 0 1 1.88-.49 3 3 0 0 1 2.43 1 4.13 4.13 0 0 1 .89 2.8zm-4.9-2.48a2.82 2.82 0 0 0 -.78 1.66h4.55a2.74 2.74 0 0 0 -.65-1.68 2 2 0 0 0 -1.5-.57 2.22 2.22 0 0 0 -1.62.59z" fill="#fff" transform="translate(-4.65 -12.17)"/><path d="m1099.82 406.2v4.27a1.66 1.66 0 0 0 .36 1.22 1.38 1.38 0 0 0 1 .35 2.54 2.54 0 0 0 .83-.14v1.1a3.6 3.6 0 0 1 -1.08.16 2.36 2.36 0 0 1 -1.75-.63 2.52 2.52 0 0 1 -.63-1.86v-4.47h-1.55v-1h1.52v-2l1.26-.45v2.46h2.24v1z" fill="#fff" transform="translate(-4.65 -12.17)"/><path d="m1104.87 412.63a3.35 3.35 0 0 1 -1.3-1.41 4.57 4.57 0 0 1 -.46-2.12 4.7 4.7 0 0 1 .47-2.13 3.37 3.37 0 0 1 1.33-1.44 3.85 3.85 0 0 1 2-.51 4.49 4.49 0 0 1 1.53.27 3.29 3.29 0 0 1 1.21.76l-.41.93a4.93 4.93 0 0 0 -1.15-.69 3.09 3.09 0 0 0 -1.12-.21 2.31 2.31 0 0 0 -1.88.8 4 4 0 0 0 0 4.42 2.37 2.37 0 0 0 1.89.79 3.1 3.1 0 0 0 1.12-.22 4.86 4.86 0 0 0 1.15-.68l.41.93a3.47 3.47 0 0 1 -1.25.73 4.35 4.35 0 0 1 -1.56.28 3.88 3.88 0 0 1 -1.98-.5z" fill="#fff" transform="translate(-4.65 -12.17)"/><path d="m1118 408.11v4.89h-1.26v-4.85a2.42 2.42 0 0 0 -.43-1.59 1.74 1.74 0 0 0 -1.37-.5 2.35 2.35 0 0 0 -1.74.66 2.51 2.51 0 0 0 -.65 1.81v4.47h-1.26v-11.41h1.26v4.89a2.5 2.5 0 0 1 1.07-1.09 3.34 3.34 0 0 1 1.57-.37c1.81-.02 2.81 1.03 2.81 3.09z" fill="#fff" transform="translate(-4.65 -12.17)"/><path d="m1012.8 420.3h-86a12 12 0 0 1 -12-12v-10a12 12 0 0 1 12-12h86a12 12 0 0 1 12 12v10a12 12 0 0 1 -12 12z" fill="#29afcf" transform="translate(-4.65 -12.17)"/><path d="m961.58 403.52v5.12a6.48 6.48 0 0 1 -1.71.55 10.94 10.94 0 0 1 -2.14.21 5.72 5.72 0 0 1 -2.85-.67 4.47 4.47 0 0 1 -1.82-2 6.79 6.79 0 0 1 -.63-3 6.7 6.7 0 0 1 .63-3 4.54 4.54 0 0 1 1.8-2 5.46 5.46 0 0 1 2.77-.67 6.36 6.36 0 0 1 2.14.35 4.39 4.39 0 0 1 1.67 1.05l-.5 1a5.64 5.64 0 0 0 -1.57-1 4.77 4.77 0 0 0 -1.74-.3 3.59 3.59 0 0 0 -2.88 1.17 6.2 6.2 0 0 0 0 6.8 3.74 3.74 0 0 0 3 1.17 8.13 8.13 0 0 0 2.65-.43v-3.37h-2.75v-1z" fill="#fff" transform="translate(-4.65 -12.17)"/><path d="m968.38 401.38v1.14a2.64 2.64 0 0 0 -.83-.12 2 2 0 0 0 -1.68.71 2.68 2.68 0 0 0 -.55 1.71v4.46h-1.32v-5.62a18.06 18.06 0 0 0 -.12-2.19h1.19l.13 1.44a2.39 2.39 0 0 1 .94-1.21 2.72 2.72 0 0 1 1.49-.42 2.37 2.37 0 0 1 .75.1z" fill="#fff" transform="translate(-4.65 -12.17)"/><path d="m976.38 401.47v7.81h-1.25v-1.41a2.43 2.43 0 0 1 -1 1.12 3.13 3.13 0 0 1 -1.61.4 3.33 3.33 0 0 1 -1.82-.5 3.25 3.25 0 0 1 -1.21-1.4 4.9 4.9 0 0 1 -.43-2.12 5 5 0 0 1 .44-2.14 3.36 3.36 0 0 1 1.22-1.43 3.14 3.14 0 0 1 1.8-.52 3.07 3.07 0 0 1 1.6.41 2.53 2.53 0 0 1 1 1.13v-1.35zm-1.87 6.09a4.3 4.3 0 0 0 0-4.45 2.41 2.41 0 0 0 -3.56 0 4.13 4.13 0 0 0 0 4.43 2.21 2.21 0 0 0 1.8.78 2.1 2.1 0 0 0 1.76-.76z" fill="#fff" transform="translate(-4.65 -12.17)"/><path d="m978.33 408.38.42-.93a4.36 4.36 0 0 0 1.29.71 4.48 4.48 0 0 0 1.46.22 2.44 2.44 0 0 0 1.34-.3 1 1 0 0 0 .46-.88 1 1 0 0 0 -.31-.75 2.33 2.33 0 0 0 -1-.43l-1.32-.31a3 3 0 0 1 -1.52-.78 1.88 1.88 0 0 1 -.53-1.33 2 2 0 0 1 .82-1.67 3.42 3.42 0 0 1 2.17-.65 4.49 4.49 0 0 1 1.56.27 3.24 3.24 0 0 1 1.22.76l-.42.91a3.61 3.61 0 0 0 -2.36-.91 2.18 2.18 0 0 0 -1.29.32 1 1 0 0 0 -.46.89 1 1 0 0 0 .29.76 1.93 1.93 0 0 0 .92.43l1.32.33a3.41 3.41 0 0 1 1.62.77 1.83 1.83 0 0 1 .52 1.36 1.89 1.89 0 0 1 -.82 1.61 3.65 3.65 0 0 1 -2.24.61 4.59 4.59 0 0 1 -3.14-1.01z" fill="#fff" transform="translate(-4.65 -12.17)"/><path d="m986 408.38.41-.93a4.36 4.36 0 0 0 1.29.71 4.48 4.48 0 0 0 1.46.22 2.5 2.5 0 0 0 1.35-.3 1 1 0 0 0 .45-.88 1 1 0 0 0 -.31-.75 2.27 2.27 0 0 0 -1-.43l-1.32-.31a3 3 0 0 1 -1.52-.78 1.88 1.88 0 0 1 -.53-1.33 2 2 0 0 1 .82-1.67 3.45 3.45 0 0 1 2.18-.65 4.47 4.47 0 0 1 1.55.27 3.36 3.36 0 0 1 1.23.76l-.42.91a3.65 3.65 0 0 0 -2.36-.91 2.19 2.19 0 0 0 -1.3.32 1 1 0 0 0 -.46.89 1 1 0 0 0 .29.76 1.93 1.93 0 0 0 .92.43l1.32.33a3.36 3.36 0 0 1 1.62.77 1.83 1.83 0 0 1 .52 1.36 1.89 1.89 0 0 1 -.82 1.61 3.64 3.64 0 0 1 -2.23.61 4.56 4.56 0 0 1 -3.14-1.01z" fill="#fff" transform="translate(-4.65 -12.17)"/><path d="m1075.8 377.9h-86a12 12 0 0 1 -12-12v-10a12 12 0 0 1 12-12h86a12 12 0 0 1 12 12v10a12 12 0 0 1 -12 12z" fill="#29afcf" transform="translate(-4.65 -12.17)"/><path d="m1021.26 366.89v-11.12h4.19a10.1 10.1 0 0 1 1.69.11 3.24 3.24 0 0 1 1.37.52 2.63 2.63 0 0 1 .89 1.07 3.36 3.36 0 0 1 .34 1.52 3.44 3.44 0 0 1 -.9 2.4 4.35 4.35 0 0 1 -3.26 1h-2.85v4.52zm1.47-5.83h2.87a3.06 3.06 0 0 0 2-.53 1.9 1.9 0 0 0 .6-1.5 2 2 0 0 0 -.35-1.19 1.64 1.64 0 0 0 -.93-.66 6.62 6.62 0 0 0 -1.37-.1h-2.84z" fill="#fff" transform="translate(-4.65 -12.17)"/><path d="m1031.41 366.89v-11.12h1.36v11.12z" fill="#fff" transform="translate(-4.65 -12.17)"/><path d="m1040.14 365.9a5 5 0 0 1 -1.46.91 4.34 4.34 0 0 1 -1.5.26 2.92 2.92 0 0 1 -2-.65 2.11 2.11 0 0 1 -.71-1.65 2.16 2.16 0 0 1 .27-1.08 2.23 2.23 0 0 1 .7-.79 3.25 3.25 0 0 1 1-.45 9 9 0 0 1 1.22-.2 12.49 12.49 0 0 0 2.43-.47c0-.19 0-.31 0-.36a1.48 1.48 0 0 0 -.39-1.17 2.28 2.28 0 0 0 -1.55-.47 2.47 2.47 0 0 0 -1.43.34 2.06 2.06 0 0 0 -.67 1.2l-1.34-.19a3.25 3.25 0 0 1 .6-1.38 2.66 2.66 0 0 1 1.2-.81 5.41 5.41 0 0 1 1.83-.29 4.88 4.88 0 0 1 1.68.25 2.2 2.2 0 0 1 1 .61 2.1 2.1 0 0 1 .42.93 7.06 7.06 0 0 1 .07 1.25v1.82a18.69 18.69 0 0 0 .09 2.41 2.88 2.88 0 0 0 .34 1h-1.42a2.73 2.73 0 0 1 -.38-1.02zm-.11-3a10.19 10.19 0 0 1 -2.23.51 5.06 5.06 0 0 0 -1.19.28 1.18 1.18 0 0 0 -.54.44 1.21 1.21 0 0 0 -.19.65 1.19 1.19 0 0 0 .41.91 1.8 1.8 0 0 0 1.21.36 2.83 2.83 0 0 0 1.41-.34 2.11 2.11 0 0 0 .9-1 3.23 3.23 0 0 0 .22-1.36z" fill="#fff" transform="translate(-4.65 -12.17)"/><path d="m1043.46 370-.15-1.28a3.09 3.09 0 0 0 .78.12 1.5 1.5 0 0 0 .73-.15 1.23 1.23 0 0 0 .45-.43 7.84 7.84 0 0 0 .42-1 2.93 2.93 0 0 1 .12-.34l-3.06-8.06h1.47l1.68 4.66a19.3 19.3 0 0 1 .58 1.86c.16-.62.35-1.23.56-1.83l1.72-4.69h1.37l-3.06 8.19a16.32 16.32 0 0 1 -.77 1.82 2.7 2.7 0 0 1 -.83 1 2 2 0 0 1 -1.13.32 2.83 2.83 0 0 1 -.88-.19z" fill="#fff" transform="translate(-4.65 -12.17)"/><path d="m954.75 476.13a5 5 0 0 1 5-5h142.7a5 5 0 0 1 5 5 5 5 0 0 1 -5 5h-142.7a5 5 0 0 1 -5-5z" fill="#91c4c6" transform="translate(-4.65 -12.17)"/><rect fill="#a6b5bc" height="26.3" rx="4.83" width="1402.8" x="108.15" y="529.13"/><path d="m148.11 654.46c0-3.52 4.5-6.41 10-6.41h1323.29c5.5 0 10 2.89 10 6.41s-4.5 6.41-10 6.41h-1323.29c-5.5 0-10-2.87-10-6.41z" fill="#b2b2b2" transform="translate(-4.65 -12.17)"/><circle cx="627.25" cy="499.63" fill="none" r="18.2" stroke="#a8afba" stroke-miterlimit="10" stroke-width="18"/><circle cx="541.55" cy="499.63" fill="none" r="18.2" stroke="#a8afba" stroke-miterlimit="10" stroke-width="18"/><circle cx="455.95" cy="499.63" fill="none" r="18.2" stroke="#a8afba" stroke-miterlimit="10" stroke-width="18"/><circle cx="370.25" cy="499.63" fill="none" r="18.2" stroke="#a8afba" stroke-miterlimit="10" stroke-width="18"/><circle cx="284.55" cy="499.63" fill="none" r="18.2" stroke="#a8afba" stroke-miterlimit="10" stroke-width="18"/><circle cx="198.95" cy="499.63" fill="none" r="18.2" stroke="#a8afba" stroke-miterlimit="10" stroke-width="18"/><circle cx="113.25" cy="499.63" fill="none" r="18.2" stroke="#a8afba" stroke-miterlimit="10" stroke-width="18"/><circle cx="1504.95" cy="499.33" fill="none" r="18.2" stroke="#a8afba" stroke-miterlimit="10" stroke-width="18"/><circle cx="1419.35" cy="499.33" fill="none" r="18.2" stroke="#a8afba" stroke-miterlimit="10" stroke-width="18"/><circle cx="1333.65" cy="499.33" fill="none" r="18.2" stroke="#a8afba" stroke-miterlimit="10" stroke-width="18"/><circle cx="1247.95" cy="499.33" fill="none" r="18.2" stroke="#a8afba" stroke-miterlimit="10" stroke-width="18"/><circle cx="1162.35" cy="499.33" fill="none" r="18.2" stroke="#a8afba" stroke-miterlimit="10" stroke-width="18"/><circle cx="1076.65" cy="499.33" fill="none" r="18.2" stroke="#a8afba" stroke-miterlimit="10" stroke-width="18"/><circle cx="990.95" cy="499.33" fill="none" r="18.2" stroke="#a8afba" stroke-miterlimit="10" stroke-width="18"/><path d="m1512.8 541.3h-1393.8c-6.6 0-27.3-2.3-27.3-26.9s18.4-26.8 25-26.8l1394.8-.1c9.2.9 25.8 7 25.8 24.3 0 19.2-11.8 29.5-24.5 29.5z" fill="none" stroke="#4b8e99" stroke-miterlimit="10" stroke-width="7" transform="translate(-4.65 -12.17)"/><path d="m793.8 158.2h26.7c-5.9 27.5-6.7 90.3-5.9 111 .9 22 0 93 5.9 138.5h-26.7c5.7-34 5-107.5 5.7-138.5s.8-88.5-5.7-111z" fill="#c1c5ca" transform="translate(-4.65 -12.17)"/><path d="m793.8 35.8s6.3-7.8 11.9-10a102.86 102.86 0 0 1 26-6.7l.5-.1s-18.6 5.5-26.5 9.4c-3.1 1.6-11.9 7.4-11.9 7.4z" fill="#4b4650" transform="translate(-4.65 -12.17)"/><path d="m797.5 135.7c3.4 12-11.9 26.9-34.3 33.4s-37.5 9.6-40.9-2.4c-1.9-6.6-3.5-20.5 1.9-30.4 3.9-7.1 15.2-11.3 25.2-14.2 22.5-6.4 44.7 1.6 48.1 13.6z" fill="#57798f" transform="translate(-4.65 -12.17)"/><path d="m724 143.5a14.78 14.78 0 0 1 7.5-12.9c8-4.8 21.6-7.9 21.6-7.9-7.4 3.2-10.4 3.9-19.3 11-7.8 6.1-9.8 9.8-9.8 9.8z" fill="#bfc8ce" transform="translate(-4.65 -12.17)"/><circle cx="800.65" cy="92.83" fill="#c1c5ca" r="63.7"/><path d="m783.5 105.7c0 22.5 15.6 43.7-6.9 43.7-14.8 0-30.2-21.2-30.2-43.7s7.4-37.3 31-36.6c24.6.8 6.1 14 6.1 36.6z" fill="#111119" transform="translate(-4.65 -12.17)"/><path d="m822.4 115.6c-14.4 18.3-13.6 38.1-5 45.5s25.5-1.9 36-14.2 20.8-38.2 12.2-45.6-29.9-2.6-43.2 14.3z" fill="#b1bac6" transform="translate(-4.65 -12.17)"/><path d="m825.4 44.5s-11.2 1.4-15.5 3.7c-5.3 2.8-9.9 7.6-15.8 8.6-10.7 1.9-19.9.5-20.6-3.2s8.8-8.8 19.6-11.1c16.7-3.7 32.3 2 32.3 2z" fill="#4b4650" transform="translate(-4.65 -12.17)"/><path d="m828.5 119.6c-12.3 15.5-10.5 29.8-3.2 36s19.4.8 28.2-9.6 16.4-28.5 9.1-34.7-24.5-3.8-34.1 8.3z" fill="#4e6576" transform="translate(-4.65 -12.17)"/><path d="m877.2 161.1c-4.4 17.4-19.1 27.6-37.6 19.4-13.1-5.8-9.2-22 .3-37.3s24-28.5 33.8-18.1c7.8 8.3 6.6 23.7 3.5 36z" fill="#99a3af" transform="translate(-4.65 -12.17)"/><ellipse cx="865.8" cy="149.06" fill="#7b828e" rx="19.2" ry="12.9" transform="matrix(.12394786 -.99228873 .99228873 .12394786 605.88 977.52)"/><path d="m877.7 150.7c-.9 7.5-5.8 13.1-10.8 12.5s-8.4-7.2-7.4-14.8 5.8-13.1 10.8-12.5 8.3 7.3 7.4 14.8z" fill="url(#a)" transform="translate(-4.65 -12.17)"/><path d="m776.5 112.2c3.3 6.2 1.3 13.7-4.3 16.6s-12.9.3-16.1-5.9-1.3-13.7 4.3-16.6 12.8-.4 16.1 5.9z" fill="url(#b)" transform="translate(-4.65 -12.17)"/><path d="m827 17.5c.9 2.7-9.5 4.5-18.2 7.2-9.9 3.1-13 11.8-20.8 14.5-14.9 5.2-20.9 2-22.9-3.7s8.5-14.5 23.4-19.6 36.6-4.1 38.5 1.6z" fill="#c1c5ca" transform="translate(-4.65 -12.17)"/><path d="m806.3 12.7c1.4-.3 32.3-2.4 30.2 4.6-.6 2.1-8.5 1.5-15.4 3.9a26.58 26.58 0 0 0 -5.6-3.9 64.5 64.5 0 0 0 -6.6-2.9s-3.2 2.4-8.2 6.8-10.9 9.7-10.9 9.7a42.7 42.7 0 0 1 8.8-11.3 49.23 49.23 0 0 1 9.3-5.9z" fill="#1ca0aa" transform="translate(-4.65 -12.17)"/><path d="m818.5 70.3 17.8-6.7c.7.9 9.4 3.3 12.2 18.2-11.7-2.9-19.6-1.8-19.6-1.8a13.22 13.22 0 0 0 -2.8-4.7 36.39 36.39 0 0 0 -7.6-5z" fill="#f1f2f2" transform="translate(-4.65 -12.17)"/><path d="m955.4 622.2h-284.4a12 12 0 0 1 -12-12v-381.8a12 12 0 0 1 12-12h284.4a12 12 0 0 1 12 12v381.8a12 12 0 0 1 -12 12z" fill="#c1c5ca" transform="translate(-4.65 -12.17)"/><circle cx="710.05" cy="274.13" fill="#7b828e" r="23.5"/><circle cx="801.45" cy="274.13" fill="#7b828e" r="23.5"/><circle cx="891.35" cy="274.13" fill="#7b828e" r="23.5"/><circle cx="710.05" cy="274.13" fill="url(#c)" r="18.7"/><circle cx="694.65" cy="521.53" fill="url(#d)" r="5.7"/><circle cx="726.95" cy="521.53" fill="url(#e)" r="5.7"/><circle cx="759.35" cy="521.53" fill="url(#f)" r="5.7"/><circle cx="791.75" cy="521.53" fill="url(#g)" r="5.7"/><circle cx="824.15" cy="521.53" fill="url(#h)" r="5.7"/><circle cx="801.65" cy="274.13" fill="url(#i)" r="18.7"/><circle cx="891.35" cy="274.13" fill="url(#j)" r="18.7"/><path d="m822.5 417.6h-117.7a12 12 0 0 1 -12-12v-54.6a12 12 0 0 1 12-12h117.7a12 12 0 0 1 12 12v54.6a12 12 0 0 1 -12 12z" fill="#7b828e" transform="translate(-4.65 -12.17)"/><path d="m815 411.6h-103.1a12 12 0 0 1 -12-12v-42.2a12 12 0 0 1 12-12h103.1a12 12 0 0 1 12 12v42.2a12 12 0 0 1 -12 12z" fill="#0d2f3a" transform="translate(-4.65 -12.17)"/><path d="m695.25 353.03h28.6l5.9-7.7 5.3 16.8 9-19.2 7.4 9.6h20.2l7.3-7.9 5.2 17.3 6.5-22.1 4.5 9 5.5 10.9 7.4-7.4h14.3" fill="none" stroke="#29afcf" stroke-miterlimit="10" stroke-width="2"/><path d="m822.35 379.63h-28.6l-5.7 15.7-7.4-23.6-6 18.5-8.5-11.1h-20.2l-3-7.6-8.6 20-7.4-25.1-4.5 9-5.5 10.9-7.3-7.4h-14.4" fill="none" stroke="#e81b2f" stroke-miterlimit="10" stroke-width="2"/><path d="m822.3 520.2h-117.7a12 12 0 0 1 -12-12v-54.6a12 12 0 0 1 12-12h117.7a12 12 0 0 1 12 12v54.6a12 12 0 0 1 -12 12z" fill="#7b828e" transform="translate(-4.65 -12.17)"/><path d="m814.8 514.2h-103.1a12 12 0 0 1 -12-12v-42.2a12 12 0 0 1 12-12h103.1a12 12 0 0 1 12 12v42.2a12 12 0 0 1 -12 12z" fill="#f1f2f2" transform="translate(-4.65 -12.17)"/><path d="m701.25 450.13h115.6" fill="none" stroke="#29afcf" stroke-miterlimit="10" stroke-width="2"/><path d="m700.75 468.73h115.6" fill="none" stroke="#e81b2f" stroke-miterlimit="10" stroke-width="2"/><path d="m700.25 487.23h115.7" fill="none" stroke="#178da0" stroke-miterlimit="10" stroke-width="2"/><path d="m718.55 442.13v14.7" fill="none" stroke="#29afcf" stroke-miterlimit="10" stroke-width="2"/><path d="m792.45 461.63v14.6" fill="none" stroke="#e81b2f" stroke-miterlimit="10" stroke-width="2"/><path d="m741.15 479.93v14.7" fill="none" stroke="#178da0" stroke-miterlimit="10" stroke-width="2"/><circle cx="758.55" cy="417.43" fill="#29afcf" r="4.6"/><circle cx="736.15" cy="417.43" fill="#178da0" r="4.6"/><circle cx="780.05" cy="417.43" fill="#e81b2f" r="4.6"/><path d="m857 417.6h-4a4.48 4.48 0 0 1 -4.5-4.5v-69.6a4.48 4.48 0 0 1 4.5-4.5h4a4.48 4.48 0 0 1 4.5 4.5v69.6a4.48 4.48 0 0 1 -4.5 4.5z" fill="#4e6576" transform="translate(-4.65 -12.17)"/><path d="m697 580.8a2.33 2.33 0 0 1 -2.3-2.3v-30.3a2.33 2.33 0 0 1 2.3-2.3 2.33 2.33 0 0 1 2.3 2.3v30.3a2.33 2.33 0 0 1 -2.3 2.3z" fill="#0d2f3a" transform="translate(-4.65 -12.17)"/><path d="m713 580.8a2.33 2.33 0 0 1 -2.3-2.3v-30.3a2.33 2.33 0 0 1 2.3-2.3 2.33 2.33 0 0 1 2.3 2.3v30.3a2.47 2.47 0 0 1 -2.3 2.3z" fill="#0d2f3a" transform="translate(-4.65 -12.17)"/><path d="m721 580.8a2.33 2.33 0 0 1 -2.3-2.3v-30.3a2.33 2.33 0 0 1 2.3-2.3 2.33 2.33 0 0 1 2.3 2.3v30.3a2.47 2.47 0 0 1 -2.3 2.3z" fill="#0d2f3a" transform="translate(-4.65 -12.17)"/><path d="m705 580.8a2.33 2.33 0 0 1 -2.3-2.3v-30.3a2.33 2.33 0 0 1 2.3-2.3 2.33 2.33 0 0 1 2.3 2.3v30.3a2.4 2.4 0 0 1 -2.3 2.3z" fill="#0d2f3a" transform="translate(-4.65 -12.17)"/><path d="m736.5 580.8a2.33 2.33 0 0 1 -2.3-2.3v-30.3a2.33 2.33 0 0 1 2.3-2.3 2.33 2.33 0 0 1 2.3 2.3v30.3a2.33 2.33 0 0 1 -2.3 2.3z" fill="#0d2f3a" transform="translate(-4.65 -12.17)"/><path d="m752.5 580.8a2.33 2.33 0 0 1 -2.3-2.3v-30.3a2.33 2.33 0 0 1 2.3-2.3 2.33 2.33 0 0 1 2.3 2.3v30.3a2.4 2.4 0 0 1 -2.3 2.3z" fill="#0d2f3a" transform="translate(-4.65 -12.17)"/><path d="m760.5 580.8a2.33 2.33 0 0 1 -2.3-2.3v-30.3a2.33 2.33 0 0 1 2.3-2.3 2.33 2.33 0 0 1 2.3 2.3v30.3a2.47 2.47 0 0 1 -2.3 2.3z" fill="#0d2f3a" transform="translate(-4.65 -12.17)"/><path d="m744.5 580.8a2.33 2.33 0 0 1 -2.3-2.3v-30.3a2.33 2.33 0 0 1 2.3-2.3 2.33 2.33 0 0 1 2.3 2.3v30.3a2.33 2.33 0 0 1 -2.3 2.3z" fill="#0d2f3a" transform="translate(-4.65 -12.17)"/><path d="m776 580.8a2.33 2.33 0 0 1 -2.3-2.3v-30.3a2.33 2.33 0 0 1 2.3-2.3 2.33 2.33 0 0 1 2.3 2.3v30.3a2.33 2.33 0 0 1 -2.3 2.3z" fill="#0d2f3a" transform="translate(-4.65 -12.17)"/><path d="m792 580.8a2.33 2.33 0 0 1 -2.3-2.3v-30.3a2.31 2.31 0 0 1 2.2-2.3 2.33 2.33 0 0 1 2.3 2.3v30.3a2.18 2.18 0 0 1 -2.2 2.3z" fill="#0d2f3a" transform="translate(-4.65 -12.17)"/><path d="m800 580.8a2.33 2.33 0 0 1 -2.3-2.3v-30.3a2.33 2.33 0 0 1 2.3-2.3 2.33 2.33 0 0 1 2.3 2.3v30.3a2.4 2.4 0 0 1 -2.3 2.3z" fill="#0d2f3a" transform="translate(-4.65 -12.17)"/><path d="m784 580.8a2.33 2.33 0 0 1 -2.3-2.3v-30.3a2.33 2.33 0 0 1 2.3-2.3 2.33 2.33 0 0 1 2.3 2.3v30.3a2.33 2.33 0 0 1 -2.3 2.3z" fill="#0d2f3a" transform="translate(-4.65 -12.17)"/><path d="m883.3 417.9h-4a4.48 4.48 0 0 1 -4.5-4.5v-69.6a4.48 4.48 0 0 1 4.5-4.5h4a4.48 4.48 0 0 1 4.5 4.5v69.6a4.61 4.61 0 0 1 -4.5 4.5z" fill="#4e6576" transform="translate(-4.65 -12.17)"/><path d="m909.5 418.1h-4a4.48 4.48 0 0 1 -4.5-4.5v-69.6a4.48 4.48 0 0 1 4.5-4.5h4a4.48 4.48 0 0 1 4.5 4.5v69.6a4.48 4.48 0 0 1 -4.5 4.5z" fill="#4e6576" transform="translate(-4.65 -12.17)"/><path d="m935.8 418.3h-4a4.48 4.48 0 0 1 -4.5-4.5v-69.6a4.48 4.48 0 0 1 4.5-4.5h4a4.48 4.48 0 0 1 4.5 4.5v69.6a4.55 4.55 0 0 1 -4.5 4.5z" fill="#4e6576" transform="translate(-4.65 -12.17)"/><path d="m854.7 379a4.27 4.27 0 0 1 -4.3-4.3v-44.7a4.33 4.33 0 0 1 4.3-4.3 4.33 4.33 0 0 1 4.3 4.3v44.7a4.33 4.33 0 0 1 -4.3 4.3z" fill="#f1f2f2" transform="translate(-4.65 -12.17)"/><path d="m907.5 379a4.27 4.27 0 0 1 -4.3-4.3v-44.7a4.27 4.27 0 0 1 4.3-4.3 4.33 4.33 0 0 1 4.3 4.3v44.7a4.27 4.27 0 0 1 -4.3 4.3z" fill="#f1f2f2" transform="translate(-4.65 -12.17)"/><path d="m933.8 379a4.27 4.27 0 0 1 -4.3-4.3v-44.7a4.27 4.27 0 0 1 4.3-4.3 4.33 4.33 0 0 1 4.3 4.3v44.7a4.33 4.33 0 0 1 -4.3 4.3z" fill="#f1f2f2" transform="translate(-4.65 -12.17)"/><path d="m881.3 432.4a4.33 4.33 0 0 1 -4.3-4.3v-44.7a4.27 4.27 0 0 1 4.3-4.3 4.33 4.33 0 0 1 4.3 4.3v44.7a4.33 4.33 0 0 1 -4.3 4.3z" fill="#f1f2f2" transform="translate(-4.65 -12.17)"/><circle cx="876.65" cy="420.23" fill="#e81b2f" r="8.6"/><circle cx="929.15" cy="313.43" fill="#e81b2f" r="8.6"/><circle cx="902.95" cy="313.43" fill="#29afcf" r="8.6"/><circle cx="850.35" cy="313.43" fill="#29afcf" r="8.6"/><path d="m990.2 661.1h-354v-57.5a12 12 0 0 1 12-12h330a12 12 0 0 1 12 12z" fill="#17656d" transform="translate(-4.65 -12.17)"/><path d="m252.35 555.43v89.5" fill="none" stroke="#b2b2b2" stroke-miterlimit="10" stroke-width="8"/><path d="m321.25 555.43v87.08" fill="none" stroke="#b2b2b2" stroke-miterlimit="10" stroke-width="8"/><path d="m1299.15 555.43v88.2" fill="none" stroke="#b2b2b2" stroke-miterlimit="10" stroke-width="8"/><path d="m1368.05 555.43v85.6" fill="none" stroke="#b2b2b2" stroke-miterlimit="10" stroke-width="8"/><g transform="translate(-4.65 -12.17)"><path d="m1345.2 468.1h-86a12 12 0 0 1 -12-12v-10a12 12 0 0 1 12-12h86a12 12 0 0 1 12 12v10a12 12 0 0 1 -12 12z" fill="#29afcf"/><path d="m1283.16 445h4.41a4 4 0 0 1 2.67.83 2.83 2.83 0 0 1 1 2.26 2.86 2.86 0 0 1 -1 2.28 4 4 0 0 1 -2.66.83h-3.13v4.86h-1.28zm4.3 5.14a2.8 2.8 0 0 0 1.85-.52 1.92 1.92 0 0 0 .62-1.53 1.87 1.87 0 0 0 -.62-1.51 2.8 2.8 0 0 0 -1.85-.52h-3v4.08z" fill="#fff"/><path d="m1299.56 448.26v7.81h-1.23v-1.35a2.61 2.61 0 0 1 -1 1.09 3.09 3.09 0 0 1 -1.5.37 2.72 2.72 0 0 1 -2.1-.78 3.27 3.27 0 0 1 -.71-2.3v-4.84h1.25v4.81a2.34 2.34 0 0 0 .44 1.56 1.66 1.66 0 0 0 1.32.49 2.21 2.21 0 0 0 1.68-.67 2.51 2.51 0 0 0 .63-1.78v-4.41z" fill="#fff"/><path d="m1307.7 448.58a3.52 3.52 0 0 1 1.22 1.44 5 5 0 0 1 .44 2.14 4.9 4.9 0 0 1 -.44 2.12 3.32 3.32 0 0 1 -1.21 1.4 3.39 3.39 0 0 1 -1.83.5 3.1 3.1 0 0 1 -1.6-.41 2.67 2.67 0 0 1 -1-1.14v4.79h-1.28v-9a18.06 18.06 0 0 0 -.12-2.19h1.19l.13 1.5a2.64 2.64 0 0 1 1-1.25 3.13 3.13 0 0 1 1.67-.44 3.3 3.3 0 0 1 1.83.54zm-.27 5.78a4.24 4.24 0 0 0 0-4.43 2.13 2.13 0 0 0 -1.77-.8 2.18 2.18 0 0 0 -1.79.77 4.3 4.3 0 0 0 0 4.45 2.14 2.14 0 0 0 1.79.79 2.17 2.17 0 0 0 1.77-.78z" fill="#fff"/><path d="m1317 448.58a3.47 3.47 0 0 1 1.23 1.44 5 5 0 0 1 .44 2.14 4.9 4.9 0 0 1 -.44 2.12 3.24 3.24 0 0 1 -3 1.9 3.07 3.07 0 0 1 -1.6-.41 2.55 2.55 0 0 1 -1-1.14v4.79h-1.26v-9a18.06 18.06 0 0 0 -.12-2.19h1.19l.13 1.5a2.59 2.59 0 0 1 1-1.25 3.1 3.1 0 0 1 1.67-.44 3.25 3.25 0 0 1 1.76.54zm-.27 5.78a4.18 4.18 0 0 0 0-4.43 2.11 2.11 0 0 0 -1.77-.8 2.16 2.16 0 0 0 -1.78.77 4.3 4.3 0 0 0 0 4.45 2.12 2.12 0 0 0 1.78.79 2.15 2.15 0 0 0 1.78-.78z" fill="#fff"/><path d="m1327.39 448.26-3.65 8.52a4.49 4.49 0 0 1 -1.45 2 5.23 5.23 0 0 1 -2.14.85l-.26-1a4.82 4.82 0 0 0 1.67-.66 3.13 3.13 0 0 0 .94-1.27l.31-.7-3.31-7.73h1.32l2.64 6.44 2.67-6.44z" fill="#fff"/><path d="m1465.9 468.1h-86a12 12 0 0 1 -12-12v-10a12 12 0 0 1 12-12h86a12 12 0 0 1 12 12v10a12 12 0 0 1 -12 12z" fill="#29afcf"/><path d="m1412.86 445h4.41a3.94 3.94 0 0 1 2.66.83 2.8 2.8 0 0 1 1 2.26 2.86 2.86 0 0 1 -1 2.28 4 4 0 0 1 -2.65.83h-3.14v4.86h-1.27zm4.3 5.14a2.82 2.82 0 0 0 1.85-.52 1.92 1.92 0 0 0 .62-1.53 1.87 1.87 0 0 0 -.62-1.51 2.82 2.82 0 0 0 -1.85-.52h-3v4.08z" fill="#fff"/><path d="m1429.25 448.26v7.81h-1.25v-1.35a2.67 2.67 0 0 1 -1 1.09 3.15 3.15 0 0 1 -1.51.37 2.72 2.72 0 0 1 -2.1-.78 3.32 3.32 0 0 1 -.71-2.3v-4.84h1.26v4.81a2.34 2.34 0 0 0 .43 1.56 1.66 1.66 0 0 0 1.32.49 2.19 2.19 0 0 0 1.68-.67 2.52 2.52 0 0 0 .64-1.78v-4.41z" fill="#fff"/><path d="m1438.63 448.26v7.74a3.13 3.13 0 0 1 -3.52 3.52 5.68 5.68 0 0 1 -3.08-.81l.22-1a6.91 6.91 0 0 0 1.41.61 5.48 5.48 0 0 0 1.45.18 2.28 2.28 0 0 0 1.71-.6 2.46 2.46 0 0 0 .57-1.77v-1.85a2.66 2.66 0 0 1 -1.05 1.15 3.07 3.07 0 0 1 -1.63.42 3.47 3.47 0 0 1 -1.83-.48 3.27 3.27 0 0 1 -1.23-1.37 4.93 4.93 0 0 1 0-4.07 3.21 3.21 0 0 1 1.23-1.37 3.47 3.47 0 0 1 1.83-.48 3.14 3.14 0 0 1 1.62.41 2.61 2.61 0 0 1 1.05 1.13v-1.35zm-1.9 5.77a3.64 3.64 0 0 0 0-4.15 2.22 2.22 0 0 0 -1.78-.75 2.3 2.3 0 0 0 -1.81.75 3.59 3.59 0 0 0 0 4.15 2.3 2.3 0 0 0 1.81.75 2.22 2.22 0 0 0 1.78-.78z" fill="#fff"/><path d="m1588.6 466.8h-86a12 12 0 0 1 -12-12v-10a12 12 0 0 1 12-12h86a12 12 0 0 1 12 12v10a12 12 0 0 1 -12 12z" fill="#29afcf"/><path d="m1534 443.7h1.27v11.05h-1.27v-5.08h-6.63v5.08h-1.26v-11.05h1.26v4.9h6.63z" fill="#fff"/><path d="m1544.75 446.94v7.81h-1.24v-1.41a2.53 2.53 0 0 1 -1 1.13 3.19 3.19 0 0 1 -1.6.39 3.26 3.26 0 0 1 -1.83-.5 3.2 3.2 0 0 1 -1.21-1.4 4.86 4.86 0 0 1 -.43-2.12 5 5 0 0 1 .44-2.14 3.36 3.36 0 0 1 1.22-1.43 3.22 3.22 0 0 1 1.81-.51 3 3 0 0 1 1.59.4 2.67 2.67 0 0 1 1 1.13v-1.35zm-1.87 6.1a3.5 3.5 0 0 0 .63-2.23 3.45 3.45 0 0 0 -.63-2.22 2.12 2.12 0 0 0 -1.77-.78 2.19 2.19 0 0 0 -1.79.8 3.46 3.46 0 0 0 -.64 2.23 3.39 3.39 0 0 0 .63 2.2 2.21 2.21 0 0 0 1.8.78 2.12 2.12 0 0 0 1.77-.82z" fill="#fff"/><path d="m1552.9 447.27a3.38 3.38 0 0 1 1.23 1.43 5 5 0 0 1 .43 2.14 4.86 4.86 0 0 1 -.43 2.12 3.24 3.24 0 0 1 -3.05 1.9 3.09 3.09 0 0 1 -1.6-.4 2.64 2.64 0 0 1 -1-1.15v4.8h-1.25v-9a17.92 17.92 0 0 0 -.13-2.19h1.2l.12 1.51a2.55 2.55 0 0 1 1-1.25 3 3 0 0 1 1.67-.44 3.28 3.28 0 0 1 1.81.53zm-.27 5.77a3.39 3.39 0 0 0 .63-2.2 3.52 3.52 0 0 0 -.64-2.23 2.13 2.13 0 0 0 -1.77-.8 2.16 2.16 0 0 0 -1.79.78 3.51 3.51 0 0 0 -.62 2.22 3.56 3.56 0 0 0 .62 2.23 2.43 2.43 0 0 0 3.57 0z" fill="#fff"/><path d="m1562.22 447.27a3.43 3.43 0 0 1 1.22 1.43 5 5 0 0 1 .44 2.14 4.86 4.86 0 0 1 -.44 2.12 3.22 3.22 0 0 1 -1.22 1.4 3.25 3.25 0 0 1 -1.82.5 3.09 3.09 0 0 1 -1.6-.4 2.58 2.58 0 0 1 -1-1.15v4.8h-1.26v-9a18.06 18.06 0 0 0 -.12-2.19h1.19l.13 1.51a2.55 2.55 0 0 1 1-1.25 3 3 0 0 1 1.67-.44 3.3 3.3 0 0 1 1.81.53zm-.22 5.73a3.45 3.45 0 0 0 .62-2.2 3.52 3.52 0 0 0 -.63-2.23 2.4 2.4 0 0 0 -3.56 0 3.51 3.51 0 0 0 -.62 2.22 3.56 3.56 0 0 0 .62 2.23 2.43 2.43 0 0 0 3.57 0z" fill="#fff"/><path d="m1572.59 446.94-3.65 8.53a4.45 4.45 0 0 1 -1.44 1.95 5.28 5.28 0 0 1 -2.15.86l-.26-1a4.82 4.82 0 0 0 1.67-.66 3 3 0 0 0 .94-1.27l.31-.7-3.31-7.73h1.3l2.64 6.45 2.67-6.45z" fill="#fff"/><path d="m1533.6 424.4h-86a12 12 0 0 1 -12-12v-10a12 12 0 0 1 12-12h86a12 12 0 0 1 12 12v10a12 12 0 0 1 -12 12z" fill="#29afcf"/><path d="m1473.12 412.41h-1.36l-1.36-3.68a1.63 1.63 0 0 0 -.69-.92 2.84 2.84 0 0 0 -1.25-.23h-2.77v4.83h-1.26v-11.06h4.4a4.18 4.18 0 0 1 2.74.8 2.78 2.78 0 0 1 1 2.28 2.89 2.89 0 0 1 -.57 1.82 3 3 0 0 1 -1.64 1.05 1.46 1.46 0 0 1 .82.41 2.66 2.66 0 0 1 .58 1zm-4.4-5.89c1.7 0 2.55-.69 2.55-2.08a1.88 1.88 0 0 0 -.62-1.53 3.09 3.09 0 0 0 -1.93-.5h-3v4.11z" fill="#fff"/><path d="m1481.58 404.6v7.81h-1.23v-1.35a2.55 2.55 0 0 1 -1 1.09 3 3 0 0 1 -1.51.37 2.68 2.68 0 0 1 -2.09-.78 3.25 3.25 0 0 1 -.72-2.3v-4.84h1.26v4.81a2.32 2.32 0 0 0 .44 1.56 1.66 1.66 0 0 0 1.32.49 2.18 2.18 0 0 0 1.67-.67 2.48 2.48 0 0 0 .64-1.78v-4.41z" fill="#fff"/><path d="m1490.71 407.5v4.91h-1.26v-4.84a2.43 2.43 0 0 0 -.43-1.6 1.74 1.74 0 0 0 -1.37-.5 2.31 2.31 0 0 0 -1.74.67 2.47 2.47 0 0 0 -.65 1.8v4.47h-1.26v-5.62a18.06 18.06 0 0 0 -.12-2.19h1.19l.13 1.4a2.55 2.55 0 0 1 1.07-1.18 3.23 3.23 0 0 1 1.63-.41c1.87 0 2.81 1.03 2.81 3.09z" fill="#fff"/><path d="m1499.79 407.5v4.91h-1.25v-4.84a2.43 2.43 0 0 0 -.44-1.6 1.73 1.73 0 0 0 -1.37-.5 2.32 2.32 0 0 0 -1.74.67 2.47 2.47 0 0 0 -.65 1.8v4.47h-1.26v-5.62a18.06 18.06 0 0 0 -.12-2.19h1.2l.12 1.4a2.66 2.66 0 0 1 1.07-1.18 3.26 3.26 0 0 1 1.63-.41c1.88 0 2.81 1.03 2.81 3.09z" fill="#fff"/><path d="m1502 401.29h1.54v1.43h-1.54zm.13 11.12v-7.81h1.26v7.81z" fill="#fff"/><path d="m1512.57 407.5v4.91h-1.26v-4.84a2.43 2.43 0 0 0 -.43-1.6 1.74 1.74 0 0 0 -1.37-.5 2.32 2.32 0 0 0 -1.74.67 2.47 2.47 0 0 0 -.65 1.8v4.47h-1.25v-5.62a17.92 17.92 0 0 0 -.13-2.19h1.2l.12 1.4a2.66 2.66 0 0 1 1.07-1.18 3.26 3.26 0 0 1 1.63-.41c1.88 0 2.81 1.03 2.81 3.09z" fill="#fff"/><path d="m1521.91 404.6v7.75a3.15 3.15 0 0 1 -3.53 3.52 5.73 5.73 0 0 1 -3.07-.8l.21-1a6.91 6.91 0 0 0 1.41.61 5.48 5.48 0 0 0 1.45.18 2.25 2.25 0 0 0 1.71-.6 2.46 2.46 0 0 0 .57-1.77v-1.85a2.66 2.66 0 0 1 -1 1.16 3.22 3.22 0 0 1 -1.64.41 3.5 3.5 0 0 1 -1.83-.48 3.21 3.21 0 0 1 -1.23-1.37 4.93 4.93 0 0 1 0-4.07 3.19 3.19 0 0 1 1.23-1.36 3.41 3.41 0 0 1 1.83-.49 3.14 3.14 0 0 1 1.62.41 2.61 2.61 0 0 1 1.05 1.13v-1.38zm-1.91 5.77a3.07 3.07 0 0 0 .65-2.07 3.12 3.12 0 0 0 -.65-2.08 2.22 2.22 0 0 0 -1.78-.75 2.27 2.27 0 0 0 -1.8.75 3.07 3.07 0 0 0 -.66 2.08 3 3 0 0 0 .66 2.07 2.27 2.27 0 0 0 1.8.75 2.22 2.22 0 0 0 1.78-.75z" fill="#fff"/><path d="m1404.6 420.7h-86a12 12 0 0 1 -12-12v-10a12 12 0 0 1 12-12h86a12 12 0 0 1 12 12v10a12 12 0 0 1 -12 12z" fill="#29afcf"/><path d="m1353.41 402.91v5.09a6.65 6.65 0 0 1 -1.7.55 11 11 0 0 1 -2.15.21 5.68 5.68 0 0 1 -2.84-.68 4.35 4.35 0 0 1 -1.82-1.95 6.79 6.79 0 0 1 -.63-3 6.7 6.7 0 0 1 .63-3 4.4 4.4 0 0 1 1.8-1.94 5.44 5.44 0 0 1 2.77-.68 6.26 6.26 0 0 1 2.13.35 4.32 4.32 0 0 1 1.67 1.05l-.49 1a5.68 5.68 0 0 0 -1.58-1 4.72 4.72 0 0 0 -1.73-.3 3.59 3.59 0 0 0 -2.88 1.17 6.23 6.23 0 0 0 0 6.8 3.76 3.76 0 0 0 3 1.18 8.2 8.2 0 0 0 2.66-.44v-3.37h-2.75v-1z" fill="#fff"/><path d="m1360.21 400.77v1.15a2.28 2.28 0 0 0 -.82-.13 2 2 0 0 0 -1.68.71 2.69 2.69 0 0 0 -.56 1.72v4.45h-1.25v-5.62a16.13 16.13 0 0 0 -.13-2.19h1.2l.12 1.45a2.39 2.39 0 0 1 1-1.22 2.67 2.67 0 0 1 1.49-.41 2.6 2.6 0 0 1 .63.09z" fill="#fff"/><path d="m1368.21 400.86v7.81h-1.21v-1.41a2.51 2.51 0 0 1 -1 1.13 3.54 3.54 0 0 1 -3.43-.11 3.27 3.27 0 0 1 -1.22-1.4 5.55 5.55 0 0 1 0-4.26 3.43 3.43 0 0 1 1.22-1.43 3.25 3.25 0 0 1 1.81-.51 3.09 3.09 0 0 1 1.6.4 2.7 2.7 0 0 1 1 1.13v-1.35zm-1.86 6.1a3.56 3.56 0 0 0 .62-2.23 3.49 3.49 0 0 0 -.62-2.22 2.4 2.4 0 0 0 -3.56 0 3.46 3.46 0 0 0 -.65 2.23 3.34 3.34 0 0 0 .64 2.2 2.18 2.18 0 0 0 1.8.78 2.15 2.15 0 0 0 1.77-.72z" fill="#fff"/><path d="m1370.17 407.77.42-.93a4.13 4.13 0 0 0 1.29.71 4.43 4.43 0 0 0 1.46.22 2.44 2.44 0 0 0 1.34-.3 1 1 0 0 0 .46-.88 1 1 0 0 0 -.31-.74 2.31 2.31 0 0 0 -1-.44l-1.32-.31a2.83 2.83 0 0 1 -1.51-.78 1.83 1.83 0 0 1 -.54-1.33 2 2 0 0 1 .83-1.67 3.4 3.4 0 0 1 2.17-.64 4.39 4.39 0 0 1 1.55.26 3.2 3.2 0 0 1 1.23.76l-.42.92a3.65 3.65 0 0 0 -2.36-.92 2.29 2.29 0 0 0 -1.3.32 1 1 0 0 0 -.45.89 1 1 0 0 0 .28.76 2 2 0 0 0 .93.44l1.32.32a3.32 3.32 0 0 1 1.61.77 1.84 1.84 0 0 1 .53 1.36 2 2 0 0 1 -.82 1.62 3.74 3.74 0 0 1 -2.24.6 4.57 4.57 0 0 1 -3.15-1.01z" fill="#fff"/><path d="m1377.87 407.77.42-.93a4.13 4.13 0 0 0 1.29.71 4.43 4.43 0 0 0 1.46.22 2.44 2.44 0 0 0 1.34-.3 1 1 0 0 0 .46-.88.92.92 0 0 0 -.31-.74 2.31 2.31 0 0 0 -1-.44l-1.32-.31a2.83 2.83 0 0 1 -1.51-.78 1.83 1.83 0 0 1 -.54-1.33 2 2 0 0 1 .83-1.67 3.42 3.42 0 0 1 2.17-.64 4.39 4.39 0 0 1 1.55.26 3.2 3.2 0 0 1 1.23.76l-.42.92a3.63 3.63 0 0 0 -2.36-.92 2.29 2.29 0 0 0 -1.3.32 1 1 0 0 0 -.45.89 1 1 0 0 0 .28.76 2.07 2.07 0 0 0 .93.44l1.32.32a3.32 3.32 0 0 1 1.61.77 1.8 1.8 0 0 1 .53 1.36 1.92 1.92 0 0 1 -.82 1.62 3.74 3.74 0 0 1 -2.24.6 4.59 4.59 0 0 1 -3.15-1.01z" fill="#fff"/><path d="m1467.6 378.3h-86a12 12 0 0 1 -12-12v-10a12 12 0 0 1 12-12h86a12 12 0 0 1 12 12v10a12 12 0 0 1 -12 12z" fill="#29afcf"/><path d="m1412.38 365.72a4.52 4.52 0 0 1 -1.78-2 6.93 6.93 0 0 1 -.62-3 6.85 6.85 0 0 1 .62-3 4.61 4.61 0 0 1 1.78-2 5.32 5.32 0 0 1 2.73-.68 6.17 6.17 0 0 1 2.1.35 4.43 4.43 0 0 1 1.66 1.05l-.49 1a5.16 5.16 0 0 0 -1.56-1 4.63 4.63 0 0 0 -1.7-.3 3.52 3.52 0 0 0 -2.82 1.18 6.18 6.18 0 0 0 0 6.74 3.47 3.47 0 0 0 2.82 1.18 4.63 4.63 0 0 0 1.7-.29 5.16 5.16 0 0 0 1.56-1l.49 1a4.7 4.7 0 0 1 -1.66 1.05 6.17 6.17 0 0 1 -2.1.35 5.22 5.22 0 0 1 -2.73-.63z" fill="#fff"/><path d="m1427.24 358.47v7.81h-1.24v-1.35a2.61 2.61 0 0 1 -1 1.09 3 3 0 0 1 -1.51.37 2.68 2.68 0 0 1 -2.09-.78 3.24 3.24 0 0 1 -.72-2.29v-4.85h1.26v4.81a2.33 2.33 0 0 0 .43 1.56 1.66 1.66 0 0 0 1.32.49 2.19 2.19 0 0 0 1.68-.67 2.46 2.46 0 0 0 .64-1.78v-4.41z" fill="#fff"/><path d="m1431.33 359.46v4.27a1.66 1.66 0 0 0 .36 1.22 1.37 1.37 0 0 0 1 .35 2.39 2.39 0 0 0 .84-.14v1.07a3.33 3.33 0 0 1 -1.09.16 2.34 2.34 0 0 1 -1.74-.63 2.51 2.51 0 0 1 -.63-1.85v-4.45h-1.53v-1h1.53v-2l1.25-.45v2.45h2.24v1z" fill="#fff"/><path d="m1441.63 362.34h-5.73a3.36 3.36 0 0 0 .69 2.25 2.49 2.49 0 0 0 2 .76 4 4 0 0 0 2.51-.92l.42.92a3.71 3.71 0 0 1 -1.31.76 4.88 4.88 0 0 1 -1.64.28 3.79 3.79 0 0 1 -2.87-1.08 4.05 4.05 0 0 1 -1-3 4.69 4.69 0 0 1 .46-2.12 3.49 3.49 0 0 1 1.31-1.43 3.6 3.6 0 0 1 1.91-.52 3.08 3.08 0 0 1 2.44 1 4.17 4.17 0 0 1 .88 2.8zm-4.9-2.49a2.85 2.85 0 0 0 -.78 1.66h4.55a2.69 2.69 0 0 0 -.65-1.67 2 2 0 0 0 -1.53-.58 2.22 2.22 0 0 0 -1.59.59z" fill="#fff"/><path d="m1349.25 476.13a5 5 0 0 1 5-5h142.75a5 5 0 0 1 5 5 5 5 0 0 1 -5 5h-142.7a5 5 0 0 1 -5-5z" fill="#91c4c6"/><path d="m1412.8 189.3h-86a12 12 0 0 1 -12-12v-10a12 12 0 0 1 12-12h86a12 12 0 0 1 12 12v10a12 12 0 0 1 -12 12z" fill="#29afcf"/><path d="m1344.58 166.19h4.42a3.92 3.92 0 0 1 2.66.83 2.81 2.81 0 0 1 1 2.26 2.86 2.86 0 0 1 -1 2.28 4 4 0 0 1 -2.66.83h-3.14v4.86h-1.27zm4.3 5.14a2.74 2.74 0 0 0 1.85-.53 2.16 2.16 0 0 0 0-3 2.8 2.8 0 0 0 -1.85-.52h-3v4.08z" fill="#fff"/><path d="m1361 169.44v7.81h-1.23v-1.35a2.61 2.61 0 0 1 -1 1.09 3.11 3.11 0 0 1 -1.5.37 2.7 2.7 0 0 1 -2.1-.78 3.27 3.27 0 0 1 -.72-2.3v-4.84h1.26v4.81a2.3 2.3 0 0 0 .44 1.55 1.63 1.63 0 0 0 1.32.5 2.18 2.18 0 0 0 1.67-.67 2.48 2.48 0 0 0 .64-1.78v-4.41z" fill="#fff"/><path d="m1369.12 169.76a3.46 3.46 0 0 1 1.22 1.44 5 5 0 0 1 .44 2.14 4.9 4.9 0 0 1 -.44 2.12 3.27 3.27 0 0 1 -1.22 1.4 3.33 3.33 0 0 1 -1.82.5 3.1 3.1 0 0 1 -1.6-.41 2.58 2.58 0 0 1 -1-1.15v4.8h-1.26v-9a18.06 18.06 0 0 0 -.12-2.19h1.19l.13 1.5a2.64 2.64 0 0 1 1-1.25 3.13 3.13 0 0 1 1.67-.44 3.3 3.3 0 0 1 1.81.54zm-.28 5.78a3.41 3.41 0 0 0 .63-2.2 3.5 3.5 0 0 0 -.63-2.23 2.13 2.13 0 0 0 -1.77-.8 2.18 2.18 0 0 0 -1.79.77 4.3 4.3 0 0 0 0 4.45 2.41 2.41 0 0 0 3.56 0z" fill="#fff"/><path d="m1378.43 169.76a3.41 3.41 0 0 1 1.23 1.44 5 5 0 0 1 .44 2.14 4.9 4.9 0 0 1 -.44 2.12 3.24 3.24 0 0 1 -3 1.9 3.07 3.07 0 0 1 -1.6-.41 2.53 2.53 0 0 1 -1-1.15v4.8h-1.26v-9a16.13 16.13 0 0 0 -.13-2.19h1.2l.12 1.5a2.66 2.66 0 0 1 1-1.25 3.1 3.1 0 0 1 1.67-.44 3.25 3.25 0 0 1 1.77.54zm-.27 5.78a4.18 4.18 0 0 0 0-4.43 2.11 2.11 0 0 0 -1.77-.8 2.16 2.16 0 0 0 -1.78.77 4.3 4.3 0 0 0 0 4.45 2.12 2.12 0 0 0 1.78.79 2.15 2.15 0 0 0 1.77-.78z" fill="#fff"/><path d="m1381.91 166.13h1.54v1.43h-1.54zm.13 11.12v-7.81h1.25v7.81z" fill="#fff"/><path d="m1392.27 173.3h-5.73a3.37 3.37 0 0 0 .69 2.26 2.52 2.52 0 0 0 2 .76 4 4 0 0 0 2.51-.92l.42.92a3.71 3.71 0 0 1 -1.31.76 5.14 5.14 0 0 1 -1.64.28 3.79 3.79 0 0 1 -2.87-1.08 4.07 4.07 0 0 1 -1-3 4.66 4.66 0 0 1 .46-2.12 3.51 3.51 0 0 1 1.31-1.44 3.59 3.59 0 0 1 1.91-.51 3 3 0 0 1 2.43 1 4.13 4.13 0 0 1 .89 2.8zm-4.9-2.48a2.82 2.82 0 0 0 -.78 1.66h4.55a2.74 2.74 0 0 0 -.65-1.68 2 2 0 0 0 -1.53-.57 2.22 2.22 0 0 0 -1.59.59z" fill="#fff"/><path d="m1393.7 176.35.42-.93a4.13 4.13 0 0 0 1.29.71 4.43 4.43 0 0 0 1.46.22 2.46 2.46 0 0 0 1.34-.3 1 1 0 0 0 .46-.88 1 1 0 0 0 -.31-.75 2.32 2.32 0 0 0 -1-.43l-1.32-.31a2.94 2.94 0 0 1 -1.51-.78 1.85 1.85 0 0 1 -.54-1.33 2 2 0 0 1 .83-1.67 3.4 3.4 0 0 1 2.17-.65 4.39 4.39 0 0 1 1.55.27 3.2 3.2 0 0 1 1.23.76l-.42.91a3.63 3.63 0 0 0 -2.36-.91 2.29 2.29 0 0 0 -1.3.31 1.07 1.07 0 0 0 -.46.9 1 1 0 0 0 .29.76 1.92 1.92 0 0 0 .93.43l1.31.33a3.31 3.31 0 0 1 1.62.77 1.84 1.84 0 0 1 .53 1.36 1.9 1.9 0 0 1 -.83 1.61 3.62 3.62 0 0 1 -2.23.61 4.56 4.56 0 0 1 -3.15-1.01z" fill="#fff"/><path d="m1533.5 189.3h-86a12 12 0 0 1 -12-12v-10a12 12 0 0 1 12-12h86a12 12 0 0 1 12 12v10a12 12 0 0 1 -12 12z" fill="#29afcf"/><path d="m1476.3 171.49v5.12a6.24 6.24 0 0 1 -1.71.55 10.94 10.94 0 0 1 -2.14.21 5.68 5.68 0 0 1 -2.84-.67 4.43 4.43 0 0 1 -1.83-1.95 7.74 7.74 0 0 1 0-6.07 4.47 4.47 0 0 1 1.81-1.94 5.44 5.44 0 0 1 2.77-.67 6.06 6.06 0 0 1 2.13.35 4.32 4.32 0 0 1 1.67 1.05l-.49 1a5.87 5.87 0 0 0 -1.58-1 4.72 4.72 0 0 0 -1.73-.3 3.56 3.56 0 0 0 -2.88 1.17 6.18 6.18 0 0 0 0 6.8 3.75 3.75 0 0 0 3 1.17 8.19 8.19 0 0 0 2.66-.43v-3.38h-2.75v-1z" fill="#fff"/><path d="m1480 176.86a3.27 3.27 0 0 1 -1.29-1.41 5.23 5.23 0 0 1 0-4.29 3.27 3.27 0 0 1 1.29-1.41 4 4 0 0 1 3.89 0 3.33 3.33 0 0 1 1.29 1.41 5.23 5.23 0 0 1 0 4.29 3.33 3.33 0 0 1 -1.29 1.41 4 4 0 0 1 -3.89 0zm3.73-1.31a3.53 3.53 0 0 0 .62-2.25 3.4 3.4 0 0 0 -.64-2.21 2.41 2.41 0 0 0 -3.55 0 3.4 3.4 0 0 0 -.64 2.21 3.47 3.47 0 0 0 .63 2.25 2.2 2.2 0 0 0 1.79.77 2.17 2.17 0 0 0 1.83-.77z" fill="#fff"/><path d="m1487.64 177.25v-11.43h1.25v11.43z" fill="#fff"/><path d="m1498.21 165.82v11.43h-1.21v-1.41a2.48 2.48 0 0 1 -1 1.12 3.13 3.13 0 0 1 -1.61.4 3.25 3.25 0 0 1 -1.81-.51 3.46 3.46 0 0 1 -1.22-1.44 5 5 0 0 1 -.43-2.14 5 5 0 0 1 .42-2.12 3.27 3.27 0 0 1 1.22-1.4 3.38 3.38 0 0 1 1.82-.5 3.09 3.09 0 0 1 1.6.4 2.44 2.44 0 0 1 1 1.11v-4.94zm-1.86 9.71a4.28 4.28 0 0 0 0-4.44 2.15 2.15 0 0 0 -1.77-.78 2.2 2.2 0 0 0 -1.79.77 3.35 3.35 0 0 0 -.65 2.19 3.5 3.5 0 0 0 .65 2.25 2.16 2.16 0 0 0 1.79.8 2.13 2.13 0 0 0 1.77-.79z" fill="#fff"/><path d="m1507.19 173.3h-5.73a3.37 3.37 0 0 0 .69 2.26 2.5 2.5 0 0 0 2 .76 4 4 0 0 0 2.52-.92l.42.92a3.71 3.71 0 0 1 -1.31.76 5.14 5.14 0 0 1 -1.64.28 3.83 3.83 0 0 1 -2.88-1.08 4.11 4.11 0 0 1 -1-3 4.66 4.66 0 0 1 .47-2.12 3.49 3.49 0 0 1 1.3-1.44 3.62 3.62 0 0 1 1.91-.51 3.06 3.06 0 0 1 2.44 1 4.13 4.13 0 0 1 .89 2.8zm-4.9-2.48a2.88 2.88 0 0 0 -.79 1.66h4.55a2.68 2.68 0 0 0 -.64-1.68 2 2 0 0 0 -1.53-.57 2.22 2.22 0 0 0 -1.59.59z" fill="#fff"/><path d="m1515.81 172.34v4.91h-1.26v-4.85a2.41 2.41 0 0 0 -.44-1.59 1.72 1.72 0 0 0 -1.36-.5 2.29 2.29 0 0 0 -1.74.67 2.43 2.43 0 0 0 -.65 1.8v4.47h-1.26v-5.62a16.13 16.13 0 0 0 -.13-2.19h1.2l.12 1.4a2.63 2.63 0 0 1 1.08-1.18 3.21 3.21 0 0 1 1.63-.41c1.87 0 2.81 1.03 2.81 3.09z" fill="#fff"/><path d="m1656.2 188h-86a12 12 0 0 1 -12-12v-10a12 12 0 0 1 12-12h86a12 12 0 0 1 12 12v10a12 12 0 0 1 -12 12z" fill="#29afcf"/><path d="m1598 174.66.48-1a5.08 5.08 0 0 0 1.68 1 5.93 5.93 0 0 0 2 .3 3.46 3.46 0 0 0 2.06-.52 1.71 1.71 0 0 0 .72-1.47 1.22 1.22 0 0 0 -.35-.91 2.54 2.54 0 0 0 -.91-.55c-.38-.13-.88-.27-1.52-.42a14 14 0 0 1 -2.09-.6 3.28 3.28 0 0 1 -1.34-.94 2.45 2.45 0 0 1 -.51-1.61 2.89 2.89 0 0 1 .5-1.67 3.21 3.21 0 0 1 1.4-1.12 5.17 5.17 0 0 1 2.12-.41 6.2 6.2 0 0 1 2.14.36 4.35 4.35 0 0 1 1.68 1l-.5 1a5.36 5.36 0 0 0 -1.57-1 4.77 4.77 0 0 0 -1.75-.31 3.28 3.28 0 0 0 -2 .55 1.81 1.81 0 0 0 -.73 1.51 1.4 1.4 0 0 0 .64 1.26 6.35 6.35 0 0 0 2 .73c1 .23 1.7.44 2.24.63a3.32 3.32 0 0 1 1.36.87 2.18 2.18 0 0 1 .54 1.55 2.69 2.69 0 0 1 -.5 1.63 3.19 3.19 0 0 1 -1.42 1.1 5.48 5.48 0 0 1 -2.16.39 5.9 5.9 0 0 1 -4.21-1.35z" fill="#fff"/><path d="m1609.78 169.12v4.27a1.68 1.68 0 0 0 .35 1.21 1.37 1.37 0 0 0 1 .35 2.39 2.39 0 0 0 .84-.14v1.08a3.61 3.61 0 0 1 -1.08.15 2.36 2.36 0 0 1 -1.75-.63 2.5 2.5 0 0 1 -.63-1.85v-4.44h-1.51v-1h1.52v-2l1.26-.45v2.45h2.22v1z" fill="#fff"/><path d="m1613.41 164.81h1.59v1.43h-1.54zm.13 11.12v-7.81h1.25v7.81z" fill="#fff"/><path d="m1618.53 175.54a3.29 3.29 0 0 1 -1.31-1.4 5.21 5.21 0 0 1 0-4.26 3.4 3.4 0 0 1 1.33-1.43 3.85 3.85 0 0 1 2-.51 4.4 4.4 0 0 1 1.53.27 3.32 3.32 0 0 1 1.22.75l-.42.93a4.5 4.5 0 0 0 -1.14-.68 3 3 0 0 0 -1.13-.22 2.35 2.35 0 0 0 -1.88.8 3.36 3.36 0 0 0 -.68 2.23 3.24 3.24 0 0 0 .68 2.2 2.34 2.34 0 0 0 1.88.78 3 3 0 0 0 1.13-.22 4.5 4.5 0 0 0 1.14-.68l.42.93a3.58 3.58 0 0 1 -1.25.74 4.57 4.57 0 0 1 -1.56.27 3.74 3.74 0 0 1 -1.96-.5z" fill="#fff"/><path d="m1631.83 175.93h-1.65l-4-3.76v3.76h-1.26v-11.43h1.26v7.21l3.68-3.57h1.6l-3.92 3.74z" fill="#fff"/><path d="m1601.2 145.6h-86a12 12 0 0 1 -12-12v-10a12 12 0 0 1 12-12h86a12 12 0 0 1 12 12v10a12 12 0 0 1 -12 12z" fill="#29afcf"/><path d="m1540.71 133.59v-11.06h6.83v1.07h-5.54v3.84h5.27v1.07h-5.27v5.08z" fill="#fff"/><path d="m1555.68 129.65h-5.68a3.36 3.36 0 0 0 .69 2.25 2.5 2.5 0 0 0 2 .76 4 4 0 0 0 2.52-.92l.42.92a3.67 3.67 0 0 1 -1.32.76 4.82 4.82 0 0 1 -1.63.28 3.82 3.82 0 0 1 -2.88-1.08 4.11 4.11 0 0 1 -1-3 4.66 4.66 0 0 1 .47-2.12 3.46 3.46 0 0 1 1.3-1.43 3.53 3.53 0 0 1 1.91-.52 3.06 3.06 0 0 1 2.44 1 4.13 4.13 0 0 1 .89 2.8zm-4.9-2.49a2.91 2.91 0 0 0 -.79 1.66h4.55a2.63 2.63 0 0 0 -.64-1.67 2 2 0 0 0 -1.53-.58 2.22 2.22 0 0 0 -1.59.59z" fill="#fff"/><path d="m1559.22 126.77v4.23a1.71 1.71 0 0 0 .35 1.22 1.37 1.37 0 0 0 1 .35 2.39 2.39 0 0 0 .84-.14v1.07a3.33 3.33 0 0 1 -1.09.16 2.35 2.35 0 0 1 -1.74-.63 2.52 2.52 0 0 1 -.63-1.86v-4.44h-1.52v-1h1.57v-2l1.26-.45v2.45h2.23v1z" fill="#fff"/><path d="m1564.27 133.2a3.32 3.32 0 0 1 -1.3-1.4 4.63 4.63 0 0 1 -.46-2.12 4.71 4.71 0 0 1 .46-2.14 3.53 3.53 0 0 1 1.33-1.43 3.81 3.81 0 0 1 2-.52 4.4 4.4 0 0 1 1.53.27 3.47 3.47 0 0 1 1.22.76l-.42.93a4.34 4.34 0 0 0 -1.14-.68 2.94 2.94 0 0 0 -1.12-.22 2.34 2.34 0 0 0 -1.88.8 3.31 3.31 0 0 0 -.69 2.23 3.24 3.24 0 0 0 .68 2.19 2.34 2.34 0 0 0 1.89.79 2.94 2.94 0 0 0 1.12-.22 4.34 4.34 0 0 0 1.14-.68l.42.93a3.58 3.58 0 0 1 -1.25.74 4.57 4.57 0 0 1 -1.56.27 3.86 3.86 0 0 1 -1.97-.5z" fill="#fff"/><path d="m1577.37 128.68v4.91h-1.26v-4.84a2.43 2.43 0 0 0 -.43-1.6 1.74 1.74 0 0 0 -1.37-.5 2.32 2.32 0 0 0 -1.74.67 2.47 2.47 0 0 0 -.65 1.8v4.47h-1.26v-11.43h1.26v4.89a2.51 2.51 0 0 1 1.08-1.05 3.27 3.27 0 0 1 1.58-.38c1.85-.03 2.79 1 2.79 3.06z" fill="#fff"/><path d="m1472.2 141.9h-86a12 12 0 0 1 -12-12v-10a12 12 0 0 1 12-12h86a12 12 0 0 1 12 12v10a12 12 0 0 1 -12 12z" fill="#29afcf"/><path d="m1421 124.09v5.13a6.65 6.65 0 0 1 -1.7.55 11 11 0 0 1 -2.15.21 5.71 5.71 0 0 1 -2.84-.68 4.41 4.41 0 0 1 -1.82-2 6.79 6.79 0 0 1 -.63-3 6.7 6.7 0 0 1 .63-3 4.46 4.46 0 0 1 1.8-1.94 5.44 5.44 0 0 1 2.77-.68 6.36 6.36 0 0 1 2.14.35 4.36 4.36 0 0 1 1.66 1l-.49 1a5.68 5.68 0 0 0 -1.58-1 4.72 4.72 0 0 0 -1.73-.3 3.59 3.59 0 0 0 -2.88 1.17 6.23 6.23 0 0 0 0 6.8 3.76 3.76 0 0 0 3 1.17 8.15 8.15 0 0 0 2.66-.43v-3.34h-2.75v-1z" fill="#fff"/><path d="m1427.78 122v1.15a2.28 2.28 0 0 0 -.82-.13 2 2 0 0 0 -1.68.71 2.69 2.69 0 0 0 -.55 1.72v4.45h-1.26v-5.62a16.13 16.13 0 0 0 -.13-2.19h1.2l.12 1.44a2.46 2.46 0 0 1 1-1.21 2.78 2.78 0 0 1 2.21-.32z" fill="#fff"/><path d="m1435.77 122v7.81h-1.24v-1.41a2.44 2.44 0 0 1 -1 1.12 3.13 3.13 0 0 1 -1.61.4 3.25 3.25 0 0 1 -1.82-.5 3.19 3.19 0 0 1 -1.21-1.4 4.86 4.86 0 0 1 -.43-2.12 5 5 0 0 1 .43-2.14 3.43 3.43 0 0 1 1.22-1.43 3.25 3.25 0 0 1 1.81-.52 3.07 3.07 0 0 1 1.6.41 2.64 2.64 0 0 1 1 1.13v-1.35zm-1.86 6.1a3.56 3.56 0 0 0 .62-2.23 3.47 3.47 0 0 0 -.62-2.22 2.12 2.12 0 0 0 -1.77-.78 2.17 2.17 0 0 0 -1.79.8 3.46 3.46 0 0 0 -.65 2.23 3.34 3.34 0 0 0 .64 2.2 2.18 2.18 0 0 0 1.8.78 2.12 2.12 0 0 0 1.77-.74z" fill="#fff"/><path d="m1437.73 129 .42-.93a4.13 4.13 0 0 0 1.29.71 4.43 4.43 0 0 0 1.46.22 2.44 2.44 0 0 0 1.34-.3 1 1 0 0 0 .46-.88.92.92 0 0 0 -.31-.74 2.21 2.21 0 0 0 -1-.44l-1.32-.31a2.83 2.83 0 0 1 -1.51-.78 1.83 1.83 0 0 1 -.54-1.33 2 2 0 0 1 .83-1.67 3.42 3.42 0 0 1 2.17-.65 4.39 4.39 0 0 1 1.55.27 3.2 3.2 0 0 1 1.23.76l-.42.92a3.63 3.63 0 0 0 -2.36-.92 2.29 2.29 0 0 0 -1.3.32 1 1 0 0 0 -.45.89 1 1 0 0 0 .28.76 2 2 0 0 0 .93.44l1.32.32a3.32 3.32 0 0 1 1.61.77 1.84 1.84 0 0 1 .53 1.36 1.89 1.89 0 0 1 -.82 1.61 3.67 3.67 0 0 1 -2.24.61 4.59 4.59 0 0 1 -3.15-1.01z" fill="#fff"/><path d="m1445.43 129 .42-.93a4.36 4.36 0 0 0 1.29.71 4.43 4.43 0 0 0 1.46.22 2.44 2.44 0 0 0 1.34-.3 1 1 0 0 0 .46-.88.92.92 0 0 0 -.31-.74 2.21 2.21 0 0 0 -1-.44l-1.32-.31a2.83 2.83 0 0 1 -1.52-.78 1.83 1.83 0 0 1 -.53-1.33 2 2 0 0 1 .82-1.67 3.42 3.42 0 0 1 2.17-.65 4.49 4.49 0 0 1 1.56.27 3.24 3.24 0 0 1 1.22.76l-.42.92a3.63 3.63 0 0 0 -2.36-.92 2.23 2.23 0 0 0 -1.29.32 1.12 1.12 0 0 0 -.18 1.65 2.07 2.07 0 0 0 .93.44l1.32.32a3.32 3.32 0 0 1 1.61.77 1.8 1.8 0 0 1 .53 1.36 1.89 1.89 0 0 1 -.82 1.61 3.67 3.67 0 0 1 -2.24.61 4.59 4.59 0 0 1 -3.14-1.01z" fill="#fff"/><path d="m1535.2 99.5h-86a12 12 0 0 1 -12-12v-10a12 12 0 0 1 12-12h86a12 12 0 0 1 12 12v10a12 12 0 0 1 -12 12z" fill="#29afcf"/><path d="m1479.94 86.9a4.44 4.44 0 0 1 -1.77-2 6.79 6.79 0 0 1 -.63-3 6.71 6.71 0 0 1 .63-3 4.53 4.53 0 0 1 1.77-2 5.32 5.32 0 0 1 2.73-.68 6.13 6.13 0 0 1 2.1.35 4.43 4.43 0 0 1 1.66 1.05l-.48 1a5.33 5.33 0 0 0 -1.57-1 4.63 4.63 0 0 0 -1.7-.3 3.49 3.49 0 0 0 -2.81 1.18 5 5 0 0 0 -1 3.36 5.11 5.11 0 0 0 1 3.37 3.44 3.44 0 0 0 2.82 1.19 4.85 4.85 0 0 0 1.7-.29 5.33 5.33 0 0 0 1.57-1l.48 1a4.7 4.7 0 0 1 -1.66 1 6.13 6.13 0 0 1 -2.1.34 5.22 5.22 0 0 1 -2.74-.57z" fill="#fff"/><path d="m1494.8 79.65v7.81h-1.23v-1.35a2.61 2.61 0 0 1 -1 1.09 3 3 0 0 1 -1.51.37 2.68 2.68 0 0 1 -2.09-.78 3.24 3.24 0 0 1 -.72-2.29v-4.85h1.26v4.81a2.38 2.38 0 0 0 .43 1.56 1.66 1.66 0 0 0 1.32.49 2.19 2.19 0 0 0 1.68-.67 2.48 2.48 0 0 0 .64-1.78v-4.41z" fill="#fff"/><path d="m1498.9 80.64v4.27a1.66 1.66 0 0 0 .35 1.22 1.37 1.37 0 0 0 1 .35 2.39 2.39 0 0 0 .84-.14v1.07a3.33 3.33 0 0 1 -1.09.16 2.35 2.35 0 0 1 -1.74-.63 2.52 2.52 0 0 1 -.63-1.86v-4.44h-1.52v-1h1.52v-2l1.26-.45v2.45h2.23v1z" fill="#fff"/><path d="m1509.19 83.52h-5.73a3.36 3.36 0 0 0 .69 2.25 2.49 2.49 0 0 0 2 .76 3.93 3.93 0 0 0 2.51-.92l.42.92a3.71 3.71 0 0 1 -1.31.76 4.83 4.83 0 0 1 -1.64.28 3.79 3.79 0 0 1 -2.87-1.08 4.09 4.09 0 0 1 -1-3 4.69 4.69 0 0 1 .46-2.12 3.52 3.52 0 0 1 3.22-2 3.07 3.07 0 0 1 2.44 1 4.12 4.12 0 0 1 .88 2.8zm-4.9-2.49a2.85 2.85 0 0 0 -.78 1.66h4.55a2.63 2.63 0 0 0 -.65-1.67 2 2 0 0 0 -1.53-.58 2.22 2.22 0 0 0 -1.59.56z" fill="#fff"/><path d="m1415.2 201.32a5 5 0 0 1 5-5h142.7a5 5 0 0 1 5 5 5 5 0 0 1 -5 5h-142.7a5 5 0 0 1 -5-5z" fill="#91c4c6"/><path d="m1477.9 203.3h11.5l18.1 19s-9.6-1.3-12.2-1.3c-1.5-.1-17.4-17.7-17.4-17.7z" fill="#b67444"/><path d="m1461.4 203.3h17l23.1 19a84 84 0 0 1 -9.9-1.7c-3.1-.8-30.2-17.3-30.2-17.3z" fill="#cc874d"/><path d="m1449.9 203.3h11.5s33 16.7 37.2 17.9c1.9.5-13.9 1.1-22.8-1.7-10.8-3.4-22.2-11.7-25.9-16.2z" fill="#e19c5b"/><path d="m1440.1 215.6h-16.5s-7 .3-7-7.3c0-5.3 10.3-4.8 10.3-4.8l23-.5s19.3 10.7 26.5 14.5a28.85 28.85 0 0 1 16.5 3l33.5 3.3s8.3-18.5 16.8-20.7 19.5 0 19.5 0a5.47 5.47 0 0 1 2 5.5c-.8 3.5-3.3 4.3-4 4.4s-7.5 0-7.5 0-3.3 11-6 15.9c4.6 19.4 1.5 28.5 2.3 32.5s39 56.5 39 56.5l-31.8 21.8s-65.3-88.5-67.8-95c-1.2-3-13.3-7.1-24.3-13.2a241.63 241.63 0 0 1 -24.5-15.9z" fill="#f2ae6d"/><path d="m1431.5 215.6-8.2.1s-7-1-6.7-6.5h10.3c.1 0 3.6.7 4.6 6.4z" fill="#f89271"/><path d="m1553.8 213 2.7-5.1s6-1 7.6-.1-.8 4.4-2.8 5.2z" fill="#f89271"/></g><path d="m1508.55 271.73 37.8-22.2 2.8 4.3-37.9 21.3z" fill="#ededd9"/><path d="m1512.4 289.2 44.4-25.1s69.8 78 77.5 94.7c15-10.3 82 0 82 0l-43.7 52.3s-34.7 9.3-48.7 6.7c-5.5-1-33.6-27.7-59.3-59-27.3-33.3-52.2-69.6-52.2-69.6z" fill="#e81b2f" transform="translate(-4.65 -12.17)"/><image height="332" transform="matrix(.48 0 0 .48 170.55 300.72)" width="433" xlink:href="embedded-image-1.png"/><path d="m382.93 313.25v158.93h-207.58v-158.93zm7-7h-221.58v172.93h221.58z" fill="#fff" transform="translate(-4.65 -12.17)"/><image height="332" transform="matrix(.48 0 0 .48 407.19 300.72)" width="432" xlink:href="embedded-image-3.png"/><path d="m613.7 313.25v158.93h-201.84v-158.93zm7-7h-215.84v172.93h215.84z" fill="#fff" transform="translate(-4.65 -12.17)"/><path d="m112.75 288.55 36.4-36.39h56s1.9 12.7-7.9 14.2-25 .6-25 .6 12.1.9 12 11.39c-.1 7.3-4.4 9.8-10.1 10.1s-61.4.1-61.4.1z" fill="#d3b094" transform="translate(-4.65 -12.17)"/><image height="301" transform="matrix(.48 0 0 .48 133.59 90.48)" width="377" xlink:href="embedded-image-2.png"/><path d="m319.11 102.71v144.29h-180.61v-144.29zm7-7h-194.61v158.29h194.61z" fill="#fff" transform="translate(-4.65 -12.17)"/><path d="m44.75 339-40.1-40.1 91.6-99.3s2.3-4.4 5.9-4.2c5.1.3 29.1 0 29.1 0v37.6l18.6-17.7s10.6-6.3 18.1 2.5-2.1 19-2.1 19l-63.7 62.5a21.59 21.59 0 0 1 -8.9 5.5c-5.5 1.7-15 2.7-19.2 1.1s-29.3 33.1-29.3 33.1z" fill="url(#k)" transform="translate(-4.65 -12.17)"/><path d="m146.15 226.06 11.5 12.3 7.9-8.3s4-4.2-1-10.4-12.3 0-12.3 0z" fill="#d3b094" transform="translate(-4.65 -12.17)"/><path d="m120.7 224.79 6-4.5v-14.2h-12.6z" fill="#d3b094"/></svg>