<?xml version="1.0" encoding="utf-8"?>
<!-- Generator: Adobe Illustrator 23.0.1, SVG Export Plug-In . SVG Version: 6.00 Build 0)  -->
<svg version="1.1" id="Layer_1" xmlns="http://www.w3.org/2000/svg" xmlns:xlink="http://www.w3.org/1999/xlink" x="0px" y="0px"
	 viewBox="0 0 1816.5 648.9" style="enable-background:new 0 0 1816.5 648.9;" xml:space="preserve">
<style type="text/css">
	.st0{fill:#29AFCF;}
	.st1{fill:#FFFFFF;}
	.st2{fill:#91C4C6;}
	.st3{fill:#A6B5BC;}
	.st4{fill:#B2B2B2;}
	.st5{fill:none;stroke:#A8AFBA;stroke-width:18;stroke-miterlimit:10;}
	.st6{fill:none;stroke:#4B8E99;stroke-width:7;stroke-miterlimit:10;}
	.st7{fill:#C1C5CA;}
	.st8{fill:#4B4650;}
	.st9{fill:#57798F;}
	.st10{fill:#BFC8CE;}
	.st11{fill:#111119;}
	.st12{fill:#B1BAC6;}
	.st13{fill:#4E6576;}
	.st14{fill:#99A3AF;}
	.st15{fill:#7B828E;}
	.st16{fill:url(#SVGID_1_);}
	.st17{fill:url(#SVGID_2_);}
	.st18{fill:#1CA0AA;}
	.st19{fill:#F1F2F2;}
	.st20{fill:url(#SVGID_3_);}
	.st21{fill:url(#SVGID_4_);}
	.st22{fill:url(#SVGID_5_);}
	.st23{fill:url(#SVGID_6_);}
	.st24{fill:url(#SVGID_7_);}
	.st25{fill:url(#SVGID_8_);}
	.st26{fill:url(#SVGID_9_);}
	.st27{fill:url(#SVGID_10_);}
	.st28{fill:#0D2F3A;}
	.st29{fill:none;stroke:#29AFCF;stroke-width:2;stroke-miterlimit:10;}
	.st30{fill:none;stroke:#E81B2F;stroke-width:2;stroke-miterlimit:10;}
	.st31{fill:none;stroke:#178DA0;stroke-width:2;stroke-miterlimit:10;}
	.st32{fill:#178DA0;}
	.st33{fill:#E81B2F;}
	.st34{fill:#17656D;}
	.st35{fill:none;stroke:#B2B2B2;stroke-width:8;stroke-miterlimit:10;}
	.st36{fill:#B67444;}
	.st37{fill:#CC874D;}
	.st38{fill:#E19C5B;}
	.st39{fill:#F2AE6D;}
	.st40{fill:#F89271;}
	.st41{fill:#EDEDD9;}
	.st42{fill:#D3B094;}
	.st43{fill:url(#SVGID_11_);}
	.st44{fill:url(#SVGID_12_);}
</style>
<path class="st0" d="M1048.6,455.5h-86c-6.6,0-12-5.4-12-12l0,0v-10c0-6.6,5.4-12,12-12h86c6.6,0,12,5.4,12,12v10
	C1060.6,450.2,1055.2,455.5,1048.6,455.5L1048.6,455.5z"/>
<path class="st1" d="M986.3,443.5v-11.1h4.2c0.6,0,1.1,0,1.7,0.1c0.5,0.1,1,0.2,1.4,0.5s0.7,0.6,0.9,1.1s0.3,1,0.3,1.5
	c0,0.9-0.3,1.7-0.9,2.4c-0.9,0.8-2.1,1.1-3.3,1h-2.8v4.5H986.3z M987.8,437.7h2.9c0.7,0.1,1.4-0.1,2-0.5c0.4-0.4,0.6-0.9,0.6-1.5
	c0-0.4-0.1-0.8-0.3-1.2c-0.2-0.3-0.6-0.6-0.9-0.7c-0.5-0.1-0.9-0.1-1.4-0.1h-2.8L987.8,437.7z"/>
<path class="st1" d="M1001.8,443.5v-1.2c-0.6,0.9-1.5,1.4-2.6,1.4c-0.5,0-0.9-0.1-1.3-0.3c-0.4-0.1-0.7-0.4-0.9-0.7
	c-0.2-0.3-0.3-0.6-0.4-1c-0.1-0.4-0.1-0.9-0.1-1.3v-5h1.4v4.5c0,0.5,0,1,0.1,1.4c0.1,0.3,0.3,0.6,0.5,0.9c0.3,0.2,0.6,0.3,1,0.3
	s0.8-0.1,1.2-0.3c0.3-0.2,0.6-0.5,0.8-0.9c0.2-0.5,0.2-1,0.2-1.6v-4.3h1.4v8.1H1001.8z"/>
<path class="st1" d="M1005.2,446.6v-11.1h1.2v1c0.3-0.4,0.6-0.7,1-0.9c0.4-0.2,0.9-0.3,1.3-0.3c0.6,0,1.3,0.2,1.8,0.5
	c0.5,0.4,0.9,0.9,1.2,1.5c0.3,0.7,0.4,1.4,0.4,2.1c0,0.8-0.1,1.5-0.5,2.2c-0.5,1.2-1.7,2-3.1,2c-0.4,0-0.9-0.1-1.2-0.3
	c-0.3-0.2-0.6-0.4-0.9-0.7v3.9L1005.2,446.6z M1006.4,439.5c-0.1,0.8,0.2,1.6,0.6,2.3c0.4,0.5,0.9,0.8,1.5,0.8s1.2-0.3,1.5-0.8
	c0.5-0.7,0.7-1.5,0.7-2.4c0.1-0.8-0.2-1.6-0.6-2.3c-0.4-0.5-0.9-0.8-1.5-0.8s-1.2,0.3-1.5,0.8
	C1006.6,437.8,1006.3,438.7,1006.4,439.5L1006.4,439.5z"/>
<path class="st1" d="M1013.8,446.6v-11.1h1.2v1c0.3-0.4,0.6-0.7,1-0.9c0.4-0.2,0.9-0.3,1.3-0.3c0.6,0,1.3,0.2,1.8,0.6s1,0.9,1.2,1.5
	c0.3,0.7,0.4,1.4,0.4,2.1c0,0.8-0.1,1.5-0.4,2.2c-0.5,1.2-1.7,2-3.1,2c-0.4,0-0.8-0.1-1.2-0.3c-0.3-0.2-0.6-0.4-0.9-0.7v3.9
	L1013.8,446.6z M1015,439.5c-0.1,0.8,0.2,1.6,0.6,2.3c0.4,0.5,0.9,0.7,1.5,0.8c0.6,0,1.2-0.3,1.6-0.8c0.5-0.7,0.7-1.5,0.7-2.4
	c0.1-0.8-0.2-1.6-0.6-2.3c-0.4-0.5-0.9-0.8-1.5-0.8s-1.2,0.3-1.5,0.8C1015.2,437.8,1015,438.7,1015,439.5L1015,439.5z"/>
<path class="st1" d="M1022.4,446.6l-0.2-1.3c0.3,0.1,0.5,0.1,0.8,0.1s0.5,0,0.7-0.1s0.4-0.3,0.5-0.5c0.2-0.3,0.3-0.7,0.4-1l0.1-0.3
	l-3-8.1h1.5l1.7,4.7c0.2,0.6,0.4,1.2,0.6,1.9c0.2-0.6,0.3-1.2,0.6-1.8l1.7-4.7h1.4l-3.1,8.2c-0.2,0.6-0.5,1.2-0.8,1.8
	c-0.2,0.4-0.5,0.7-0.8,1c-0.3,0.2-0.7,0.3-1.1,0.3C1023,446.8,1022.7,446.7,1022.4,446.6L1022.4,446.6z"/>
<path class="st0" d="M1169.3,455.5h-86c-6.6,0-12-5.4-12-12l0,0v-10c0-6.6,5.4-12,12-12h86c6.6,0,12,5.4,12,12v10
	C1181.3,450.2,1175.9,455.5,1169.3,455.5L1169.3,455.5z"/>
<path class="st1" d="M1112,443.9c-0.8-0.5-1.4-1.2-1.8-2c-0.4-0.9-0.6-2-0.6-3s0.2-2.1,0.6-3c0.4-0.8,1-1.5,1.8-2s1.8-0.7,2.7-0.7
	c0.7,0,1.4,0.1,2.1,0.4c0.6,0.2,1.2,0.6,1.7,1l-0.5,1c-0.5-0.4-1-0.8-1.6-1c-0.5-0.2-1.1-0.3-1.7-0.3c-1.1-0.1-2.1,0.4-2.8,1.2
	c-0.7,1-1.1,2.1-1,3.4c-0.1,1.2,0.3,2.4,1,3.4c0.7,0.8,1.8,1.3,2.8,1.2c0.6,0,1.2-0.1,1.7-0.3c0.6-0.2,1.1-0.6,1.6-1l0.5,1
	c-0.5,0.5-1,0.8-1.7,1s-1.4,0.4-2.1,0.4C1113.8,444.6,1112.8,444.4,1112,443.9z"/>
<path class="st1" d="M1121.6,444.1c-0.6-0.3-1-0.8-1.3-1.4c-0.6-1.4-0.6-2.9,0-4.3c0.3-0.6,0.7-1.1,1.3-1.4c1.2-0.7,2.7-0.7,3.9,0
	c0.6,0.3,1,0.8,1.3,1.4c0.6,1.4,0.6,2.9,0,4.3c-0.3,0.6-0.7,1.1-1.3,1.4C1124.2,444.8,1122.8,444.8,1121.6,444.1z M1125.3,442.8
	c0.5-0.7,0.7-1.5,0.6-2.2c0.1-0.8-0.2-1.6-0.6-2.2c-0.9-1-2.4-1-3.4-0.1c-0.1,0-0.1,0.1-0.1,0.1c-0.5,0.6-0.7,1.4-0.6,2.2
	c-0.1,0.8,0.2,1.6,0.6,2.2C1122.7,443.8,1124.2,443.8,1125.3,442.8C1125.2,442.9,1125.3,442.8,1125.3,442.8L1125.3,442.8z"/>
<path class="st1" d="M1133.5,436.6v1.1c-0.3-0.1-0.5-0.1-0.8-0.1c-0.6-0.1-1.3,0.2-1.7,0.7c-0.4,0.5-0.6,1.1-0.6,1.7v4.5h-1.3v-5.6
	c0-0.7,0-1.5-0.1-2.2h1.2l0.1,1.4c0.2-0.5,0.5-0.9,1-1.2C1132,436.5,1132.8,436.4,1133.5,436.6L1133.5,436.6z"/>
<path class="st1" d="M1141.6,436.7v7.7c0.2,1.7-1,3.3-2.7,3.5c-0.3,0-0.5,0-0.8,0c-1.1,0-2.1-0.3-3.1-0.8l0.2-1
	c0.4,0.3,0.9,0.5,1.4,0.6s1,0.2,1.4,0.2c0.6,0,1.2-0.2,1.7-0.6c0.4-0.5,0.6-1.1,0.6-1.8v-1.8c-0.2,0.5-0.6,0.9-1,1.1
	c-0.5,0.3-1.1,0.4-1.6,0.4c-0.6,0-1.3-0.2-1.8-0.5s-1-0.8-1.2-1.4c-0.6-1.3-0.6-2.8,0-4.1c0.3-0.6,0.7-1,1.2-1.4
	c0.6-0.3,1.2-0.5,1.8-0.5c0.6,0,1.1,0.1,1.6,0.4s0.8,0.7,1.1,1.1v-1.4L1141.6,436.7z M1139.7,442.5c0.9-1.2,0.9-2.9,0-4.1
	c-0.4-0.5-1.1-0.8-1.8-0.8c-0.7,0-1.4,0.2-1.8,0.8c-0.9,1.2-0.9,2.9,0,4.1c0.5,0.5,1.1,0.8,1.8,0.8S1139.2,443,1139.7,442.5z"/>
<path class="st1" d="M1143.9,433.4h1.5v1.4h-1.5V433.4z M1144,444.5v-7.8h1.3v7.8H1144z"/>
<path class="st0" d="M1292,454.2h-86c-6.6,0-12-5.4-12-12v-10c0-6.6,5.4-12,12-12h86c6.6,0,12,5.4,12,12v10
	C1304,448.9,1298.6,454.2,1292,454.2z"/>
<path class="st1" d="M1246.7,438.5c0.8,1.2,0.7,2.9-0.4,4c-0.8,0.6-1.8,0.8-2.7,0.8h-4.6v-11.1h4.4c0.9-0.1,1.9,0.2,2.6,0.8
	c1,0.9,1.2,2.5,0.5,3.7c-0.3,0.5-0.8,0.8-1.3,1C1245.8,437.7,1246.3,438,1246.7,438.5L1246.7,438.5z M1240.2,437h3
	c0.7,0,1.3-0.1,1.9-0.5c0.4-0.4,0.7-0.9,0.6-1.5c0-1.3-0.8-1.9-2.5-1.9h-3V437z M1245.3,441.6c0.4-0.4,0.7-0.9,0.6-1.5
	c0-1.4-0.8-2-2.5-2h-3.2v4h3.2C1244.1,442.2,1244.8,442,1245.3,441.6z"/>
<path class="st1" d="M1256.2,435.4v7.8h-1.2v-1.4c-0.2,0.5-0.6,0.9-1,1.1c-0.5,0.3-1,0.4-1.6,0.4s-1.3-0.2-1.8-0.5s-1-0.8-1.2-1.4
	c-0.3-0.7-0.4-1.4-0.4-2.1s0.1-1.5,0.4-2.1s0.7-1.1,1.2-1.4c0.5-0.4,1.2-0.5,1.8-0.5c0.6,0,1.1,0.1,1.6,0.4c0.4,0.3,0.8,0.7,1,1.1
	v-1.4H1256.2z M1254.4,441.5c0.5-0.6,0.7-1.4,0.6-2.2c0.1-0.8-0.2-1.6-0.6-2.2c-0.4-0.5-1.1-0.8-1.8-0.8c-0.7,0-1.4,0.3-1.8,0.8
	c-0.5,0.6-0.7,1.4-0.7,2.2c0,0.8,0.2,1.6,0.6,2.2c0.4,0.5,1.1,0.8,1.8,0.8C1253.3,442.3,1253.9,442,1254.4,441.5z"/>
<path class="st1" d="M1258.7,443.2v-11.4h1.3v11.4H1258.7z"/>
<path class="st1" d="M1262.4,443.2v-11.4h1.3v11.4H1262.4z"/>
<path class="st0" d="M1237,411.8h-86c-6.6,0-12-5.4-12-12v-10c0-6.6,5.4-12,12-12h86c6.6,0,12,5.4,12,12v10
	C1249,406.5,1243.6,411.8,1237,411.8z"/>
<path class="st1" d="M1176.5,400.8v-11h6.8v1h-5.6v3.8h5.3v1.1h-5.3v5.1H1176.5z"/>
<path class="st1" d="M1191.5,396.9h-5.7c-0.1,0.8,0.2,1.6,0.7,2.3c0.5,0.5,1.3,0.8,2,0.8c0.9,0,1.8-0.3,2.5-0.9l0.4,0.9
	c-0.4,0.3-0.8,0.6-1.3,0.8c-0.5,0.2-1.1,0.3-1.6,0.3c-1.1,0.1-2.1-0.3-2.9-1.1c-0.7-0.8-1.1-1.9-1-3c0-0.7,0.1-1.5,0.5-2.1
	c0.3-0.6,0.7-1.1,1.3-1.4c0.6-0.3,1.2-0.5,1.9-0.5c0.9-0.1,1.8,0.3,2.4,1c0.6,0.8,0.9,1.8,0.9,2.8L1191.5,396.9z M1186.6,394.4
	c-0.4,0.5-0.7,1-0.8,1.7h4.6c0-0.6-0.3-1.2-0.7-1.7c-0.4-0.4-0.9-0.6-1.5-0.6S1187,394,1186.6,394.4z"/>
<path class="st1" d="M1195,394v4.3c0,0.4,0.1,0.9,0.4,1.2c0.3,0.2,0.6,0.4,1,0.4c0.3,0,0.6,0,0.8-0.1v1.1c-0.3,0.1-0.7,0.2-1.1,0.2
	c-0.6,0-1.3-0.2-1.8-0.6c-0.5-0.5-0.7-1.2-0.6-1.9V394h-1.6v-1h1.5v-2l1.3-0.5v2.5h2.2v1H1195z"/>
<path class="st1" d="M1200,400.5c-0.6-0.3-1-0.8-1.3-1.4c-0.3-0.7-0.5-1.4-0.5-2.1s0.1-1.5,0.5-2.1c0.3-0.6,0.8-1.1,1.3-1.4
	c0.6-0.3,1.3-0.5,2-0.5c0.5,0,1,0.1,1.5,0.3c0.5,0.2,0.9,0.4,1.2,0.8l-0.4,0.9c-0.4-0.3-0.7-0.5-1.2-0.7c-0.4-0.1-0.7-0.2-1.1-0.2
	c-0.7,0-1.4,0.3-1.9,0.8c-0.9,1.3-0.9,3.1,0,4.4c0.5,0.5,1.2,0.8,1.9,0.8c0.4,0,0.8-0.1,1.1-0.2c0.4-0.2,0.8-0.4,1.2-0.7l0.4,0.9
	c-0.4,0.3-0.8,0.6-1.2,0.7c-0.5,0.2-1,0.3-1.6,0.3C1201.3,401,1200.6,400.8,1200,400.5L1200,400.5z"/>
<path class="st1" d="M1213.2,395.9v4.9h-1.3V396c0-0.6-0.1-1.1-0.4-1.6c-0.4-0.4-0.9-0.5-1.4-0.5c-0.6,0-1.3,0.2-1.7,0.7
	c-0.4,0.5-0.7,1.1-0.7,1.8v4.5h-1.3v-11.4h1.3v4.9c0.2-0.5,0.6-0.8,1.1-1.1c0.5-0.2,1-0.4,1.6-0.4
	C1212.2,392.8,1213.2,393.9,1213.2,395.9L1213.2,395.9z"/>
<path class="st0" d="M1108,408.1h-86c-6.6,0-12-5.4-12-12v-10c0-6.6,5.4-12,12-12h86c6.6,0,12,5.4,12,12l0,0v10
	C1120,402.8,1114.6,408.1,1108,408.1L1108,408.1z"/>
<path class="st1" d="M1056.8,391.3v5.1c-0.5,0.3-1.1,0.4-1.7,0.5c-0.7,0.1-1.4,0.2-2.1,0.2c-1,0-2-0.2-2.8-0.7
	c-0.8-0.5-1.4-1.2-1.8-2c-0.4-0.9-0.7-2-0.6-3c0-1,0.2-2.1,0.6-3c0.4-0.8,1-1.5,1.8-2c0.8-0.5,1.8-0.7,2.8-0.7
	c0.7,0,1.5,0.1,2.1,0.4c0.6,0.2,1.2,0.6,1.7,1l-0.5,1c-0.5-0.4-1-0.8-1.6-1s-1.1-0.3-1.7-0.3c-1.1-0.1-2.1,0.4-2.9,1.2
	c-1.4,2.1-1.4,4.7,0,6.8c0.8,0.8,1.9,1.3,3,1.2c0.9,0,1.8-0.1,2.7-0.4v-3.4h-2.8v-1L1056.8,391.3z"/>
<path class="st1" d="M1063.6,389.2v1.1c-0.3-0.1-0.5-0.1-0.8-0.1c-0.6,0-1.3,0.2-1.7,0.7s-0.6,1.1-0.5,1.7v4.5h-1.3v-5.6
	c0-0.7,0-1.5-0.1-2.2h1.2l0.1,1.4c0.2-0.5,0.5-0.9,0.9-1.2c0.4-0.3,1-0.4,1.5-0.4C1063.1,389.1,1063.3,389.1,1063.6,389.2z"/>
<path class="st1" d="M1071.6,389.3v7.8h-1.2v-1.4c-0.2,0.5-0.6,0.9-1,1.1c-0.5,0.3-1,0.4-1.6,0.4s-1.3-0.2-1.8-0.5s-1-0.8-1.2-1.4
	c-0.3-0.7-0.4-1.4-0.4-2.1s0.1-1.5,0.4-2.1c0.3-0.6,0.7-1.1,1.2-1.4c0.5-0.4,1.2-0.5,1.8-0.5s1.1,0.1,1.6,0.4c0.4,0.3,0.8,0.7,1,1.1
	v-1.4H1071.6z M1069.7,395.4c0.8-1.4,0.8-3.1,0-4.5c-0.9-1-2.4-1.1-3.4-0.2c-0.1,0-0.1,0.1-0.2,0.2c-0.9,1.4-0.9,3.1,0,4.4
	c0.4,0.5,1.1,0.8,1.8,0.8C1068.6,396.2,1069.3,395.9,1069.7,395.4L1069.7,395.4z"/>
<path class="st1" d="M1073.5,396.2l0.4-0.9c0.4,0.3,0.8,0.5,1.3,0.7s1,0.2,1.5,0.2s0.9-0.1,1.3-0.3c0.3-0.2,0.5-0.5,0.5-0.9
	c0-0.3-0.1-0.6-0.3-0.8c-0.3-0.2-0.6-0.4-1-0.4l-1.3-0.3c-0.6-0.1-1.1-0.4-1.5-0.8c-0.3-0.4-0.5-0.8-0.5-1.3c0-0.7,0.3-1.3,0.8-1.7
	c0.6-0.5,1.4-0.7,2.2-0.6c0.5,0,1.1,0.1,1.6,0.3c0.5,0.2,0.9,0.4,1.2,0.8l-0.4,0.9c-0.7-0.6-1.5-0.9-2.4-0.9c-0.5,0-0.9,0.1-1.3,0.3
	c-0.3,0.2-0.5,0.5-0.5,0.9c0,0.3,0.1,0.6,0.3,0.8c0.3,0.2,0.6,0.4,0.9,0.4l1.3,0.3c0.6,0.1,1.2,0.4,1.6,0.8s0.5,0.9,0.5,1.4
	c0,0.6-0.3,1.2-0.8,1.6c-0.7,0.4-1.4,0.7-2.2,0.6C1075.5,397.3,1074.4,396.9,1073.5,396.2L1073.5,396.2z"/>
<path class="st1" d="M1081.2,396.2l0.4-0.9c0.4,0.3,0.8,0.5,1.3,0.7s1,0.2,1.5,0.2s0.9-0.1,1.3-0.3c0.3-0.2,0.5-0.5,0.5-0.9
	c0-0.3-0.1-0.6-0.3-0.8c-0.3-0.2-0.6-0.4-1-0.4l-1.3-0.3c-0.6-0.1-1.1-0.4-1.5-0.8c-0.3-0.4-0.5-0.8-0.5-1.3c0-0.7,0.3-1.3,0.8-1.7
	c0.6-0.5,1.4-0.7,2.2-0.6c0.5,0,1.1,0.1,1.5,0.3c0.5,0.2,0.9,0.4,1.2,0.8l-0.4,0.9c-0.7-0.6-1.5-0.9-2.4-0.9c-0.5,0-0.9,0.1-1.3,0.3
	c-0.3,0.2-0.5,0.5-0.5,0.9c0,0.3,0.1,0.6,0.3,0.8c0.3,0.2,0.6,0.4,0.9,0.4l1.3,0.3c0.6,0.1,1.2,0.4,1.6,0.8s0.5,0.9,0.5,1.4
	c0,0.6-0.3,1.2-0.8,1.6c-0.7,0.4-1.4,0.7-2.2,0.6C1083.2,397.3,1082.1,396.9,1081.2,396.2L1081.2,396.2z"/>
<path class="st0" d="M1171,365.7h-86c-6.6,0-12-5.4-12-12v-10c0-6.6,5.4-12,12-12h86c6.6,0,12,5.4,12,12v10
	C1183,360.4,1177.6,365.7,1171,365.7z"/>
<path class="st1" d="M1116.4,354.7v-11.1h4.2c0.6,0,1.1,0,1.7,0.1c0.5,0.1,1,0.2,1.4,0.5s0.7,0.6,0.9,1.1c0.2,0.5,0.3,1,0.3,1.5
	c0,0.9-0.3,1.7-0.9,2.4c-0.9,0.8-2.1,1.1-3.3,1h-2.8v4.5H1116.4z M1117.9,348.9h2.9c0.7,0.1,1.4-0.1,2-0.5c0.4-0.4,0.6-0.9,0.6-1.5
	c0-0.4-0.1-0.8-0.3-1.2c-0.2-0.3-0.6-0.6-0.9-0.7c-0.5-0.1-0.9-0.1-1.4-0.1h-2.8L1117.9,348.9z"/>
<path class="st1" d="M1126.6,354.7v-11.1h1.4v11.1H1126.6z"/>
<path class="st1" d="M1135.3,353.7c-0.4,0.4-0.9,0.7-1.5,0.9c-0.5,0.2-1,0.3-1.5,0.3c-0.7,0-1.4-0.2-2-0.6c-0.5-0.4-0.7-1-0.7-1.6
	c0-0.4,0.1-0.7,0.3-1.1c0.2-0.3,0.4-0.6,0.7-0.8c0.3-0.2,0.6-0.4,1-0.5s0.8-0.2,1.2-0.2c0.8-0.1,1.6-0.2,2.4-0.5c0-0.2,0-0.3,0-0.4
	c0-0.4-0.1-0.9-0.4-1.2c-0.4-0.3-1-0.5-1.6-0.5c-0.5,0-1,0.1-1.4,0.3c-0.4,0.3-0.6,0.7-0.7,1.2l-1.3-0.2c0.1-0.5,0.3-1,0.6-1.4
	c0.3-0.4,0.7-0.7,1.2-0.8c0.6-0.2,1.2-0.3,1.8-0.3c0.6,0,1.1,0.1,1.7,0.2c0.4,0.1,0.7,0.3,1,0.6c0.2,0.3,0.4,0.6,0.4,0.9
	c0.1,0.4,0.1,0.8,0.1,1.2v1.8c0,0.8,0,1.6,0.1,2.4c0.1,0.4,0.2,0.7,0.3,1h-1.4C1135.5,354.4,1135.4,354.1,1135.3,353.7L1135.3,353.7
	z M1135.2,350.7c-0.7,0.3-1.5,0.4-2.2,0.5c-0.4,0-0.8,0.1-1.2,0.3c-0.2,0.1-0.4,0.2-0.5,0.4c-0.1,0.2-0.2,0.4-0.2,0.6
	c0,0.3,0.1,0.7,0.4,0.9c0.3,0.3,0.8,0.4,1.2,0.4c0.5,0,1-0.1,1.4-0.3c0.4-0.2,0.7-0.6,0.9-1c0.2-0.4,0.2-0.9,0.2-1.4L1135.2,350.7z"
	/>
<path class="st1" d="M1138.6,357.8l-0.2-1.3c0.3,0.1,0.5,0.1,0.8,0.1s0.5,0,0.7-0.1s0.3-0.3,0.4-0.4c0.2-0.3,0.3-0.7,0.4-1
	c0-0.1,0.1-0.2,0.1-0.3l-3.1-8.1h1.5l1.7,4.7c0.2,0.6,0.4,1.2,0.6,1.9c0.2-0.6,0.3-1.2,0.6-1.8l1.7-4.7h1.4l-3.1,8.2
	c-0.2,0.6-0.5,1.2-0.8,1.8c-0.2,0.4-0.5,0.7-0.8,1c-0.3,0.2-0.7,0.3-1.1,0.3C1139.2,358,1138.9,357.9,1138.6,357.8L1138.6,357.8z"/>
<path class="st2" d="M1049.9,464c0-2.8,2.2-5,5-5h142.7c2.8,0,5,2.2,5,5s-2.2,5-5,5h-142.7C1052.2,469,1049.9,466.7,1049.9,464
	L1049.9,464z"/>
<path class="st3" d="M212.8,529.1h1393.1c2.7,0,4.8,2.2,4.8,4.8v16.6c0,2.7-2.2,4.8-4.8,4.8H212.8c-2.7,0-4.8-2.2-4.8-4.8V534
	C208,531.3,210.1,529.1,212.8,529.1z"/>
<path class="st4" d="M243.3,642.3c0-3.5,4.5-6.4,10-6.4h1323.3c5.5,0,10,2.9,10,6.4s-4.5,6.4-10,6.4H253.3
	C247.8,648.7,243.3,645.8,243.3,642.3L243.3,642.3z"/>
<circle class="st5" cx="727.1" cy="499.6" r="18.2"/>
<circle class="st5" cx="641.4" cy="499.6" r="18.2"/>
<circle class="st5" cx="555.8" cy="499.6" r="18.2"/>
<circle class="st5" cx="470.1" cy="499.6" r="18.2"/>
<circle class="st5" cx="384.4" cy="499.6" r="18.2"/>
<circle class="st5" cx="298.8" cy="499.6" r="18.2"/>
<circle class="st5" cx="213.1" cy="499.6" r="18.2"/>
<circle class="st5" cx="1604.8" cy="499.3" r="18.2"/>
<circle class="st5" cx="1519.2" cy="499.3" r="18.2"/>
<circle class="st5" cx="1433.5" cy="499.3" r="18.2"/>
<circle class="st5" cx="1347.8" cy="499.3" r="18.2"/>
<circle class="st5" cx="1262.2" cy="499.3" r="18.2"/>
<circle class="st5" cx="1176.5" cy="499.3" r="18.2"/>
<circle class="st5" cx="1090.8" cy="499.3" r="18.2"/>
<path class="st6" d="M1608,529.1H214.2c-6.6,0-27.3-2.3-27.3-26.9c0-24.6,18.4-26.8,25-26.8l1394.8-0.1c9.2,0.9,25.8,7,25.8,24.3
	C1632.5,518.8,1620.7,529.1,1608,529.1L1608,529.1z"/>
<path class="st7" d="M889,146h26.7c-5.9,27.5-6.7,90.3-5.9,111c0.9,22,0,93,5.9,138.5H889c5.7-34,5-107.5,5.7-138.5
	S895.5,168.5,889,146L889,146z"/>
<path class="st8" d="M889,23.6c0,0,6.3-7.8,11.9-10c8.3-3.4,17.1-5.6,26-6.7l0.5-0.1c0,0-18.6,5.5-26.5,9.4
	C897.8,17.8,889,23.6,889,23.6z"/>
<path class="st9" d="M892.7,123.5c3.4,12-11.9,26.9-34.3,33.4s-37.5,9.6-40.9-2.4c-1.9-6.6-3.5-20.5,1.9-30.4
	c3.9-7.1,15.2-11.3,25.2-14.2C867.1,103.5,889.3,111.5,892.7,123.5L892.7,123.5z"/>
<path class="st10" d="M819.2,131.3c0-5.3,2.9-10.3,7.5-12.9c8-4.8,21.6-7.9,21.6-7.9c-7.4,3.2-10.4,3.9-19.3,11
	C821.2,127.6,819.2,131.3,819.2,131.3L819.2,131.3z"/>
<circle class="st7" cx="900.5" cy="92.8" r="63.7"/>
<path class="st11" d="M878.7,93.5c0,22.5,15.6,43.7-6.9,43.7c-14.8,0-30.2-21.2-30.2-43.7s7.4-37.3,31-36.6
	C897.2,57.7,878.7,70.9,878.7,93.5L878.7,93.5z"/>
<path class="st12" d="M917.6,103.4c-14.4,18.3-13.6,38.1-5,45.5s25.5-1.9,36-14.2s20.8-38.2,12.2-45.6S930.9,86.5,917.6,103.4
	L917.6,103.4z"/>
<path class="st8" d="M920.6,32.3c0,0-11.2,1.4-15.5,3.7c-5.3,2.8-9.9,7.6-15.8,8.6c-10.7,1.9-19.9,0.5-20.6-3.2
	c-0.7-3.7,8.8-8.8,19.6-11.1C905,26.6,920.6,32.3,920.6,32.3z"/>
<path class="st13" d="M923.7,107.4c-12.3,15.5-10.5,29.8-3.2,36s19.4,0.8,28.2-9.6s16.4-28.5,9.1-34.7S933.3,95.3,923.7,107.4z"/>
<path class="st14" d="M972.4,148.9c-4.4,17.4-19.1,27.6-37.6,19.4c-13.1-5.8-9.2-22,0.3-37.3s24-28.5,33.8-18.1
	C976.7,121.2,975.5,136.6,972.4,148.9z"/>
<ellipse transform="matrix(0.1239 -0.9923 0.9923 0.1239 705.9957 1073.4583)" class="st15" cx="960.9" cy="136.9" rx="19.2" ry="12.9"/>
<radialGradient id="SVGID_1_" cx="1113.8104" cy="751.6531" r="11.6898" gradientTransform="matrix(0 -1 -0.9 0 1640.2037 1251.2163)" gradientUnits="userSpaceOnUse">
	<stop  offset="0" style="stop-color:#29AFCF"/>
	<stop  offset="0.18" style="stop-color:#28A8C8"/>
	<stop  offset="0.36" style="stop-color:#2497B3"/>
	<stop  offset="0.55" style="stop-color:#1F7C94"/>
	<stop  offset="0.74" style="stop-color:#175C6E"/>
	<stop  offset="0.93" style="stop-color:#103A48"/>
	<stop  offset="1" style="stop-color:#0D2F3A"/>
</radialGradient>
<path class="st16" d="M972.9,138.5c-0.9,7.5-5.8,13.1-10.8,12.5s-8.4-7.2-7.4-14.8s5.8-13.1,10.8-12.5S973.8,131,972.9,138.5z"/>
<radialGradient id="SVGID_2_" cx="1151.7716" cy="765.1617" r="12.31" gradientTransform="matrix(-0.17 -0.92 -1.02 0.27 1839.7919 957.8293)" gradientUnits="userSpaceOnUse">
	<stop  offset="0" style="stop-color:#29AFCF"/>
	<stop  offset="0.18" style="stop-color:#28A8C8"/>
	<stop  offset="0.36" style="stop-color:#2497B3"/>
	<stop  offset="0.55" style="stop-color:#1F7C94"/>
	<stop  offset="0.74" style="stop-color:#175C6E"/>
	<stop  offset="0.93" style="stop-color:#103A48"/>
	<stop  offset="1" style="stop-color:#0D2F3A"/>
</radialGradient>
<path class="st17" d="M871.7,100c3.3,6.2,1.3,13.7-4.3,16.6s-12.9,0.3-16.1-5.9S850,97,855.6,94.1S868.4,93.7,871.7,100z"/>
<path class="st7" d="M922.2,5.3c0.9,2.7-9.5,4.5-18.2,7.2c-9.9,3.1-13,11.8-20.8,14.5c-14.9,5.2-20.9,2-22.9-3.7s8.5-14.5,23.4-19.6
	S920.3-0.4,922.2,5.3z"/>
<path class="st18" d="M901.5,0.5c1.4-0.3,32.3-2.4,30.2,4.6c-0.6,2.1-8.5,1.5-15.4,3.9c-1.7-1.5-3.6-2.8-5.6-3.9
	c-2.1-1.1-4.3-2.1-6.6-2.9c0,0-3.2,2.4-8.2,6.8S885,18.7,885,18.7c2.3-4.2,5.3-8.1,8.8-11.3c2.9-2.3,6-4.3,9.3-5.9L901.5,0.5z"/>
<path class="st19" d="M913.7,58.1l17.8-6.7c0.7,0.9,9.4,3.3,12.2,18.2c-11.7-2.9-19.6-1.8-19.6-1.8c-0.6-1.7-1.5-3.3-2.8-4.7
	C919,61.2,916.4,59.5,913.7,58.1L913.7,58.1z"/>
<path class="st7" d="M1050.6,610H766.2c-6.6,0-12-5.4-12-12V216.2c0-6.6,5.4-12,12-12h284.4c6.6,0,12,5.4,12,12V598
	C1062.6,604.7,1057.2,610,1050.6,610z"/>
<circle class="st15" cx="809.9" cy="274.1" r="23.5"/>
<circle class="st15" cx="901.3" cy="274.1" r="23.5"/>
<circle class="st15" cx="991.2" cy="274.1" r="23.5"/>
<radialGradient id="SVGID_3_" cx="814.55" cy="-161.5036" r="18.6375" gradientTransform="matrix(1 0 0 -1 -4.65 112.6228)" gradientUnits="userSpaceOnUse">
	<stop  offset="0" style="stop-color:#29AFCF"/>
	<stop  offset="0.18" style="stop-color:#28A8C8"/>
	<stop  offset="0.36" style="stop-color:#2497B3"/>
	<stop  offset="0.55" style="stop-color:#1F7C94"/>
	<stop  offset="0.74" style="stop-color:#175C6E"/>
	<stop  offset="0.93" style="stop-color:#103A48"/>
	<stop  offset="1" style="stop-color:#0D2F3A"/>
</radialGradient>
<circle class="st20" cx="809.9" cy="274.1" r="18.7"/>
<radialGradient id="SVGID_4_" cx="799.0849" cy="-408.9036" r="5.75" gradientTransform="matrix(1 0 0 -1 -4.65 112.6228)" gradientUnits="userSpaceOnUse">
	<stop  offset="0" style="stop-color:#29AFCF"/>
	<stop  offset="0.18" style="stop-color:#28A8C8"/>
	<stop  offset="0.36" style="stop-color:#2497B3"/>
	<stop  offset="0.55" style="stop-color:#1F7C94"/>
	<stop  offset="0.74" style="stop-color:#175C6E"/>
	<stop  offset="0.93" style="stop-color:#103A48"/>
	<stop  offset="1" style="stop-color:#0D2F3A"/>
</radialGradient>
<circle class="st21" cx="794.5" cy="521.5" r="5.7"/>
<radialGradient id="SVGID_5_" cx="831.4649" cy="-408.9036" r="5.75" gradientTransform="matrix(1 0 0 -1 -4.65 112.6228)" gradientUnits="userSpaceOnUse">
	<stop  offset="0" style="stop-color:#29AFCF"/>
	<stop  offset="0.18" style="stop-color:#28A8C8"/>
	<stop  offset="0.36" style="stop-color:#2497B3"/>
	<stop  offset="0.55" style="stop-color:#1F7C94"/>
	<stop  offset="0.74" style="stop-color:#175C6E"/>
	<stop  offset="0.93" style="stop-color:#103A48"/>
	<stop  offset="1" style="stop-color:#0D2F3A"/>
</radialGradient>
<circle class="st22" cx="826.8" cy="521.5" r="5.7"/>
<radialGradient id="SVGID_6_" cx="863.85" cy="-408.9036" r="5.7525" gradientTransform="matrix(1 0 0 -1 -4.65 112.6228)" gradientUnits="userSpaceOnUse">
	<stop  offset="0" style="stop-color:#29AFCF"/>
	<stop  offset="0.18" style="stop-color:#28A8C8"/>
	<stop  offset="0.36" style="stop-color:#2497B3"/>
	<stop  offset="0.55" style="stop-color:#1F7C94"/>
	<stop  offset="0.74" style="stop-color:#175C6E"/>
	<stop  offset="0.93" style="stop-color:#103A48"/>
	<stop  offset="1" style="stop-color:#0D2F3A"/>
</radialGradient>
<circle class="st23" cx="859.2" cy="521.5" r="5.7"/>
<radialGradient id="SVGID_7_" cx="896.2249" cy="-408.9036" r="5.75" gradientTransform="matrix(1 0 0 -1 -4.65 112.6228)" gradientUnits="userSpaceOnUse">
	<stop  offset="0" style="stop-color:#29AFCF"/>
	<stop  offset="0.18" style="stop-color:#28A8C8"/>
	<stop  offset="0.36" style="stop-color:#2497B3"/>
	<stop  offset="0.55" style="stop-color:#1F7C94"/>
	<stop  offset="0.74" style="stop-color:#175C6E"/>
	<stop  offset="0.93" style="stop-color:#103A48"/>
	<stop  offset="1" style="stop-color:#0D2F3A"/>
</radialGradient>
<circle class="st24" cx="891.6" cy="521.5" r="5.7"/>
<radialGradient id="SVGID_8_" cx="928.6249" cy="-408.9036" r="5.74" gradientTransform="matrix(1 0 0 -1 -4.65 112.6228)" gradientUnits="userSpaceOnUse">
	<stop  offset="0" style="stop-color:#29AFCF"/>
	<stop  offset="0.18" style="stop-color:#28A8C8"/>
	<stop  offset="0.36" style="stop-color:#2497B3"/>
	<stop  offset="0.55" style="stop-color:#1F7C94"/>
	<stop  offset="0.74" style="stop-color:#175C6E"/>
	<stop  offset="0.93" style="stop-color:#103A48"/>
	<stop  offset="1" style="stop-color:#0D2F3A"/>
</radialGradient>
<circle class="st25" cx="924" cy="521.5" r="5.7"/>
<radialGradient id="SVGID_9_" cx="906.15" cy="-161.5036" r="18.6725" gradientTransform="matrix(1 0 0 -1 -4.65 112.6228)" gradientUnits="userSpaceOnUse">
	<stop  offset="0" style="stop-color:#29AFCF"/>
	<stop  offset="0.18" style="stop-color:#28A8C8"/>
	<stop  offset="0.36" style="stop-color:#2497B3"/>
	<stop  offset="0.55" style="stop-color:#1F7C94"/>
	<stop  offset="0.74" style="stop-color:#175C6E"/>
	<stop  offset="0.93" style="stop-color:#103A48"/>
	<stop  offset="1" style="stop-color:#0D2F3A"/>
</radialGradient>
<circle class="st26" cx="901.5" cy="274.1" r="18.7"/>
<radialGradient id="SVGID_10_" cx="995.85" cy="-161.5036" r="18.6725" gradientTransform="matrix(1 0 0 -1 -4.65 112.6228)" gradientUnits="userSpaceOnUse">
	<stop  offset="0" style="stop-color:#29AFCF"/>
	<stop  offset="0.18" style="stop-color:#28A8C8"/>
	<stop  offset="0.36" style="stop-color:#2497B3"/>
	<stop  offset="0.55" style="stop-color:#1F7C94"/>
	<stop  offset="0.74" style="stop-color:#175C6E"/>
	<stop  offset="0.93" style="stop-color:#103A48"/>
	<stop  offset="1" style="stop-color:#0D2F3A"/>
</radialGradient>
<circle class="st27" cx="991.2" cy="274.1" r="18.7"/>
<path class="st15" d="M917.7,405.4H800c-6.6,0-12-5.4-12-12v-54.6c0-6.6,5.4-12,12-12h117.7c6.6,0,12,5.4,12,12v54.6
	C929.7,400.1,924.3,405.4,917.7,405.4z"/>
<path class="st28" d="M910.2,399.4H807.1c-6.6,0-12-5.4-12-12v-42.2c0-6.6,5.4-12,12-12h103.1c6.6,0,12,5.4,12,12v42.2
	C922.2,394.1,916.8,399.4,910.2,399.4z"/>
<path class="st29" d="M795.1,353h28.6l5.9-7.7l5.3,16.8l9-19.2l7.4,9.6h20.2l7.3-7.9l5.2,17.3l6.5-22.1l4.5,9l5.5,10.9l7.4-7.4h14.3
	"/>
<path class="st30" d="M922.2,379.6h-28.6l-5.7,15.7l-7.4-23.6l-6,18.5l-8.5-11.1h-20.2l-3-7.6l-8.6,20l-7.4-25.1l-4.5,9l-5.5,10.9
	l-7.3-7.4h-14.4"/>
<path class="st15" d="M917.5,508H799.8c-6.6,0-12-5.4-12-12v-54.6c0-6.6,5.4-12,12-12h117.7c6.6,0,12,5.4,12,12V496
	C929.5,502.7,924.1,508,917.5,508z"/>
<path class="st19" d="M910,502H806.9c-6.6,0-12-5.4-12-12v-42.2c0-6.6,5.4-12,12-12H910c6.6,0,12,5.4,12,12V490
	C922,496.7,916.6,502,910,502z"/>
<path class="st29" d="M801.1,450.1h115.6"/>
<path class="st30" d="M800.6,468.7h115.6"/>
<path class="st31" d="M800.1,487.2h115.7"/>
<path class="st29" d="M818.4,442.1v14.7"/>
<path class="st30" d="M892.3,461.6v14.6"/>
<path class="st31" d="M841,479.9v14.7"/>
<circle class="st0" cx="858.4" cy="417.4" r="4.6"/>
<circle class="st32" cx="836" cy="417.4" r="4.6"/>
<circle class="st33" cx="879.9" cy="417.4" r="4.6"/>
<path class="st13" d="M952.2,405.4h-4c-2.5,0-4.5-2-4.5-4.5l0,0v-69.6c0-2.5,2-4.5,4.5-4.5l0,0h4c2.5,0,4.5,2,4.5,4.5l0,0v69.6
	C956.7,403.4,954.7,405.4,952.2,405.4L952.2,405.4z"/>
<path class="st28" d="M792.2,568.6c-1.3,0-2.3-1-2.3-2.3V536c0-1.3,1-2.3,2.3-2.3s2.3,1,2.3,2.3v30.3
	C794.5,567.6,793.4,568.6,792.2,568.6z"/>
<path class="st28" d="M808.2,568.6c-1.3,0-2.3-1-2.3-2.3V536c0-1.3,1-2.3,2.3-2.3s2.3,1,2.3,2.3v30.3
	C810.4,567.6,809.4,568.5,808.2,568.6z"/>
<path class="st28" d="M816.2,568.6c-1.3,0-2.3-1-2.3-2.3V536c0-1.3,1-2.3,2.3-2.3s2.3,1,2.3,2.3v30.3
	C818.4,567.6,817.4,568.5,816.2,568.6z"/>
<path class="st28" d="M800.2,568.6c-1.3,0-2.3-1-2.3-2.3V536c0-1.3,1-2.3,2.3-2.3s2.3,1,2.3,2.3v30.3
	C802.4,567.6,801.4,568.6,800.2,568.6z"/>
<path class="st28" d="M831.7,568.6c-1.3,0-2.3-1-2.3-2.3V536c0-1.3,1-2.3,2.3-2.3s2.3,1,2.3,2.3v30.3
	C834,567.6,832.9,568.6,831.7,568.6z"/>
<path class="st28" d="M847.7,568.6c-1.3,0-2.3-1-2.3-2.3V536c0-1.3,1-2.3,2.3-2.3s2.3,1,2.3,2.3v30.3
	C849.9,567.6,848.9,568.6,847.7,568.6z"/>
<path class="st28" d="M855.7,568.6c-1.3,0-2.3-1-2.3-2.3V536c0-1.3,1-2.3,2.3-2.3s2.3,1,2.3,2.3v30.3
	C857.9,567.6,856.9,568.5,855.7,568.6z"/>
<path class="st28" d="M839.7,568.6c-1.3,0-2.3-1-2.3-2.3V536c0-1.3,1-2.3,2.3-2.3s2.3,1,2.3,2.3v30.3
	C842,567.6,840.9,568.6,839.7,568.6z"/>
<path class="st28" d="M871.2,568.6c-1.3,0-2.3-1-2.3-2.3V536c0-1.3,1-2.3,2.3-2.3s2.3,1,2.3,2.3v30.3
	C873.5,567.6,872.4,568.6,871.2,568.6z"/>
<path class="st28" d="M887.2,568.6c-1.3,0-2.3-1-2.3-2.3V536c0-1.2,1-2.2,2.2-2.3c1.3,0,2.3,1,2.3,2.3v30.3c0.1,1.2-0.9,2.2-2.1,2.3
	C887.3,568.6,887.2,568.6,887.2,568.6z"/>
<path class="st28" d="M895.2,568.6c-1.3,0-2.3-1-2.3-2.3V536c0-1.3,1-2.3,2.3-2.3s2.3,1,2.3,2.3v30.3
	C897.4,567.6,896.4,568.6,895.2,568.6z"/>
<path class="st28" d="M879.2,568.6c-1.3,0-2.3-1-2.3-2.3V536c0-1.3,1-2.3,2.3-2.3s2.3,1,2.3,2.3v30.3
	C881.5,567.6,880.4,568.6,879.2,568.6z"/>
<path class="st13" d="M978.5,405.7h-4c-2.5,0-4.5-2-4.5-4.5l0,0v-69.6c0-2.5,2-4.5,4.5-4.5l0,0h4c2.5,0,4.5,2,4.5,4.5l0,0v69.6
	C982.9,403.7,980.9,405.7,978.5,405.7z"/>
<path class="st13" d="M1004.7,405.9h-4c-2.5,0-4.5-2-4.5-4.5l0,0v-69.6c0-2.5,2-4.5,4.5-4.5l0,0h4c2.5,0,4.5,2,4.5,4.5l0,0v69.6
	C1009.2,403.9,1007.2,405.9,1004.7,405.9L1004.7,405.9z"/>
<path class="st13" d="M1031,406.1h-4c-2.5,0-4.5-2-4.5-4.5l0,0V332c0-2.5,2-4.5,4.5-4.5l0,0h4c2.5,0,4.5,2,4.5,4.5l0,0v69.6
	C1035.4,404.1,1033.4,406.1,1031,406.1z"/>
<path class="st19" d="M949.9,366.8c-2.4,0-4.3-1.9-4.3-4.2c0,0,0,0,0-0.1v-44.7c0-2.4,1.9-4.3,4.3-4.3c2.4,0,4.3,1.9,4.3,4.3v44.7
	C954.2,364.9,952.2,366.8,949.9,366.8z"/>
<path class="st19" d="M1002.7,366.8c-2.4,0-4.3-1.9-4.3-4.2c0,0,0,0,0-0.1v-44.7c0-2.4,1.9-4.3,4.2-4.3c0,0,0,0,0.1,0
	c2.4,0,4.3,1.9,4.3,4.3v44.7C1007,364.9,1005.1,366.8,1002.7,366.8L1002.7,366.8z"/>
<path class="st19" d="M1029,366.8c-2.4,0-4.3-1.9-4.3-4.2c0,0,0,0,0-0.1v-44.7c0-2.4,1.9-4.3,4.2-4.3c0,0,0,0,0.1,0
	c2.4,0,4.3,1.9,4.3,4.3v44.7C1033.3,364.9,1031.3,366.8,1029,366.8z"/>
<path class="st19" d="M976.5,420.2c-2.4,0-4.3-1.9-4.3-4.3v-44.7c0-2.4,1.9-4.3,4.2-4.3c0,0,0,0,0.1,0c2.4,0,4.3,1.9,4.3,4.3v44.7
	C980.8,418.3,978.8,420.2,976.5,420.2z"/>
<circle class="st33" cx="976.5" cy="420.2" r="8.6"/>
<circle class="st33" cx="1029" cy="313.4" r="8.6"/>
<circle class="st0" cx="1002.8" cy="313.4" r="8.6"/>
<circle class="st0" cx="950.2" cy="313.4" r="8.6"/>
<path class="st34" d="M1085.4,648.9h-354v-57.5c0-6.6,5.4-12,12-12h330c6.6,0,12,5.4,12,12V648.9z"/>
<path class="st35" d="M352.2,555.4v89.5"/>
<path class="st35" d="M421.1,555.4v87.1"/>
<path class="st35" d="M1399,555.4v88.2"/>
<path class="st35" d="M1467.9,555.4V641"/>
<g transform="translate(-4.65 -12.17)">
	<path class="st0" d="M1445,468.1h-86c-6.6,0-12-5.4-12-12v-10c0-6.6,5.4-12,12-12h86c6.6,0,12,5.4,12,12v10
		C1457,462.7,1451.7,468.1,1445,468.1z"/>
	<path class="st1" d="M1383,445h4.4c1-0.1,1.9,0.2,2.7,0.8c0.7,0.6,1,1.4,1,2.3s-0.3,1.7-1,2.3c-0.8,0.6-1.7,0.9-2.7,0.8h-3.1v4.9
		h-1.3V445z M1387.3,450.1c0.7,0.1,1.3-0.1,1.8-0.5c0.4-0.4,0.7-1,0.6-1.5c0-0.6-0.2-1.1-0.6-1.5c-0.5-0.4-1.2-0.6-1.8-0.5h-3v4.1h3
		V450.1z"/>
	<path class="st1" d="M1399.4,448.3v7.8h-1.2v-1.4c-0.2,0.5-0.6,0.8-1,1.1c-0.5,0.2-1,0.4-1.5,0.4c-0.8,0.1-1.5-0.2-2.1-0.8
		c-0.5-0.6-0.8-1.5-0.7-2.3v-4.8h1.2v4.8c0,0.6,0.1,1.1,0.4,1.6c0.3,0.4,0.8,0.5,1.3,0.5c0.6,0,1.2-0.2,1.7-0.7
		c0.4-0.5,0.7-1.1,0.6-1.8v-4.4L1399.4,448.3z"/>
	<path class="st1" d="M1407.5,448.6c0.5,0.4,1,0.9,1.2,1.4c0.3,0.7,0.5,1.4,0.4,2.1c0,0.7-0.1,1.5-0.4,2.1s-0.7,1.1-1.2,1.4
		s-1.2,0.5-1.8,0.5c-0.6,0-1.1-0.1-1.6-0.4c-0.4-0.3-0.8-0.7-1-1.1v4.8h-1.3v-9c0-0.7,0-1.5-0.1-2.2h1.2l0.1,1.5
		c0.2-0.5,0.5-0.9,1-1.2c0.5-0.3,1.1-0.5,1.7-0.4C1406.3,448,1407,448.2,1407.5,448.6z M1407.3,454.4c0.8-1.4,0.8-3.1,0-4.4
		c-0.4-0.5-1.1-0.8-1.8-0.8c-0.7,0-1.3,0.2-1.8,0.8c-0.8,1.4-0.8,3.1,0,4.5c0.4,0.5,1.1,0.8,1.8,0.8
		C1406.2,455.2,1406.8,454.9,1407.3,454.4L1407.3,454.4z"/>
	<path class="st1" d="M1416.8,448.6c0.5,0.4,1,0.9,1.2,1.4c0.3,0.7,0.5,1.4,0.4,2.1c0,0.7-0.1,1.5-0.4,2.1c-0.5,1.2-1.7,1.9-3,1.9
		c-0.6,0-1.1-0.1-1.6-0.4c-0.4-0.3-0.8-0.7-1-1.1v4.8h-1.3v-9c0-0.7,0-1.5-0.1-2.2h1.2l0.1,1.5c0.2-0.5,0.5-0.9,1-1.2
		c0.5-0.3,1.1-0.5,1.7-0.4C1415.7,448,1416.3,448.2,1416.8,448.6z M1416.6,454.4c0.8-1.4,0.8-3.1,0-4.4c-0.4-0.5-1.1-0.8-1.8-0.8
		c-0.7,0-1.3,0.2-1.8,0.8c-0.8,1.4-0.8,3.1,0,4.5c0.4,0.5,1.1,0.8,1.8,0.8C1415.5,455.2,1416.1,454.9,1416.6,454.4L1416.6,454.4z"/>
	<path class="st1" d="M1427.2,448.3l-3.7,8.5c-0.3,0.8-0.8,1.5-1.4,2c-0.6,0.4-1.4,0.7-2.1,0.9l-0.3-1c0.6-0.1,1.2-0.3,1.7-0.7
		c0.4-0.3,0.7-0.8,0.9-1.3l0.3-0.7l-3.3-7.7h1.3l2.6,6.4l2.7-6.4L1427.2,448.3z"/>
	<path class="st0" d="M1565.7,468.1h-86c-6.6,0-12-5.4-12-12v-10c0-6.6,5.4-12,12-12h86c6.6,0,12,5.4,12,12v10
		C1577.7,462.7,1572.4,468.1,1565.7,468.1z"/>
	<path class="st1" d="M1512.7,445h4.4c1-0.1,1.9,0.2,2.7,0.8c0.7,0.6,1,1.4,1,2.3s-0.3,1.7-1,2.3c-0.8,0.6-1.7,0.9-2.7,0.8h-3.1v4.9
		h-1.3V445z M1517,450.1c0.7,0,1.3-0.1,1.8-0.5c0.4-0.4,0.7-1,0.6-1.5c0-0.6-0.2-1.1-0.6-1.5c-0.5-0.4-1.2-0.6-1.8-0.5h-3v4.1h3
		V450.1z"/>
	<path class="st1" d="M1529.1,448.3v7.8h-1.2v-1.4c-0.2,0.5-0.6,0.8-1,1.1c-0.5,0.2-1,0.4-1.5,0.4c-0.8,0.1-1.5-0.2-2.1-0.8
		c-0.5-0.7-0.8-1.5-0.7-2.3v-4.8h1.3v4.8c0,0.6,0.1,1.1,0.4,1.6c0.3,0.4,0.8,0.5,1.3,0.5c0.6,0,1.2-0.2,1.7-0.7
		c0.4-0.5,0.7-1.1,0.6-1.8v-4.4L1529.1,448.3z"/>
	<path class="st1" d="M1538.5,448.3v7.7c0.2,1.7-1,3.3-2.7,3.5c-0.3,0-0.6,0-0.8,0c-1.1,0-2.2-0.3-3.1-0.8l0.2-1
		c0.4,0.3,0.9,0.5,1.4,0.6s1,0.2,1.4,0.2c0.6,0,1.2-0.2,1.7-0.6c0.4-0.5,0.6-1.1,0.6-1.8v-1.9c-0.2,0.5-0.6,0.9-1.1,1.1
		c-0.5,0.3-1.1,0.4-1.6,0.4c-0.6,0-1.3-0.2-1.8-0.5s-1-0.8-1.2-1.4c-0.6-1.3-0.6-2.8,0-4.1c0.3-0.6,0.7-1,1.2-1.4
		c0.6-0.3,1.2-0.5,1.8-0.5c0.6,0,1.1,0.1,1.6,0.4s0.8,0.7,1.1,1.1v-1.4L1538.5,448.3z M1536.6,454c0.9-1.2,0.9-2.9,0-4.1
		c-0.4-0.5-1.1-0.8-1.8-0.8c-0.7,0-1.3,0.2-1.8,0.8c-0.9,1.2-0.9,2.9,0,4.1c0.5,0.5,1.1,0.8,1.8,0.8S1536.1,454.5,1536.6,454
		L1536.6,454z"/>
	<path class="st0" d="M1688.4,466.8h-86c-6.6,0-12-5.4-12-12l0,0v-10c0-6.6,5.4-12,12-12h86c6.6,0,12,5.4,12,12v10
		C1700.4,461.4,1695.1,466.8,1688.4,466.8L1688.4,466.8z"/>
	<path class="st1" d="M1633.8,443.7h1.3v11h-1.3v-5.1h-6.6v5.1h-1.3v-11h1.3v4.9h6.6V443.7z"/>
	<path class="st1" d="M1644.6,446.9v7.8h-1.2v-1.4c-0.2,0.5-0.6,0.9-1,1.1c-0.5,0.3-1,0.4-1.6,0.4s-1.3-0.2-1.8-0.5s-1-0.8-1.2-1.4
		c-0.3-0.7-0.4-1.4-0.4-2.1s0.1-1.5,0.4-2.1s0.7-1.1,1.2-1.4s1.2-0.5,1.8-0.5c0.6,0,1.1,0.1,1.6,0.4c0.4,0.3,0.8,0.7,1,1.1v-1.4
		H1644.6z M1642.7,453c0.5-0.7,0.7-1.4,0.6-2.2c0.1-0.8-0.2-1.6-0.6-2.2c-0.4-0.5-1.1-0.8-1.8-0.8c-0.7,0-1.4,0.3-1.8,0.8
		c-0.5,0.6-0.7,1.4-0.6,2.2c-0.1,0.8,0.2,1.6,0.6,2.2c0.4,0.5,1.1,0.8,1.8,0.8C1641.6,453.9,1642.3,453.5,1642.7,453L1642.7,453z"/>
	<path class="st1" d="M1652.7,447.3c0.5,0.4,1,0.8,1.2,1.4c0.3,0.7,0.4,1.4,0.4,2.1s-0.1,1.5-0.4,2.1c-0.5,1.2-1.7,1.9-3.1,1.9
		c-0.6,0-1.1-0.1-1.6-0.4c-0.4-0.3-0.8-0.7-1-1.1v4.8h-1.2v-9c0-0.7,0-1.5-0.1-2.2h1.2l0.1,1.5c0.2-0.5,0.5-1,1-1.2
		c0.5-0.3,1.1-0.5,1.7-0.4C1651.6,446.7,1652.2,446.9,1652.7,447.3z M1652.5,453c0.5-0.6,0.7-1.4,0.6-2.2c0-0.8-0.2-1.6-0.6-2.2
		c-0.4-0.5-1.1-0.8-1.8-0.8c-0.7,0-1.4,0.2-1.8,0.8c-0.5,0.6-0.7,1.4-0.6,2.2c0,0.8,0.2,1.6,0.6,2.2c0.9,1,2.4,1,3.4,0.1
		C1652.4,453.1,1652.4,453.1,1652.5,453L1652.5,453z"/>
	<path class="st1" d="M1662,447.3c0.5,0.4,1,0.8,1.2,1.4c0.3,0.7,0.5,1.4,0.4,2.1c0,0.7-0.1,1.5-0.4,2.1s-0.7,1.1-1.2,1.4
		s-1.2,0.5-1.8,0.5c-0.6,0-1.1-0.1-1.6-0.4c-0.4-0.3-0.8-0.7-1-1.1v4.8h-1.3v-9c0-0.7,0-1.5-0.1-2.2h1.2l0.1,1.5
		c0.2-0.5,0.5-1,1-1.2c0.5-0.3,1.1-0.5,1.7-0.4C1660.9,446.7,1661.5,446.9,1662,447.3L1662,447.3z M1661.8,453
		c0.5-0.6,0.7-1.4,0.6-2.2c0-0.8-0.2-1.6-0.6-2.2c-0.9-1-2.4-1.1-3.4-0.2c-0.1,0.1-0.1,0.1-0.2,0.2c-0.5,0.6-0.7,1.4-0.6,2.2
		c0,0.8,0.2,1.6,0.6,2.2c0.9,1,2.4,1,3.4,0.1C1661.7,453.1,1661.8,453.1,1661.8,453L1661.8,453z"/>
	<path class="st1" d="M1672.4,446.9l-3.7,8.5c-0.3,0.8-0.8,1.4-1.4,2c-0.6,0.4-1.4,0.7-2.2,0.9l-0.3-1c0.6-0.1,1.2-0.3,1.7-0.7
		c0.4-0.3,0.7-0.8,0.9-1.3l0.3-0.7l-3.3-7.7h1.3l2.6,6.5l2.7-6.5L1672.4,446.9z"/>
	<path class="st0" d="M1633.4,424.4h-86c-6.6,0-12-5.4-12-12v-10c0-6.6,5.4-12,12-12h86c6.6,0,12,5.4,12,12v10
		C1645.4,419,1640.1,424.4,1633.4,424.4z"/>
	<path class="st1" d="M1572.9,412.4h-1.4l-1.4-3.7c-0.1-0.4-0.4-0.7-0.7-0.9c-0.4-0.2-0.8-0.2-1.2-0.2h-2.8v4.8h-1.3v-11.1h4.4
		c1-0.1,1.9,0.2,2.7,0.8c0.7,0.6,1,1.4,1,2.3c0,0.7-0.2,1.3-0.6,1.8s-1,0.9-1.6,1c0.3,0,0.6,0.2,0.8,0.4c0.3,0.3,0.5,0.6,0.6,1
		L1572.9,412.4z M1568.5,406.5c1.7,0,2.6-0.7,2.6-2.1c0-0.6-0.2-1.1-0.6-1.5c-0.6-0.4-1.2-0.6-1.9-0.5h-3v4.1H1568.5z"/>
	<path class="st1" d="M1581.4,404.6v7.8h-1.2V411c-0.2,0.5-0.6,0.8-1,1.1c-0.5,0.3-1,0.4-1.5,0.4c-0.8,0.1-1.5-0.2-2.1-0.8
		c-0.5-0.6-0.8-1.5-0.7-2.3v-4.8h1.3v4.8c0,0.6,0.1,1.1,0.4,1.6c0.3,0.4,0.8,0.5,1.3,0.5c0.6,0,1.2-0.2,1.7-0.7
		c0.4-0.5,0.7-1.1,0.6-1.8v-4.4L1581.4,404.6z"/>
	<path class="st1" d="M1590.5,407.5v4.9h-1.3v-4.8c0-0.6-0.1-1.1-0.4-1.6c-0.4-0.4-0.9-0.5-1.4-0.5c-0.6,0-1.3,0.2-1.7,0.7
		c-0.4,0.5-0.7,1.1-0.7,1.8v4.5h-1.3v-5.6c0-0.7,0-1.5-0.1-2.2h1.2l0.1,1.4c0.2-0.5,0.6-0.9,1.1-1.2c0.5-0.3,1.1-0.4,1.6-0.4
		C1589.6,404.4,1590.5,405.4,1590.5,407.5L1590.5,407.5z"/>
	<path class="st1" d="M1599.6,407.5v4.9h-1.2v-4.8c0-0.6-0.1-1.1-0.4-1.6c-0.4-0.4-0.9-0.5-1.4-0.5c-0.6,0-1.3,0.2-1.7,0.7
		c-0.4,0.5-0.7,1.1-0.7,1.8v4.5h-1.3v-5.6c0-0.7,0-1.5-0.1-2.2h1.2l0.1,1.4c0.2-0.5,0.6-0.9,1.1-1.2c0.5-0.3,1.1-0.4,1.6-0.4
		C1598.7,404.4,1599.6,405.4,1599.6,407.5z"/>
	<path class="st1" d="M1601.8,401.3h1.5v1.4h-1.5V401.3z M1602,412.4v-7.8h1.3v7.8H1602z"/>
	<path class="st1" d="M1612.4,407.5v4.9h-1.3v-4.8c0-0.6-0.1-1.1-0.4-1.6c-0.4-0.4-0.9-0.5-1.4-0.5c-0.6,0-1.3,0.2-1.7,0.7
		c-0.4,0.5-0.7,1.1-0.7,1.8v4.5h-1.2v-5.6c0-0.7,0-1.5-0.1-2.2h1.2l0.1,1.4c0.2-0.5,0.6-0.9,1.1-1.2c0.5-0.3,1.1-0.4,1.6-0.4
		C1611.5,404.4,1612.4,405.4,1612.4,407.5L1612.4,407.5z"/>
	<path class="st1" d="M1621.7,404.6v7.8c0.2,1.7-1,3.3-2.7,3.5c-0.3,0-0.5,0-0.8,0c-1.1,0-2.1-0.2-3.1-0.8l0.2-1
		c0.4,0.3,0.9,0.5,1.4,0.6s1,0.2,1.4,0.2c0.6,0,1.2-0.2,1.7-0.6c0.4-0.5,0.6-1.1,0.6-1.8v-1.9c-0.2,0.5-0.6,0.9-1,1.2
		c-0.5,0.3-1.1,0.4-1.6,0.4c-0.6,0-1.3-0.2-1.8-0.5s-1-0.8-1.2-1.4c-0.6-1.3-0.6-2.8,0-4.1c0.3-0.6,0.7-1,1.2-1.4
		c0.6-0.3,1.2-0.5,1.8-0.5c0.6,0,1.1,0.1,1.6,0.4s0.8,0.7,1.1,1.1v-1.4h1.2V404.6z M1619.8,410.4c0.5-0.6,0.7-1.3,0.7-2.1
		c0-0.7-0.2-1.5-0.7-2.1c-0.4-0.5-1.1-0.8-1.8-0.8c-0.7,0-1.3,0.2-1.8,0.8c-0.5,0.6-0.7,1.3-0.7,2.1c0,0.7,0.2,1.5,0.7,2.1
		c0.5,0.5,1.1,0.8,1.8,0.8C1618.7,411.2,1619.4,410.9,1619.8,410.4z"/>
	<path class="st0" d="M1504.4,420.7h-86c-6.6,0-12-5.4-12-12v-10c0-6.6,5.4-12,12-12h86c6.6,0,12,5.4,12,12v10
		C1516.4,415.3,1511.1,420.7,1504.4,420.7z"/>
	<path class="st1" d="M1453.2,402.9v5.1c-0.5,0.3-1.1,0.4-1.7,0.5c-0.7,0.1-1.4,0.2-2.2,0.2c-1,0-2-0.2-2.8-0.7
		c-0.8-0.4-1.4-1.1-1.8-2s-0.7-2-0.6-3c0-1,0.2-2.1,0.6-3c0.4-0.8,1-1.5,1.8-1.9c0.8-0.5,1.8-0.7,2.8-0.7c0.7,0,1.4,0.1,2.1,0.4
		c0.6,0.2,1.2,0.6,1.7,1l-0.5,1c-0.5-0.4-1-0.8-1.6-1s-1.1-0.3-1.7-0.3c-1.1-0.1-2.1,0.4-2.9,1.2c-1.3,2.1-1.3,4.7,0,6.8
		c0.8,0.8,1.9,1.3,3,1.2c0.9,0,1.8-0.1,2.7-0.4v-3.4h-2.8v-1L1453.2,402.9z"/>
	<path class="st1" d="M1460,400.8v1.1c-0.3-0.1-0.5-0.1-0.8-0.1c-0.6,0-1.3,0.2-1.7,0.7c-0.4,0.5-0.6,1.1-0.6,1.7v4.5h-1.2V403
		c0-0.7,0-1.5-0.1-2.2h1.2l0.1,1.5c0.2-0.5,0.5-0.9,1-1.2c0.4-0.3,1-0.4,1.5-0.4C1459.6,400.7,1459.8,400.7,1460,400.8L1460,400.8z"
		/>
	<path class="st1" d="M1468,400.9v7.8h-1.2v-1.4c-0.2,0.5-0.6,0.9-1,1.1c-1.1,0.6-2.4,0.5-3.4-0.1c-0.5-0.3-1-0.8-1.2-1.4
		c-0.6-1.4-0.6-2.9,0-4.3c0.3-0.6,0.7-1.1,1.2-1.4s1.2-0.5,1.8-0.5c0.6,0,1.1,0.1,1.6,0.4c0.4,0.3,0.8,0.7,1,1.1v-1.4L1468,400.9
		L1468,400.9z M1466.2,407c0.4-0.7,0.7-1.4,0.6-2.2c0.1-0.8-0.2-1.6-0.6-2.2c-0.9-1-2.4-1.1-3.4-0.2c-0.1,0.1-0.1,0.1-0.2,0.2
		c-0.5,0.6-0.7,1.4-0.7,2.2c-0.1,0.8,0.2,1.6,0.6,2.2c0.4,0.5,1.1,0.8,1.8,0.8C1465.1,407.8,1465.7,407.5,1466.2,407L1466.2,407z"/>
	<path class="st1" d="M1470,407.8l0.4-0.9c0.4,0.3,0.8,0.6,1.3,0.7c0.5,0.2,1,0.2,1.5,0.2s0.9-0.1,1.3-0.3c0.3-0.2,0.5-0.5,0.5-0.9
		c0-0.3-0.1-0.5-0.3-0.7c-0.3-0.2-0.6-0.4-1-0.4l-1.3-0.3c-0.6-0.1-1.1-0.4-1.5-0.8s-0.5-0.8-0.5-1.3c0-0.7,0.3-1.3,0.8-1.7
		c0.6-0.5,1.4-0.7,2.2-0.6c0.5,0,1.1,0.1,1.6,0.3c0.5,0.2,0.9,0.4,1.2,0.8l-0.4,0.9c-0.7-0.6-1.5-0.9-2.4-0.9
		c-0.5,0-0.9,0.1-1.3,0.3c-0.3,0.2-0.5,0.5-0.4,0.9c0,0.3,0.1,0.6,0.3,0.8c0.3,0.2,0.6,0.4,0.9,0.4l1.3,0.3c0.6,0.1,1.2,0.4,1.6,0.8
		s0.5,0.9,0.5,1.4c0,0.6-0.3,1.2-0.8,1.6c-0.7,0.4-1.4,0.6-2.2,0.6C1472,408.8,1470.9,408.5,1470,407.8L1470,407.8z"/>
	<path class="st1" d="M1477.7,407.8l0.4-0.9c0.4,0.3,0.8,0.6,1.3,0.7c0.5,0.2,1,0.2,1.5,0.2s0.9-0.1,1.3-0.3
		c0.3-0.2,0.5-0.5,0.5-0.9c0-0.3-0.1-0.6-0.3-0.7c-0.3-0.2-0.6-0.4-1-0.4l-1.3-0.3c-0.6-0.1-1.1-0.4-1.5-0.8s-0.5-0.8-0.5-1.3
		c0-0.7,0.3-1.3,0.8-1.7c0.6-0.5,1.4-0.7,2.2-0.6c0.5,0,1.1,0.1,1.6,0.3c0.5,0.2,0.9,0.4,1.2,0.8l-0.4,0.9c-0.7-0.6-1.5-0.9-2.4-0.9
		c-0.5,0-0.9,0.1-1.3,0.3c-0.3,0.2-0.5,0.5-0.4,0.9c0,0.3,0.1,0.6,0.3,0.8c0.3,0.2,0.6,0.4,0.9,0.4l1.3,0.3c0.6,0.1,1.2,0.4,1.6,0.8
		s0.6,0.9,0.5,1.4c0,0.6-0.3,1.3-0.8,1.6c-0.7,0.4-1.4,0.6-2.2,0.6C1479.7,408.8,1478.6,408.5,1477.7,407.8L1477.7,407.8z"/>
	<path class="st0" d="M1567.4,378.3h-86c-6.6,0-12-5.4-12-12v-10c0-6.6,5.4-12,12-12h86c6.6,0,12,5.4,12,12v10
		C1579.4,372.9,1574.1,378.3,1567.4,378.3z"/>
	<path class="st1" d="M1512.2,365.7c-0.8-0.5-1.4-1.2-1.8-2c-0.4-0.9-0.6-2-0.6-3s0.2-2.1,0.6-3c0.4-0.8,1-1.5,1.8-2
		s1.8-0.7,2.7-0.7c0.7,0,1.4,0.1,2.1,0.4c0.6,0.2,1.2,0.6,1.7,1l-0.5,1c-0.5-0.4-1-0.8-1.6-1c-0.5-0.2-1.1-0.3-1.7-0.3
		c-1.1-0.1-2.1,0.4-2.8,1.2c-1.3,2-1.3,4.7,0,6.7c0.7,0.8,1.7,1.2,2.8,1.2c0.6,0,1.2-0.1,1.7-0.3c0.6-0.2,1.1-0.6,1.6-1l0.5,1
		c-0.5,0.5-1,0.8-1.7,1s-1.4,0.4-2.1,0.4C1514,366.4,1513,366.2,1512.2,365.7L1512.2,365.7z"/>
	<path class="st1" d="M1527.1,358.5v7.8h-1.2v-1.4c-0.2,0.5-0.6,0.8-1,1.1c-0.5,0.3-1,0.4-1.5,0.4c-0.8,0.1-1.5-0.2-2.1-0.8
		c-0.5-0.6-0.8-1.5-0.7-2.3v-4.9h1.3v4.8c0,0.6,0.1,1.1,0.4,1.6c0.3,0.4,0.8,0.5,1.3,0.5c0.6,0,1.2-0.2,1.7-0.7
		c0.4-0.5,0.7-1.1,0.6-1.8v-4.4L1527.1,358.5z"/>
	<path class="st1" d="M1531.2,359.5v4.3c0,0.4,0.1,0.9,0.4,1.2c0.3,0.2,0.6,0.4,1,0.4c0.3,0,0.6,0,0.8-0.1v1.1
		c-0.4,0.1-0.7,0.2-1.1,0.2c-0.6,0-1.3-0.2-1.7-0.6c-0.5-0.5-0.7-1.2-0.6-1.9v-4.5h-1.5v-1h1.5v-2l1.2-0.5v2.5h2.2v1L1531.2,359.5z"
		/>
	<path class="st1" d="M1541.5,362.3h-5.7c0,0.8,0.2,1.6,0.7,2.2c0.5,0.5,1.3,0.8,2,0.8c0.9,0,1.8-0.3,2.5-0.9l0.4,0.9
		c-0.4,0.3-0.8,0.6-1.3,0.8c-0.5,0.2-1.1,0.3-1.6,0.3c-1.1,0.1-2.1-0.3-2.9-1.1c-0.7-0.8-1.1-1.9-1-3c0-0.7,0.1-1.5,0.5-2.1
		c0.3-0.6,0.7-1.1,1.3-1.4c0.6-0.3,1.2-0.5,1.9-0.5c0.9,0,1.8,0.3,2.4,1c0.6,0.8,0.9,1.8,0.9,2.8L1541.5,362.3z M1536.6,359.9
		c-0.4,0.5-0.7,1-0.8,1.7h4.6c0-0.6-0.2-1.2-0.7-1.7c-0.4-0.4-1-0.6-1.5-0.6C1537.6,359.2,1537,359.5,1536.6,359.9z"/>
	<path class="st2" d="M1449.1,476.1c0-2.8,2.2-5,5-5h142.8c2.8,0,5,2.2,5,5s-2.2,5-5,5h-142.7
		C1451.4,481.1,1449.1,478.9,1449.1,476.1L1449.1,476.1z"/>
	<path class="st0" d="M1512.6,189.3h-86c-6.6,0-12-5.4-12-12v-10c0-6.6,5.4-12,12-12h86c6.6,0,12,5.4,12,12v10
		C1524.6,183.9,1519.3,189.3,1512.6,189.3z"/>
	<path class="st1" d="M1444.4,166.2h4.4c1-0.1,1.9,0.2,2.7,0.8c0.7,0.6,1,1.4,1,2.3c0,0.9-0.3,1.7-1,2.3c-0.8,0.6-1.7,0.9-2.7,0.8
		h-3.1v4.9h-1.3V166.2z M1448.7,171.3c0.7,0.1,1.3-0.1,1.8-0.5c0.8-0.8,0.8-2.2,0-3c-0.5-0.4-1.2-0.6-1.8-0.5h-3v4.1L1448.7,171.3z"
		/>
	<path class="st1" d="M1460.8,169.4v7.8h-1.2v-1.4c-0.2,0.5-0.6,0.8-1,1.1c-0.5,0.2-1,0.4-1.5,0.4c-0.8,0.1-1.5-0.2-2.1-0.8
		c-0.5-0.6-0.8-1.5-0.7-2.3v-4.8h1.3v4.8c0,0.6,0.1,1.1,0.4,1.6c0.3,0.4,0.8,0.5,1.3,0.5c0.6,0,1.2-0.2,1.7-0.7
		c0.4-0.5,0.7-1.1,0.6-1.8v-4.4L1460.8,169.4z"/>
	<path class="st1" d="M1468.9,169.8c0.5,0.4,1,0.9,1.2,1.4c0.3,0.7,0.5,1.4,0.4,2.1c0,0.7-0.1,1.5-0.4,2.1s-0.7,1.1-1.2,1.4
		c-0.5,0.3-1.2,0.5-1.8,0.5c-0.6,0-1.1-0.1-1.6-0.4c-0.4-0.3-0.8-0.7-1-1.1v4.8h-1.3v-9c0-0.7,0-1.5-0.1-2.2h1.2l0.1,1.5
		c0.2-0.5,0.5-0.9,1-1.2s1.1-0.5,1.7-0.4C1467.8,169.2,1468.4,169.4,1468.9,169.8L1468.9,169.8z M1468.7,175.5
		c0.5-0.6,0.7-1.4,0.6-2.2c0-0.8-0.2-1.6-0.6-2.2c-0.4-0.5-1.1-0.8-1.8-0.8c-0.7,0-1.3,0.2-1.8,0.8c-0.8,1.4-0.8,3.1,0,4.4
		c0.9,1,2.4,1.1,3.4,0.2C1468.6,175.6,1468.6,175.6,1468.7,175.5L1468.7,175.5z"/>
	<path class="st1" d="M1478.3,169.8c0.5,0.4,1,0.9,1.2,1.4c0.3,0.7,0.5,1.4,0.4,2.1c0,0.7-0.1,1.5-0.4,2.1c-0.5,1.2-1.7,1.9-3,1.9
		c-0.6,0-1.1-0.1-1.6-0.4c-0.4-0.3-0.8-0.7-1-1.1v4.8h-1.3v-9c0-0.7,0-1.5-0.1-2.2h1.2l0.1,1.5c0.2-0.5,0.5-0.9,1-1.2
		s1.1-0.5,1.7-0.4C1477.1,169.2,1477.7,169.4,1478.3,169.8L1478.3,169.8z M1478,175.5c0.8-1.4,0.8-3.1,0-4.4
		c-0.4-0.5-1.1-0.8-1.8-0.8c-0.7,0-1.3,0.2-1.8,0.8c-0.8,1.4-0.8,3.1,0,4.4c0.4,0.5,1.1,0.8,1.8,0.8
		C1476.9,176.4,1477.6,176.1,1478,175.5z"/>
	<path class="st1" d="M1481.7,166.1h1.5v1.4h-1.5V166.1z M1481.9,177.2v-7.8h1.2v7.8H1481.9z"/>
	<path class="st1" d="M1492.1,173.3h-5.7c-0.1,0.8,0.2,1.6,0.7,2.3c0.5,0.5,1.3,0.8,2,0.8c0.9,0,1.8-0.3,2.5-0.9l0.4,0.9
		c-0.4,0.3-0.8,0.6-1.3,0.8s-1.1,0.3-1.6,0.3c-1.1,0.1-2.1-0.3-2.9-1.1c-0.7-0.8-1.1-1.9-1-3c0-0.7,0.1-1.5,0.5-2.1
		c0.3-0.6,0.7-1.1,1.3-1.4c0.6-0.3,1.2-0.5,1.9-0.5c0.9-0.1,1.8,0.3,2.4,1c0.6,0.8,0.9,1.8,0.9,2.8L1492.1,173.3z M1487.2,170.8
		c-0.4,0.5-0.7,1-0.8,1.7h4.6c0-0.6-0.3-1.2-0.7-1.7c-0.4-0.4-1-0.6-1.5-0.6C1488.2,170.2,1487.6,170.4,1487.2,170.8z"/>
	<path class="st1" d="M1493.5,176.4l0.4-0.9c0.4,0.3,0.8,0.6,1.3,0.7c0.5,0.2,1,0.2,1.5,0.2s0.9-0.1,1.3-0.3
		c0.3-0.2,0.5-0.5,0.5-0.9c0-0.3-0.1-0.6-0.3-0.8c-0.3-0.2-0.6-0.4-1-0.4l-1.3-0.3c-0.6-0.1-1.1-0.4-1.5-0.8
		c-0.4-0.4-0.5-0.8-0.5-1.3c0-0.7,0.3-1.3,0.8-1.7c0.6-0.5,1.4-0.7,2.2-0.6c0.5,0,1.1,0.1,1.6,0.3s0.9,0.4,1.2,0.8l-0.4,0.9
		c-0.7-0.6-1.5-0.9-2.4-0.9c-0.5,0-0.9,0.1-1.3,0.3c-0.3,0.2-0.5,0.5-0.5,0.9c0,0.3,0.1,0.6,0.3,0.8c0.3,0.2,0.6,0.4,0.9,0.4
		l1.3,0.3c0.6,0.1,1.2,0.4,1.6,0.8c0.4,0.4,0.5,0.9,0.5,1.4c0,0.6-0.3,1.2-0.8,1.6c-0.7,0.4-1.4,0.7-2.2,0.6
		C1495.5,177.4,1494.4,177.1,1493.5,176.4L1493.5,176.4z"/>
	<path class="st0" d="M1633.3,189.3h-86c-6.6,0-12-5.4-12-12v-10c0-6.6,5.4-12,12-12h86c6.6,0,12,5.4,12,12v10
		C1645.3,183.9,1640,189.3,1633.3,189.3z"/>
	<path class="st1" d="M1576.1,171.5v5.1c-0.5,0.3-1.1,0.5-1.7,0.6c-0.7,0.1-1.4,0.2-2.1,0.2c-1,0-2-0.2-2.8-0.7
		c-0.8-0.4-1.4-1.1-1.8-1.9c-0.8-1.9-0.8-4.1,0-6.1c0.4-0.8,1-1.5,1.8-1.9c0.8-0.5,1.8-0.7,2.8-0.7c0.7,0,1.4,0.1,2.1,0.4
		c0.6,0.2,1.2,0.6,1.7,1.1l-0.5,1c-0.5-0.4-1-0.8-1.6-1s-1.1-0.3-1.7-0.3c-1.1-0.1-2.2,0.4-2.9,1.2c-1.4,2.1-1.4,4.7,0,6.8
		c0.8,0.8,1.9,1.3,3,1.2c0.9,0,1.8-0.1,2.7-0.4v-3.4h-2.8v-1L1576.1,171.5z"/>
	<path class="st1" d="M1579.8,176.9c-0.6-0.3-1-0.8-1.3-1.4c-0.6-1.4-0.6-2.9,0-4.3c0.3-0.6,0.7-1.1,1.3-1.4c1.2-0.7,2.7-0.7,3.9,0
		c0.6,0.3,1,0.8,1.3,1.4c0.6,1.4,0.6,2.9,0,4.3c-0.3,0.6-0.7,1.1-1.3,1.4C1582.5,177.5,1581,177.5,1579.8,176.9z M1583.6,175.6
		c0.5-0.7,0.7-1.5,0.6-2.2c0-0.8-0.2-1.6-0.6-2.2c-0.9-1-2.4-1-3.4-0.1c-0.1,0-0.1,0.1-0.1,0.1c-0.5,0.6-0.7,1.4-0.6,2.2
		c-0.1,0.8,0.2,1.6,0.6,2.2c0.4,0.5,1.1,0.8,1.8,0.8C1582.5,176.4,1583.1,176.1,1583.6,175.6L1583.6,175.6z"/>
	<path class="st1" d="M1587.5,177.2v-11.4h1.2v11.4H1587.5z"/>
	<path class="st1" d="M1598,165.8v11.4h-1.2v-1.4c-0.2,0.5-0.6,0.9-1,1.1c-0.5,0.3-1,0.4-1.6,0.4s-1.3-0.2-1.8-0.5
		c-0.5-0.4-1-0.9-1.2-1.4c-0.3-0.7-0.4-1.4-0.4-2.1c0-0.7,0.1-1.5,0.4-2.1s0.7-1.1,1.2-1.4c0.5-0.3,1.2-0.5,1.8-0.5
		c0.6,0,1.1,0.1,1.6,0.4c0.4,0.3,0.8,0.6,1,1.1v-4.9L1598,165.8z M1596.2,175.5c0.8-1.4,0.8-3.1,0-4.4c-0.4-0.5-1.1-0.8-1.8-0.8
		c-0.7,0-1.3,0.2-1.8,0.8s-0.7,1.4-0.7,2.2s0.2,1.6,0.7,2.2c0.4,0.5,1.1,0.8,1.8,0.8C1595.1,176.4,1595.7,176.1,1596.2,175.5
		L1596.2,175.5z"/>
	<path class="st1" d="M1607,173.3h-5.7c-0.1,0.8,0.2,1.6,0.7,2.3c0.5,0.5,1.3,0.8,2,0.8c0.9,0,1.8-0.3,2.5-0.9l0.4,0.9
		c-0.4,0.3-0.8,0.6-1.3,0.8s-1.1,0.3-1.6,0.3c-1.1,0.1-2.1-0.3-2.9-1.1c-0.7-0.8-1.1-1.9-1-3c0-0.7,0.1-1.5,0.5-2.1
		c0.3-0.6,0.7-1.1,1.3-1.4c0.6-0.3,1.2-0.5,1.9-0.5c0.9-0.1,1.8,0.3,2.4,1c0.6,0.8,0.9,1.8,0.9,2.8L1607,173.3z M1602.1,170.8
		c-0.4,0.5-0.7,1-0.8,1.7h4.6c0-0.6-0.2-1.2-0.6-1.7c-0.4-0.4-1-0.6-1.5-0.6C1603.1,170.2,1602.5,170.4,1602.1,170.8z"/>
	<path class="st1" d="M1615.6,172.3v4.9h-1.3v-4.9c0-0.6-0.1-1.1-0.4-1.6c-0.4-0.4-0.9-0.5-1.4-0.5c-0.6,0-1.3,0.2-1.7,0.7
		c-0.5,0.5-0.7,1.1-0.7,1.8v4.5h-1.3v-5.6c0-0.7,0-1.5-0.1-2.2h1.2l0.1,1.4c0.2-0.5,0.6-0.9,1.1-1.2s1.1-0.4,1.6-0.4
		C1614.7,169.2,1615.6,170.3,1615.6,172.3z"/>
	<path class="st0" d="M1756,188h-86c-6.6,0-12-5.4-12-12v-10c0-6.6,5.4-12,12-12h86c6.6,0,12,5.4,12,12v10
		C1768,182.6,1762.7,188,1756,188z"/>
	<path class="st1" d="M1697.8,174.7l0.5-1c0.5,0.4,1.1,0.8,1.7,1s1.3,0.3,2,0.3s1.4-0.1,2.1-0.5c0.5-0.3,0.7-0.9,0.7-1.5
		c0-0.3-0.1-0.7-0.3-0.9c-0.3-0.2-0.6-0.4-0.9-0.6c-0.4-0.1-0.9-0.3-1.5-0.4c-0.7-0.1-1.4-0.3-2.1-0.6c-0.5-0.2-1-0.5-1.3-0.9
		c-0.4-0.5-0.5-1-0.5-1.6s0.2-1.2,0.5-1.7c0.4-0.5,0.8-0.9,1.4-1.1c0.7-0.3,1.4-0.4,2.1-0.4s1.5,0.1,2.1,0.4c0.6,0.2,1.2,0.5,1.7,1
		l-0.5,1c-0.5-0.4-1-0.8-1.6-1s-1.2-0.3-1.8-0.3c-0.7,0-1.4,0.2-2,0.6c-0.5,0.4-0.7,0.9-0.7,1.5c0,0.5,0.2,1,0.6,1.3
		c0.6,0.4,1.3,0.6,2,0.7c1,0.2,1.7,0.4,2.2,0.6c0.5,0.2,1,0.5,1.4,0.9s0.6,1,0.5,1.6c0,0.6-0.2,1.2-0.5,1.6
		c-0.4,0.5-0.9,0.9-1.4,1.1c-0.7,0.3-1.4,0.4-2.2,0.4C1700.5,176.1,1699,175.6,1697.8,174.7L1697.8,174.7z"/>
	<path class="st1" d="M1709.6,169.1v4.3c0,0.4,0.1,0.9,0.3,1.2c0.3,0.2,0.6,0.4,1,0.4c0.3,0,0.6,0,0.8-0.1v1.1
		c-0.4,0.1-0.7,0.2-1.1,0.1c-0.6,0-1.3-0.2-1.8-0.6c-0.5-0.5-0.7-1.2-0.6-1.9v-4.4h-1.5v-1h1.5v-2l1.3-0.4v2.4h2.2v1h-2.1V169.1z"/>
	<path class="st1" d="M1713.2,164.8h1.6v1.4h-1.5L1713.2,164.8z M1713.4,175.9v-7.8h1.2v7.8H1713.4z"/>
	<path class="st1" d="M1718.4,175.5c-0.6-0.3-1-0.8-1.3-1.4c-0.6-1.4-0.6-2.9,0-4.3c0.3-0.6,0.8-1.1,1.3-1.4c0.6-0.3,1.3-0.5,2-0.5
		c0.5,0,1,0.1,1.5,0.3s0.9,0.4,1.2,0.8l-0.4,0.9c-0.3-0.3-0.7-0.5-1.1-0.7c-0.4-0.1-0.7-0.2-1.1-0.2c-0.7,0-1.4,0.3-1.9,0.8
		c-0.5,0.6-0.7,1.4-0.7,2.2c-0.1,0.8,0.2,1.6,0.7,2.2c0.5,0.5,1.2,0.8,1.9,0.8c0.4,0,0.8-0.1,1.1-0.2c0.4-0.2,0.8-0.4,1.1-0.7
		l0.4,0.9c-0.4,0.3-0.8,0.6-1.2,0.7c-0.5,0.2-1,0.3-1.6,0.3C1719.6,176.1,1718.9,175.9,1718.4,175.5L1718.4,175.5z"/>
	<path class="st1" d="M1731.7,175.9h-1.7l-4-3.8v3.8h-1.3v-11.4h1.3v7.2l3.7-3.6h1.6l-3.9,3.7L1731.7,175.9z"/>
	<path class="st0" d="M1701,145.6h-86c-6.6,0-12-5.4-12-12v-10c0-6.6,5.4-12,12-12h86c6.6,0,12,5.4,12,12v10
		C1713,140.2,1707.7,145.6,1701,145.6z"/>
	<path class="st1" d="M1640.5,133.6v-11.1h6.8v1.1h-5.5v3.8h5.3v1.1h-5.3v5.1L1640.5,133.6L1640.5,133.6z"/>
	<path class="st1" d="M1655.5,129.6h-5.7c0,0.8,0.2,1.6,0.7,2.2c0.5,0.5,1.3,0.8,2,0.8c0.9,0,1.8-0.3,2.5-0.9l0.4,0.9
		c-0.4,0.3-0.8,0.6-1.3,0.8s-1.1,0.3-1.6,0.3c-1.1,0.1-2.1-0.3-2.9-1.1c-0.7-0.8-1.1-1.9-1-3c0-0.7,0.1-1.5,0.5-2.1
		c0.3-0.6,0.7-1.1,1.3-1.4c0.6-0.4,1.2-0.5,1.9-0.5c0.9-0.1,1.8,0.3,2.4,1c0.6,0.8,0.9,1.8,0.9,2.8L1655.5,129.6z M1650.6,127.2
		c-0.4,0.5-0.7,1-0.8,1.7h4.6c0-0.6-0.2-1.2-0.6-1.7c-0.4-0.4-1-0.6-1.5-0.6C1651.6,126.5,1651,126.8,1650.6,127.2z"/>
	<path class="st1" d="M1659,126.8v4.2c0,0.4,0.1,0.9,0.3,1.2c0.3,0.2,0.6,0.4,1,0.4c0.3,0,0.6,0,0.8-0.1v1.1
		c-0.4,0.1-0.7,0.2-1.1,0.2c-0.6,0-1.3-0.2-1.7-0.6c-0.5-0.5-0.7-1.2-0.6-1.9v-4.4h-1.5v-1h1.6v-2l1.3-0.4v2.4h2.2v1L1659,126.8z"/>
	<path class="st1" d="M1664.1,133.2c-0.6-0.3-1-0.8-1.3-1.4c-0.3-0.7-0.5-1.4-0.5-2.1c0-0.7,0.1-1.5,0.5-2.1
		c0.3-0.6,0.8-1.1,1.3-1.4c0.6-0.4,1.3-0.5,2-0.5c0.5,0,1,0.1,1.5,0.3c0.5,0.2,0.9,0.4,1.2,0.8l-0.4,0.9c-0.3-0.3-0.7-0.5-1.1-0.7
		c-0.4-0.1-0.7-0.2-1.1-0.2c-0.7,0-1.4,0.3-1.9,0.8c-0.5,0.6-0.7,1.4-0.7,2.2s0.2,1.6,0.7,2.2c0.5,0.5,1.2,0.8,1.9,0.8
		c0.4,0,0.8-0.1,1.1-0.2c0.4-0.2,0.8-0.4,1.1-0.7l0.4,0.9c-0.4,0.3-0.8,0.6-1.2,0.7c-0.5,0.2-1,0.3-1.6,0.3
		C1665.4,133.7,1664.7,133.5,1664.1,133.2L1664.1,133.2z"/>
	<path class="st1" d="M1677.2,128.7v4.9h-1.3v-4.8c0-0.6-0.1-1.1-0.4-1.6c-0.4-0.4-0.9-0.5-1.4-0.5c-0.6,0-1.3,0.2-1.7,0.7
		c-0.4,0.5-0.7,1.1-0.7,1.8v4.5h-1.3v-11.4h1.3v4.9c0.2-0.5,0.6-0.8,1.1-1.1c0.5-0.3,1-0.4,1.6-0.4
		C1676.3,125.6,1677.2,126.6,1677.2,128.7L1677.2,128.7z"/>
	<path class="st0" d="M1572,141.9h-86c-6.6,0-12-5.4-12-12v-10c0-6.6,5.4-12,12-12h86c6.6,0,12,5.4,12,12v10
		C1584,136.5,1578.7,141.9,1572,141.9z"/>
	<path class="st1" d="M1520.8,124.1v5.1c-0.5,0.3-1.1,0.4-1.7,0.6c-0.7,0.1-1.4,0.2-2.2,0.2c-1,0-2-0.2-2.8-0.7s-1.4-1.2-1.8-2
		c-0.4-0.9-0.7-2-0.6-3c0-1,0.2-2.1,0.6-3c0.4-0.8,1-1.5,1.8-1.9c0.8-0.5,1.8-0.7,2.8-0.7c0.7,0,1.5,0.1,2.1,0.3
		c0.6,0.2,1.2,0.5,1.7,1l-0.5,1c-0.5-0.4-1-0.8-1.6-1s-1.1-0.3-1.7-0.3c-1.1-0.1-2.1,0.4-2.9,1.2c-1.3,2.1-1.3,4.7,0,6.8
		c0.8,0.8,1.9,1.2,3,1.2c0.9,0,1.8-0.1,2.7-0.4v-3.3h-2.8v-1L1520.8,124.1z"/>
	<path class="st1" d="M1527.6,122v1.2c-0.3-0.1-0.5-0.1-0.8-0.1c-0.6,0-1.3,0.2-1.7,0.7c-0.4,0.5-0.6,1.1-0.6,1.7v4.5h-1.3v-5.6
		c0-0.7,0-1.5-0.1-2.2h1.2l0.1,1.4c0.2-0.5,0.5-0.9,1-1.2C1526.1,121.9,1526.9,121.8,1527.6,122L1527.6,122z"/>
	<path class="st1" d="M1535.6,122v7.8h-1.2v-1.4c-0.2,0.5-0.6,0.9-1,1.1c-0.5,0.3-1,0.4-1.6,0.4s-1.3-0.2-1.8-0.5s-1-0.8-1.2-1.4
		c-0.3-0.7-0.4-1.4-0.4-2.1s0.1-1.5,0.4-2.1s0.7-1.1,1.2-1.4s1.2-0.5,1.8-0.5c0.6,0,1.1,0.1,1.6,0.4c0.4,0.3,0.8,0.7,1,1.1V122
		H1535.6z M1533.7,128.1c0.4-0.7,0.7-1.4,0.6-2.2c0.1-0.8-0.2-1.6-0.6-2.2c-0.4-0.5-1.1-0.8-1.8-0.8c-0.7,0-1.4,0.3-1.8,0.8
		c-0.5,0.6-0.7,1.4-0.7,2.2c-0.1,0.8,0.2,1.6,0.6,2.2c0.4,0.5,1.1,0.8,1.8,0.8C1532.6,128.9,1533.3,128.7,1533.7,128.1L1533.7,128.1
		z"/>
	<path class="st1" d="M1537.6,129l0.4-0.9c0.4,0.3,0.8,0.6,1.3,0.7c0.5,0.2,1,0.2,1.5,0.2s0.9-0.1,1.3-0.3c0.3-0.2,0.5-0.5,0.5-0.9
		c0-0.3-0.1-0.6-0.3-0.7c-0.3-0.2-0.6-0.4-1-0.4l-1.3-0.3c-0.6-0.1-1.1-0.4-1.5-0.8s-0.5-0.8-0.5-1.3c0-0.7,0.3-1.3,0.8-1.7
		c0.6-0.5,1.4-0.7,2.2-0.7c0.5,0,1.1,0.1,1.6,0.3c0.5,0.2,0.9,0.4,1.2,0.8l-0.4,0.9c-0.7-0.6-1.5-0.9-2.4-0.9
		c-0.5,0-0.9,0.1-1.3,0.3c-0.3,0.2-0.5,0.5-0.4,0.9c0,0.3,0.1,0.6,0.3,0.8c0.3,0.2,0.6,0.4,0.9,0.4l1.3,0.3c0.6,0.1,1.2,0.4,1.6,0.8
		s0.5,0.9,0.5,1.4c0,0.6-0.3,1.2-0.8,1.6c-0.7,0.4-1.4,0.7-2.2,0.6C1539.6,130.1,1538.4,129.7,1537.6,129L1537.6,129z"/>
	<path class="st1" d="M1545.3,129l0.4-0.9c0.4,0.3,0.8,0.5,1.3,0.7s1,0.2,1.5,0.2s0.9-0.1,1.3-0.3c0.3-0.2,0.5-0.5,0.5-0.9
		c0-0.3-0.1-0.6-0.3-0.7c-0.3-0.2-0.6-0.4-1-0.4l-1.3-0.3c-0.6-0.1-1.1-0.4-1.5-0.8c-0.3-0.4-0.5-0.8-0.5-1.3c0-0.7,0.3-1.3,0.8-1.7
		c0.6-0.5,1.4-0.7,2.2-0.7c0.5,0,1.1,0.1,1.6,0.3c0.5,0.2,0.9,0.4,1.2,0.8l-0.4,0.9c-0.7-0.6-1.5-0.9-2.4-0.9
		c-0.5,0-0.9,0.1-1.3,0.3c-0.5,0.4-0.6,1.1-0.2,1.6c0,0,0,0.1,0.1,0.1c0.3,0.2,0.6,0.4,0.9,0.4l1.3,0.3c0.6,0.1,1.2,0.4,1.6,0.8
		s0.6,0.9,0.5,1.4c0,0.6-0.3,1.2-0.8,1.6c-0.7,0.4-1.4,0.7-2.2,0.6C1547.3,130.1,1546.1,129.7,1545.3,129L1545.3,129z"/>
	<path class="st0" d="M1635,99.5h-86c-6.6,0-12-5.4-12-12v-10c0-6.6,5.4-12,12-12h86c6.6,0,12,5.4,12,12v10
		C1647,94.1,1641.7,99.5,1635,99.5z"/>
	<path class="st1" d="M1579.8,86.9c-0.8-0.5-1.4-1.2-1.8-2c-0.4-0.9-0.7-2-0.6-3c0-1,0.2-2.1,0.6-3c0.4-0.8,1-1.5,1.8-2
		s1.8-0.7,2.7-0.7c0.7,0,1.4,0.1,2.1,0.3c0.6,0.2,1.2,0.6,1.7,1.1l-0.5,1c-0.5-0.4-1-0.8-1.6-1c-0.5-0.2-1.1-0.3-1.7-0.3
		c-1.1-0.1-2.1,0.4-2.8,1.2c-0.7,1-1.1,2.2-1,3.4c-0.1,1.2,0.3,2.4,1,3.4c0.7,0.8,1.7,1.3,2.8,1.2c0.6,0,1.2-0.1,1.7-0.3
		c0.6-0.2,1.1-0.6,1.6-1l0.5,1c-0.5,0.4-1,0.8-1.7,1s-1.4,0.3-2.1,0.3C1581.6,87.5,1580.6,87.3,1579.8,86.9L1579.8,86.9z"/>
	<path class="st1" d="M1594.6,79.7v7.8h-1.2v-1.3c-0.2,0.5-0.6,0.8-1,1.1c-0.5,0.3-1,0.4-1.5,0.4c-0.8,0.1-1.5-0.2-2.1-0.8
		c-0.5-0.6-0.8-1.5-0.7-2.3v-4.8h1.3v4.8c0,0.6,0.1,1.1,0.4,1.6c0.3,0.4,0.8,0.5,1.3,0.5c0.6,0,1.2-0.2,1.7-0.7
		c0.4-0.5,0.7-1.1,0.6-1.8v-4.4L1594.6,79.7z"/>
	<path class="st1" d="M1598.7,80.6v4.3c0,0.4,0.1,0.9,0.3,1.2c0.3,0.2,0.6,0.4,1,0.3c0.3,0,0.6,0,0.8-0.1v1.1
		c-0.4,0.1-0.7,0.2-1.1,0.2c-0.6,0-1.3-0.2-1.7-0.6c-0.5-0.5-0.7-1.2-0.6-1.9v-4.4h-1.5v-1h1.5v-2l1.3-0.4v2.4h2.2v1L1598.7,80.6
		L1598.7,80.6z"/>
	<path class="st1" d="M1609,83.5h-5.7c0,0.8,0.2,1.6,0.7,2.2c0.5,0.5,1.3,0.8,2,0.8c0.9,0,1.8-0.3,2.5-0.9l0.4,0.9
		c-0.4,0.3-0.8,0.6-1.3,0.8c-0.5,0.2-1.1,0.3-1.6,0.3c-1.1,0.1-2.1-0.3-2.9-1.1c-0.7-0.8-1.1-1.9-1-3c0-0.7,0.1-1.5,0.5-2.1
		c0.6-1.2,1.8-2,3.2-2c0.9-0.1,1.8,0.3,2.4,1c0.6,0.8,0.9,1.8,0.9,2.8L1609,83.5z M1604.1,81c-0.4,0.5-0.7,1-0.8,1.7h4.6
		c0-0.6-0.2-1.2-0.7-1.7c-0.4-0.4-1-0.6-1.5-0.6C1605.1,80.4,1604.6,80.6,1604.1,81L1604.1,81z"/>
	<path class="st2" d="M1515,201.3c0-2.8,2.2-5,5-5h142.7c2.8,0,5,2.2,5,5s-2.2,5-5,5H1520C1517.3,206.3,1515,204.1,1515,201.3z"/>
	<path class="st36" d="M1577.7,203.3h11.5l18.1,19c0,0-9.6-1.3-12.2-1.3C1593.6,220.9,1577.7,203.3,1577.7,203.3z"/>
	<path class="st37" d="M1561.2,203.3h17l23.1,19c-3.3-0.4-6.6-0.9-9.9-1.7C1588.3,219.8,1561.2,203.3,1561.2,203.3z"/>
	<path class="st38" d="M1549.7,203.3h11.5c0,0,33,16.7,37.2,17.9c1.9,0.5-13.9,1.1-22.8-1.7C1564.8,216.1,1553.4,207.8,1549.7,203.3
		L1549.7,203.3z"/>
	<path class="st39" d="M1539.9,215.6h-16.5c0,0-7,0.3-7-7.3c0-5.3,10.3-4.8,10.3-4.8l23-0.5c0,0,19.3,10.7,26.5,14.5
		c5.7-0.7,11.4,0.4,16.5,3l33.5,3.3c0,0,8.3-18.5,16.8-20.7s19.5,0,19.5,0c1.7,1.3,2.5,3.4,2,5.5c-0.8,3.5-3.3,4.3-4,4.4
		s-7.5,0-7.5,0s-3.3,11-6,15.9c4.6,19.4,1.5,28.5,2.3,32.5s39,56.5,39,56.5l-31.8,21.8c0,0-65.3-88.5-67.8-95
		c-1.2-3-13.3-7.1-24.3-13.2C1555.9,226.7,1547.8,221.4,1539.9,215.6L1539.9,215.6z"/>
	<path class="st40" d="M1531.3,215.6l-8.2,0.1c0,0-7-1-6.7-6.5h10.3C1526.8,209.2,1530.3,209.9,1531.3,215.6L1531.3,215.6z"/>
	<path class="st40" d="M1653.6,213l2.7-5.1c0,0,6-1,7.6-0.1s-0.8,4.4-2.8,5.2L1653.6,213z"/>
</g>
<path class="st41" d="M1608.4,271.7l37.8-22.2l2.8,4.3l-37.9,21.3L1608.4,271.7z"/>
<image style="overflow:visible;enable-background:new    ;" width="433" height="332" xlink:href="embedded-image-1.png"  transform="matrix(0.48 0 0 0.48 270.3749 300.7464)">
</image>
<path class="st1" d="M478.1,301.1V460H270.5V301.1H478.1z M485.1,294.1H263.5V467h221.6V294.1z"/>
<image style="overflow:visible;enable-background:new    ;" width="432" height="332" xlink:href="embedded-image-3.png"  transform="matrix(0.48 0 0 0.48 507.0149 300.7464)">
</image>
<path class="st1" d="M708.9,301.1V460H507V301.1H708.9z M715.9,294.1H500V467h215.8V294.1H715.9z"/>
<path class="st42" d="M207.9,276.4l36.4-36.4h56c0,0,1.9,12.7-7.9,14.2s-25,0.6-25,0.6s12.1,0.9,12,11.4c-0.1,7.3-4.4,9.8-10.1,10.1
	S207.9,276.4,207.9,276.4L207.9,276.4z"/>
<image style="overflow:visible;enable-background:new    ;" width="377" height="301" xlink:href="embedded-image-2.png"  transform="matrix(0.48 0 0 0.48 233.4149 90.5064)">
</image>
<path class="st1" d="M414.3,90.5v144.3H233.7V90.5H414.3z M421.3,83.5H226.7v158.3h194.6V83.5z"/>
<linearGradient id="SVGID_11_" gradientUnits="userSpaceOnUse" x1="127.1589" y1="439.6067" x2="249.3895" y2="317.366" gradientTransform="matrix(1 0 0 1 -4.65 -130.17)">
	<stop  offset="0" style="stop-color:#FFFFFF;stop-opacity:0"/>
	<stop  offset="0.29" style="stop-color:#EDD1B5"/>
</linearGradient>
<path class="st43" d="M139.9,326.8l-40.1-40.1l91.6-99.3c0,0,2.3-4.4,5.9-4.2c5.1,0.3,29.1,0,29.1,0v37.6l18.6-17.7
	c0,0,10.6-6.3,18.1,2.5s-2.1,19-2.1,19l-63.7,62.5c-2.5,2.5-5.5,4.4-8.9,5.5c-5.5,1.7-15,2.7-19.2,1.1S139.9,326.8,139.9,326.8z"/>
<path class="st42" d="M241.3,213.9l11.5,12.3l7.9-8.3c0,0,4-4.2-1-10.4c-5-6.2-12.3,0-12.3,0L241.3,213.9z"/>
<path class="st42" d="M220.5,224.8l6-4.5v-14.2h-12.6L220.5,224.8z"/>
<g>
	<linearGradient id="SVGID_12_" gradientUnits="userSpaceOnUse" x1="1741.7629" y1="366.276" x2="1801.2266" y2="387.919">
		<stop  offset="0.141" style="stop-color:#E81B2F"/>
		<stop  offset="0.2324" style="stop-color:#EB3446;stop-opacity:0.8613"/>
		<stop  offset="0.4274" style="stop-color:#F17581;stop-opacity:0.5655"/>
		<stop  offset="0.7081" style="stop-color:#FBDCDF;stop-opacity:0.1395"/>
		<stop  offset="0.8" style="stop-color:#FFFFFF;stop-opacity:0"/>
	</linearGradient>
	<path class="st44" d="M1811.5,346.6c0,0-31.9-4.9-56.6-4.6l-27.6,64c16.1-0.6,84.2-10.8,84.2-10.8V346.6z"/>
	<path class="st33" d="M1729.5,346.6c-7.7-16.7-77.5-94.7-77.5-94.7l-44.4,25.1c0,0,24.9,36.3,52.2,69.6c25.7,31.3,53.8,58,59.3,59
		c2.3,0.4,5.1,0.5,8.2,0.4l27.6-64C1743.8,342.2,1734.1,343.4,1729.5,346.6z"/>
</g>
</svg>
